<svg viewBox="0 0 442 476" fill="none" xmlns="http://www.w3.org/2000/svg">
<path d="M268.062 246.185L213.285 244.127C199.285 253.675 189.535 269.482 182.86 285.19C174.887 303.937 94.5 409.867 96.5 411.5C97.255 412.697 98.0425 413.849 98.8625 414.957L94.4175 419.975C99.6525 427.57 112.147 436.382 120.727 438.247C121.858 436.172 123.126 434.174 124.522 432.267C126.575 432.783 128.656 433.177 130.755 433.447C143.067 418.295 175.305 378.035 204.005 339.93C198.277 370.075 191.42 401.74 184.29 439.472C185.777 440.192 187.291 440.852 188.832 441.452L186.25 452.8C195.909 455.563 206.149 455.563 215.807 452.8L217.66 445.8C219.722 445.688 221.792 445.498 223.87 445.23C243.75 385.11 259.07 306.44 268.062 246.185ZM167.75 324.915L189.79 291.89C196.532 300.593 205.594 307.217 215.932 311L193.182 341.682C184.732 339.715 173.027 331.457 167.75 324.915Z" fill="#18216D"/>
<path d="M120.683 464.317V437.432C120.683 437.308 120.732 437.188 120.82 437.1C120.908 437.012 121.028 436.962 121.153 436.962C121.277 436.962 121.397 437.012 121.485 437.1C121.573 437.188 121.623 437.308 121.623 437.432V464.317C121.623 464.442 121.573 464.562 121.485 464.65C121.397 464.738 121.277 464.787 121.153 464.787C121.028 464.787 120.908 464.738 120.82 464.65C120.732 464.562 120.683 464.442 120.683 464.317V464.317Z" fill="#ff825c"/>
<path d="M172.738 199.962L157.038 152.385C156.996 152.302 156.932 152.232 156.853 152.183C156.774 152.134 156.683 152.108 156.59 152.108C156.497 152.108 156.406 152.134 156.327 152.183C156.248 152.232 156.184 152.302 156.143 152.385L140.443 199.962C140.404 200.081 140.414 200.209 140.47 200.32C140.526 200.431 140.624 200.515 140.742 200.554C140.86 200.593 140.989 200.584 141.1 200.528C141.211 200.473 141.295 200.375 141.335 200.257L148.307 179.13H164.873L171.843 200.25C171.881 200.369 171.964 200.467 172.075 200.524C172.186 200.581 172.315 200.592 172.434 200.554C172.552 200.516 172.651 200.432 172.708 200.321C172.765 200.21 172.776 200.081 172.738 199.962ZM148.617 178.19L156.59 154.032L164.56 178.19H148.617Z" fill="#ff825c"/>
<path d="M201.813 351.72C201.515 351.72 196.92 349.995 196.64 349.888C196.524 349.843 196.43 349.754 196.379 349.64C196.329 349.526 196.325 349.396 196.37 349.28C196.415 349.164 196.504 349.07 196.618 349.019C196.732 348.969 196.861 348.965 196.978 349.01C198.62 349.638 200.298 350.243 201.963 350.805C202.068 350.841 202.157 350.913 202.214 351.008C202.272 351.104 202.293 351.216 202.275 351.326C202.257 351.436 202.201 351.536 202.116 351.608C202.032 351.68 201.924 351.72 201.813 351.72V351.72Z" fill="#ff825c"/>
<path d="M133.83 271.618L121.15 279.022C119.922 276.957 119.317 275.92 119.317 275.92C119.251 275.82 119.148 275.749 119.031 275.722C118.914 275.694 118.79 275.713 118.686 275.774C118.582 275.834 118.505 275.932 118.471 276.048C118.437 276.163 118.448 276.288 118.502 276.395C118.502 276.395 119.187 277.568 120.582 279.895C120.93 280.485 120.662 280.425 134.305 272.42C134.395 272.35 134.457 272.249 134.478 272.137C134.5 272.024 134.479 271.908 134.421 271.809C134.363 271.711 134.271 271.637 134.162 271.602C134.053 271.567 133.935 271.572 133.83 271.618V271.618Z" fill="#ff825c"/>
<path d="M212.81 240.515C124.275 291.735 127.617 290.25 127.365 290.435C127.005 290.84 127.03 290.638 130.245 295.865C137.465 307.1 146.282 317.222 156.42 325.915C156.515 325.992 156.636 326.029 156.758 326.018C156.88 326.007 156.992 325.949 157.072 325.856C157.152 325.763 157.192 325.643 157.185 325.521C157.177 325.399 157.123 325.285 157.032 325.203C146.962 316.573 138.204 306.521 131.032 295.365C130.122 293.883 129.162 292.31 128.327 290.945L213.277 241.328C213.376 241.261 213.445 241.16 213.471 241.044C213.498 240.929 213.48 240.807 213.421 240.704C213.362 240.602 213.266 240.525 213.153 240.49C213.039 240.455 212.917 240.464 212.81 240.515V240.515Z" fill="#ff825c"/>
<path d="M285.465 123.19C283.729 123.193 282.025 123.664 280.535 124.555C275.462 127.593 270.153 130.217 264.657 132.4L258.685 132.827C252.92 133.015 247.365 132.652 245.472 132.73C244.522 132.767 244.06 134.185 249.027 135.462L250.465 136.062C250.04 136.125 249.627 136.182 249.237 136.23C244.025 136.88 242.015 138.032 243.865 139.055C243.865 140.805 243.325 141.555 242.145 139.522C239.97 135.802 235.625 139.15 239.335 143.937C239.978 144.951 240.308 146.132 240.285 147.332C240.261 148.533 239.885 149.7 239.202 150.687L240.015 153.902C240.797 157.537 240.797 161.296 240.015 164.93C239.63 167.054 238.548 168.99 236.94 170.43C244.055 175.415 253.17 175.35 258.772 168.767C255.095 169.267 252.95 168.82 252.432 164.542L248.317 158.197C249.91 158.847 252.112 159.697 252.112 159.697C253.368 160.039 254.661 160.225 255.962 160.25C259.392 160.25 261.367 158.485 261.892 154.38C262.086 149.683 261.61 144.982 260.477 140.42C264.274 140.488 268.067 140.126 271.782 139.342C272.094 140.288 272.082 141.311 271.75 142.25C270.532 144.522 267.62 147.532 266.915 148.805C265.32 151.662 263.665 154.92 271.072 149.7C273.15 148.24 280.795 144.51 284.12 142.84C286.313 136.527 286.778 129.743 285.465 123.19V123.19Z" fill="white"/>
<path d="M317.592 239.805C321.28 239.509 324.799 238.132 327.707 235.845C328.408 235.195 328.967 234.407 329.351 233.532C329.734 232.657 329.934 231.712 329.938 230.756C329.942 229.8 329.749 228.854 329.372 227.976C328.996 227.097 328.442 226.306 327.747 225.65C323.942 222.002 315.657 221.15 310.432 221.34C310.334 221.353 310.243 221.396 310.171 221.464C310.099 221.531 310.05 221.62 310.032 221.717C310.01 221.967 309.98 269.447 310.115 269.657C310.189 269.759 310.3 269.827 310.425 269.847C312.234 270.06 314.055 270.163 315.877 270.155C327.167 270.155 337.827 266.49 337.827 255.192C337.827 245.295 327.39 241.185 317.592 239.805ZM327.092 226.327C327.695 226.896 328.175 227.582 328.502 228.344C328.828 229.106 328.995 229.926 328.991 230.755C328.987 231.584 328.813 232.403 328.48 233.161C328.146 233.92 327.66 234.602 327.052 235.165C323.537 238.54 315.745 239.362 310.957 239.265V222.265C313.175 222.232 322.93 222.332 327.097 226.327H327.092ZM332.952 264.437C326.36 270.225 313.42 269.215 310.952 268.962V240.212C318.047 240.29 328.452 242.142 333.552 247.212C334.621 248.245 335.467 249.485 336.039 250.856C336.61 252.228 336.896 253.702 336.877 255.187C336.95 256.923 336.636 258.654 335.958 260.253C335.28 261.853 334.255 263.282 332.957 264.437H332.952Z" fill="#ff825c"/>
<path d="M350.598 372.5C348.733 372.499 346.909 371.947 345.358 370.911C343.807 369.876 342.597 368.404 341.881 366.682C341.165 364.96 340.975 363.065 341.335 361.235C341.695 359.405 342.589 357.723 343.904 356.4C345.219 355.077 346.896 354.174 348.724 353.803C350.552 353.433 352.448 353.612 354.174 354.318C355.901 355.024 357.379 356.225 358.423 357.77C359.468 359.315 360.031 361.135 360.043 363C360.051 364.245 359.813 365.48 359.342 366.633C358.871 367.786 358.177 368.834 357.299 369.717C356.421 370.6 355.376 371.301 354.226 371.779C353.076 372.256 351.843 372.501 350.598 372.5V372.5ZM342.098 363.11C342.107 364.507 342.46 365.881 343.126 367.109C343.793 368.338 344.752 369.383 345.919 370.152C347.085 370.921 348.424 371.391 349.815 371.519C351.207 371.648 352.609 371.431 353.897 370.889C355.185 370.347 356.319 369.495 357.199 368.41C358.079 367.324 358.678 366.039 358.943 364.666C359.208 363.294 359.131 361.878 358.718 360.543C358.304 359.208 357.569 357.995 356.575 357.012C355.38 355.831 353.861 355.03 352.21 354.712C350.56 354.393 348.852 354.572 347.302 355.224C345.753 355.876 344.432 356.973 343.506 358.375C342.58 359.778 342.091 361.424 342.1 363.105L342.098 363.11Z" fill="#ff825c"/>
<path d="M364.465 385.778C364.456 384.225 364.83 382.694 365.554 381.32C366.278 379.946 367.329 378.772 368.615 377.902C369.901 377.031 371.382 376.492 372.927 376.33C374.471 376.169 376.032 376.391 377.47 376.977C378.908 377.563 380.179 378.495 381.172 379.689C382.164 380.884 382.846 382.305 383.158 383.826C383.469 385.347 383.401 386.922 382.959 388.411C382.517 389.899 381.714 391.256 380.622 392.36C379.307 393.681 377.63 394.583 375.803 394.954C373.976 395.325 372.08 395.148 370.354 394.444C368.627 393.741 367.147 392.543 366.1 391.001C365.052 389.459 364.483 387.642 364.465 385.778ZM365.405 385.778C365.414 387.175 365.768 388.548 366.435 389.776C367.101 391.004 368.06 392.049 369.227 392.818C370.394 393.587 371.732 394.056 373.123 394.185C374.514 394.313 375.916 394.097 377.204 393.554C378.491 393.012 379.625 392.161 380.506 391.076C381.386 389.991 381.985 388.705 382.25 387.333C382.516 385.962 382.438 384.546 382.026 383.211C381.613 381.876 380.878 380.663 379.885 379.68C378.687 378.504 377.168 377.708 375.519 377.393C373.87 377.078 372.165 377.257 370.618 377.908C369.07 378.559 367.75 379.653 366.822 381.052C365.895 382.452 365.402 384.094 365.405 385.773V385.778Z" fill="#ff825c"/>
<path d="M341.48 394.552L382.358 353.195C382.445 353.106 382.564 353.056 382.689 353.055C382.814 353.054 382.934 353.102 383.023 353.19C383.112 353.277 383.162 353.397 383.163 353.521C383.164 353.646 383.115 353.766 383.028 353.855C349.765 387.507 343.433 393.977 342.175 395.145C341.555 395.72 341.118 394.917 341.48 394.552Z" fill="#ff825c"/>
<path d="M131.31 269.04C125.957 272.588 120.287 275.634 114.372 278.138L104.192 260.543C101.025 260.905 94.4924 261.383 92.4424 259.728C89.5074 257.373 101.665 254.728 104.915 253.59C109.197 252.09 115.202 249.7 119.305 247.863C121.952 255.608 126.024 262.791 131.31 269.04V269.04Z" fill="white"/>
<path d="M67.7823 45.56C67.2823 44.99 65.7623 42.76 59.7398 34.2875C59.6878 34.1867 59.674 34.0706 59.7009 33.9606C59.7278 33.8505 59.7936 33.7538 59.8861 33.6884C59.9786 33.6229 60.0917 33.5931 60.2044 33.6044C60.3172 33.6158 60.4221 33.6674 60.4998 33.75L68.0648 44.4025L77.0398 28.7225C77.1017 28.6141 77.2043 28.5347 77.3248 28.5019C77.4453 28.4691 77.5738 28.4855 77.6823 28.5475C77.7907 28.6095 77.87 28.712 77.9028 28.8325C77.9356 28.953 77.9192 29.0816 77.8573 29.19C70.6723 41.755 68.9923 44.8 68.4648 45.525C68.2498 45.8175 68.0248 45.84 67.7823 45.56Z" fill="#ff825c"/>
<path d="M235.068 85.4799L239.068 82.5524C239.126 82.5086 239.173 82.4519 239.205 82.3868C239.238 82.3218 239.254 82.2501 239.254 82.1774C239.254 82.1047 239.238 82.033 239.205 81.9679C239.173 81.9029 239.126 81.8462 239.068 81.8024L209.09 59.8499C208.84 59.6674 212.713 59.7599 121.625 59.7599V0.974883C121.625 0.850232 121.576 0.730685 121.488 0.642543C121.399 0.554401 121.28 0.504883 121.155 0.504883C121.031 0.504883 120.911 0.554401 120.823 0.642543C120.735 0.730685 120.685 0.850232 120.685 0.974883V15.8699C56.3652 15.8699 46.8027 15.8049 45.3052 15.8849C44.9752 15.9024 45.0352 15.9274 44.9902 15.9599C22.5477 32.4999 16.7502 36.6499 15.2852 37.7699C14.6102 38.2874 14.6377 38.3324 15.3002 38.8649C16.8002 40.0624 22.6202 44.2849 44.7052 60.4024C45.1227 60.7074 44.9827 60.6774 45.5027 60.6924C47.5902 60.7574 58.8102 60.6924 120.683 60.6924C120.683 158.56 120.655 157.997 120.683 158.252C112.777 172.333 107.75 187.846 105.895 203.887C104.041 219.929 105.395 236.179 109.88 251.692C109.915 251.812 109.996 251.914 110.106 251.974C110.215 252.034 110.344 252.048 110.464 252.014C110.584 251.979 110.685 251.898 110.745 251.788C110.806 251.679 110.82 251.55 110.785 251.43C103.335 225.52 104.734 197.867 114.761 172.841C124.788 147.816 142.871 126.847 166.15 113.25L207.9 185.695C207.963 185.803 208.065 185.882 208.186 185.914C208.306 185.947 208.435 185.93 208.543 185.867C208.651 185.805 208.73 185.702 208.762 185.582C208.794 185.461 208.778 185.333 208.715 185.225L166.715 112.37C166.652 112.262 166.549 112.184 166.428 112.152C166.307 112.12 166.178 112.137 166.07 112.2C147.632 122.872 132.309 138.185 121.625 156.617V104.59H177.285L219.93 178.575C219.993 178.683 220.095 178.762 220.216 178.794C220.336 178.827 220.465 178.81 220.573 178.747C220.681 178.685 220.76 178.582 220.792 178.462C220.824 178.341 220.808 178.213 220.745 178.105L178 103.94C195.888 93.7121 215.867 87.6841 236.426 86.3112C256.986 84.9384 277.588 88.2567 296.677 96.0153C315.766 103.774 332.842 115.77 346.614 131.097C360.386 146.424 370.494 164.681 376.174 184.488C381.854 204.295 382.958 225.134 379.402 245.43C375.846 265.726 367.723 284.948 355.647 301.644C343.572 318.34 327.859 332.073 309.697 341.805C291.534 351.537 271.397 357.013 250.808 357.82C250.683 357.822 250.564 357.874 250.478 357.964C250.391 358.054 250.344 358.174 250.346 358.299C250.349 358.423 250.401 358.542 250.49 358.628C250.58 358.715 250.701 358.762 250.825 358.76C320.223 357.427 382.383 298.26 382.383 221.972C382.362 203.123 378.453 184.481 370.9 167.212C363.347 149.942 352.312 134.417 338.486 121.606C324.659 108.795 308.338 98.9747 290.544 92.7587C272.749 86.5427 253.864 84.0648 235.068 85.4799V85.4799ZM120.683 59.7499H45.4327L16.1027 38.2749L45.4327 16.7999H120.683V59.7499Z" fill="#ff825c"/>
<path d="M337.848 74.7076C334.734 73.2898 331.695 71.7127 328.743 69.9826L319.858 74.6551C319.78 74.6954 319.692 74.7132 319.604 74.7064C319.516 74.6995 319.432 74.6684 319.362 74.6164C319.291 74.5645 319.236 74.4938 319.203 74.4123C319.17 74.3308 319.16 74.2417 319.175 74.1551L320.873 64.2626L313.685 57.2626C313.622 57.2021 313.577 57.1253 313.556 57.0408C313.534 56.9563 313.536 56.8674 313.562 56.7841C313.588 56.7008 313.637 56.6264 313.703 56.5692C313.769 56.5119 313.849 56.4742 313.935 56.4601L323.868 55.0151L328.313 46.0151C328.358 45.9444 328.42 45.8862 328.494 45.8459C328.567 45.8056 328.65 45.7844 328.734 45.7844C328.818 45.7844 328.9 45.8056 328.974 45.8459C329.048 45.8862 329.11 45.9444 329.155 46.0151L333.598 55.0151L343.53 56.4601C343.616 56.4742 343.697 56.5119 343.763 56.5692C343.828 56.6264 343.877 56.7008 343.903 56.7841C343.929 56.8674 343.931 56.9563 343.909 57.0408C343.888 57.1253 343.843 57.2021 343.78 57.2626L336.593 64.2626L338.29 74.1551C338.302 74.2211 338.3 74.2888 338.283 74.3538C338.266 74.4188 338.236 74.4795 338.194 74.5318C338.152 74.5842 338.1 74.6269 338.04 74.6572C337.98 74.6875 337.915 74.7047 337.848 74.7076V74.7076ZM315.023 57.2501C322.273 64.3201 321.9 63.8326 321.84 64.1801L320.263 73.3776L328.513 69.0351C328.825 68.8726 328.245 68.6651 337.21 73.3776C335.503 63.4226 335.515 64.0126 335.768 63.7651L342.45 57.2501L333.215 55.9101C332.865 55.8576 333.215 56.3651 328.73 47.2826C324.248 56.3651 324.595 55.8576 324.248 55.9101L315.023 57.2501Z" fill="#ff825c"/>
<path d="M70.4149 199.64H63.6649V192.89C63.6649 192.765 63.6154 192.646 63.5272 192.558C63.4391 192.469 63.3195 192.42 63.1949 192.42C63.0702 192.42 62.9507 192.469 62.8625 192.558C62.7744 192.646 62.7249 192.765 62.7249 192.89V199.64H55.9749C55.8502 199.64 55.7307 199.689 55.6425 199.778C55.5544 199.866 55.5049 199.985 55.5049 200.11C55.5049 200.235 55.5544 200.354 55.6425 200.442C55.7307 200.53 55.8502 200.58 55.9749 200.58H62.7249V207.33C62.7249 207.455 62.7744 207.574 62.8625 207.662C62.9507 207.75 63.0702 207.8 63.1949 207.8C63.3195 207.8 63.4391 207.75 63.5272 207.662C63.6154 207.574 63.6649 207.455 63.6649 207.33V200.58H70.4149C70.5395 200.58 70.6591 200.53 70.7472 200.442C70.8354 200.354 70.8849 200.235 70.8849 200.11C70.8849 199.985 70.8354 199.866 70.7472 199.778C70.6591 199.689 70.5395 199.64 70.4149 199.64V199.64Z" fill="#ff825c"/>
<path d="M82.9701 265.5C81.3001 258.302 81.4501 258.642 81.2001 258.5C80.9501 258.357 81.3851 258.318 74.1251 260C74.0036 260.029 73.8984 260.104 73.8324 260.21C73.7663 260.316 73.7448 260.443 73.7726 260.565L75.3326 267.285C75.3572 267.389 75.416 267.481 75.4994 267.547C75.5828 267.613 75.6861 267.65 75.7926 267.65C76.0426 267.65 77.6076 267.235 82.6176 266.075C82.6791 266.062 82.7373 266.036 82.7886 265.999C82.84 265.963 82.8834 265.916 82.9163 265.863C82.9493 265.809 82.971 265.749 82.9802 265.687C82.9895 265.624 82.986 265.561 82.9701 265.5Z" fill="#ff825c"/>
<path d="M68.8876 261.235C68.875 261.111 68.8138 260.997 68.7173 260.918C68.6208 260.838 68.4969 260.801 68.3727 260.812C61.1227 261.527 61.3952 261.41 61.1902 261.66C60.9852 261.91 61.0352 261.575 61.7602 268.867C61.7713 268.984 61.8254 269.092 61.9118 269.17C61.9983 269.249 62.1109 269.292 62.2277 269.292L69.1401 268.615C69.2643 268.602 69.3784 268.541 69.4576 268.445C69.5367 268.348 69.5745 268.224 69.5626 268.1L68.8876 261.235Z" fill="#ff825c"/>
<path d="M55.6825 261.835H48.7825C48.5229 261.835 48.3125 262.045 48.3125 262.305V269.205C48.3125 269.465 48.5229 269.675 48.7825 269.675H55.6825C55.9421 269.675 56.1525 269.465 56.1525 269.205V262.305C56.1525 262.045 55.9421 261.835 55.6825 261.835Z" fill="#ff825c"/>
<path d="M104.6 260.307C104.537 260.199 104.435 260.12 104.314 260.088C104.194 260.056 104.065 260.073 103.957 260.135C103.849 260.197 103.77 260.3 103.738 260.42C103.706 260.541 103.722 260.669 103.785 260.777L112.035 275.11L103.305 280.377L93.9273 264.5C94.3748 264.25 99.3498 261.5 99.6373 261.34C99.7456 261.284 99.828 261.189 99.8673 261.073C99.9065 260.958 99.8994 260.832 99.8476 260.722C99.7957 260.612 99.7031 260.526 99.5893 260.483C99.4754 260.439 99.3493 260.442 99.2373 260.49C99.1798 260.512 98.4873 260.905 98.4273 260.935C97.6998 260.935 96.6923 260.905 95.8223 260.81L95.6473 260.502C95.5834 260.399 95.482 260.325 95.3643 260.295C95.2467 260.264 95.122 260.281 95.0163 260.341C94.9106 260.401 94.8322 260.499 94.7974 260.615C94.7626 260.732 94.7743 260.857 94.8298 260.965L95.6748 262.465C92.8748 264.015 92.8923 263.945 92.8223 264.215C92.7523 264.485 92.0348 263.33 102.745 281.272C102.787 281.342 102.846 281.4 102.917 281.441C102.988 281.481 103.068 281.502 103.15 281.502C103.4 281.502 103.56 281.335 105.812 279.97L112.64 291.762C85.7885 303.359 56.3821 307.771 27.3098 304.565C22.2037 288.383 19.5254 271.533 19.3623 254.565C42.4776 259.969 66.6465 258.769 89.1123 251.1L92.8748 257.772C92.9047 257.826 92.945 257.874 92.9934 257.912C93.0417 257.95 93.0972 257.978 93.1565 257.994C93.2158 258.011 93.2778 258.015 93.3389 258.008C93.3999 258 93.4589 257.98 93.5123 257.95L93.5973 257.905C93.7023 257.844 93.7795 257.744 93.8126 257.627C93.8457 257.51 93.8322 257.385 93.7748 257.277C95.9439 256.33 98.1821 255.55 100.47 254.942L100.527 255.042C100.59 255.15 100.692 255.229 100.813 255.262C100.933 255.294 101.062 255.277 101.17 255.215C101.278 255.153 101.357 255.05 101.389 254.929C101.421 254.809 101.405 254.68 101.342 254.572L91.6648 237.732C91.634 237.679 91.5929 237.632 91.5439 237.594C91.4949 237.557 91.439 237.529 91.3793 237.513C91.3197 237.497 91.2574 237.493 91.1961 237.501C91.1349 237.509 91.0758 237.529 91.0223 237.56L57.9048 256.587C44.8552 257.487 31.7442 256.447 18.9998 253.5C18.9308 253.484 18.8591 253.484 18.7901 253.5C18.7211 253.516 18.6565 253.547 18.6012 253.591C18.5459 253.635 18.5013 253.691 18.4708 253.755C18.4402 253.819 18.4245 253.889 18.4248 253.96C18.5245 271.328 21.2469 288.58 26.4998 305.135C26.5276 305.222 26.5802 305.299 26.6513 305.357C26.7223 305.415 26.8087 305.451 26.8998 305.46C29.4898 305.74 32.1498 305.96 34.7998 306.125C54.7273 340.857 53.4948 338.97 53.9148 338.97C54.1648 338.97 51.4773 340.45 120.677 300.5V375.32C120.677 375.445 120.727 375.564 120.815 375.652C120.903 375.74 121.023 375.79 121.147 375.79C121.272 375.79 121.392 375.74 121.48 375.652C121.568 375.564 121.617 375.445 121.617 375.32V299.955C125.75 297.57 125.735 297.662 125.797 297.357C125.86 297.052 127.34 299.597 104.6 260.307Z" fill="#ff825c"/>
<path d="M421.175 243.95C420.033 243.95 418.914 243.624 417.951 243.01C416.988 242.396 416.22 241.52 415.737 240.485C415.255 239.449 415.078 238.298 415.227 237.166C415.377 236.033 415.846 234.967 416.58 234.092C417.315 233.217 418.284 232.57 419.373 232.227C420.462 231.884 421.627 231.859 422.73 232.155C423.833 232.451 424.829 233.055 425.601 233.898C426.372 234.74 426.887 235.785 427.085 236.91C427.237 237.773 427.198 238.658 426.971 239.504C426.744 240.351 426.334 241.137 425.771 241.808C425.208 242.479 424.505 243.018 423.711 243.388C422.916 243.758 422.051 243.95 421.175 243.95V243.95ZM420.3 232.972C419.316 233.146 418.405 233.608 417.683 234.299C416.961 234.991 416.46 235.881 416.244 236.857C416.027 237.833 416.105 238.851 416.468 239.782C416.83 240.714 417.46 241.517 418.279 242.091C419.098 242.664 420.068 242.982 421.068 243.004C422.067 243.026 423.05 242.751 423.894 242.215C424.737 241.678 425.402 240.903 425.805 239.988C426.208 239.073 426.331 238.059 426.157 237.075C425.923 235.755 425.175 234.582 424.077 233.813C422.979 233.043 421.621 232.741 420.3 232.972V232.972Z" fill="#ff825c"/>
<path d="M440.702 474.537H247.452C247.857 474.021 248.046 473.368 247.98 472.715C247.913 472.063 247.596 471.461 247.095 471.037C241.975 466.69 228.822 456.262 216.387 452.487L218.092 446.237C220.017 446.122 221.965 445.939 223.935 445.687C224.023 445.677 224.106 445.642 224.175 445.585C224.244 445.529 224.295 445.454 224.322 445.37C233.302 418.195 241.03 388.335 247.462 359.747C248.946 359.783 250.395 359.296 251.555 358.371C252.716 357.447 253.515 356.144 253.812 354.69L261 318.587C261.12 317.974 261.114 317.343 260.982 316.732C260.85 316.121 260.595 315.544 260.232 315.035C259.87 314.526 259.407 314.096 258.873 313.772C258.339 313.448 257.744 313.236 257.125 313.15C262.512 284.975 266.332 260.975 268.527 246.275C271.91 232.742 275.692 219.95 275.055 205.435C294.265 195.917 319.83 175.71 334.527 159.645C347.762 144.785 342.872 127.54 326.08 124.955L281.77 118.022C278.52 117.682 275.835 122.165 274.52 125.175C271.352 122.44 262.442 124.487 258.435 125.637C256.195 123.033 253.157 121.242 249.794 120.542C246.431 119.842 242.931 120.273 239.837 121.767C239.508 121.874 239.2 122.037 238.927 122.25C236.086 123.852 233.817 126.303 232.438 129.259C231.059 132.215 230.639 135.528 231.237 138.735C214.102 151 219.125 158.665 239.195 152.525C240.284 156.534 240.415 160.743 239.577 164.812C239.233 166.823 238.226 168.661 236.717 170.035C215.195 180 230.95 170.26 117.467 242.285C117.363 242.354 117.29 242.462 117.265 242.585C117.656 244.284 118.14 245.959 118.715 247.605C113.7 249.822 107.58 252.16 104.757 253.14C100.607 254.58 92.0075 256.32 91.5075 258.705C91.465 258.972 91.5016 259.245 91.6126 259.491C91.7237 259.737 91.9044 259.945 92.1325 260.09C94.9125 262.322 103.655 261.115 105.382 260.84C108.807 265.167 115.727 264.06 121.01 262.445C121.122 262.403 121.213 262.32 121.266 262.213C121.318 262.106 121.328 261.983 121.294 261.869C121.259 261.754 121.182 261.658 121.079 261.598C120.976 261.538 120.854 261.52 120.737 261.547C113.315 263.812 108.347 263.297 105.965 260.047C105.913 259.977 105.843 259.923 105.762 259.89C105.682 259.857 105.593 259.848 105.507 259.862C102.712 260.325 94.9675 261.135 92.73 259.337C90.73 257.732 101.545 255.235 105.062 254.012C107.887 253.03 113.995 250.697 119.022 248.477C121.648 255.936 125.583 262.867 130.642 268.945C125.565 272.32 120.174 275.199 114.545 277.54L115.02 278.365C120.701 275.99 126.143 273.077 131.27 269.667C132.915 271.558 134.691 273.33 136.585 274.97C137.002 275.377 134.13 276.81 211.867 231.27L212.81 243.872C200.72 252.197 190.502 266.027 182.442 284.985C177.03 297.715 134.157 356.415 120.785 375.022C96.81 408.377 95.455 411.04 96.1375 411.772C96.8 412.817 97.5 413.852 98.2775 414.927L90.905 423.177C84.5875 428.567 87.04 437.832 88.39 441.567C91.0275 448.867 93.4825 461.492 96.315 467.715C97.8028 470.877 100.482 473.322 103.767 474.515H1.29746C1.17712 474.524 1.06453 474.578 0.982354 474.666C0.900174 474.754 0.854492 474.87 0.854492 474.991C0.854492 475.112 0.900174 475.228 0.982354 475.316C1.06453 475.405 1.17712 475.459 1.29746 475.467C514.775 475.467 61.5474 475.452 440.702 475.452C440.806 475.428 440.897 475.37 440.963 475.287C441.029 475.204 441.065 475.101 441.065 474.995C441.065 474.889 441.029 474.786 440.963 474.703C440.897 474.62 440.806 474.562 440.702 474.537ZM98.8325 415.732C104.963 424.03 113.76 429.969 123.747 432.555C122.514 434.181 121.417 435.906 120.467 437.712C110.396 434.503 101.524 428.336 95.0075 420.012L98.8325 415.732ZM128.45 474.537C124.7 464.94 121.842 464.77 116.545 459.87C116.046 450.171 118.942 440.602 124.735 432.807C126.712 433.292 128.715 433.664 130.735 433.92C130.805 433.92 130.874 433.904 130.937 433.875C131 433.845 131.056 433.801 131.1 433.747C131.67 433.047 169.227 386.77 203.14 341.842C203.14 341.842 187.64 419.067 183.805 439.387C183.788 439.486 183.803 439.588 183.848 439.678C183.893 439.768 183.966 439.842 184.055 439.887C185.418 440.554 186.804 441.163 188.212 441.715L185.775 452.657C183.767 458.389 182.54 464.366 182.127 470.425C182.077 471.236 182.247 472.046 182.619 472.768C182.991 473.49 183.552 474.098 184.242 474.527L128.45 474.537ZM217.097 446.287L215.427 452.4C206.069 455.016 196.174 455.036 186.805 452.457L189.12 442.06C198.049 445.405 207.578 446.849 217.097 446.3V446.287ZM184.807 439.195C188.622 419.022 199.027 367.662 200.525 360.16L231.137 307.397L199.722 444.145C194.564 443.127 189.554 441.469 184.807 439.207V439.195ZM260.075 318.392L252.885 354.5C252.637 355.704 251.984 356.786 251.035 357.568C250.087 358.349 248.899 358.782 247.67 358.795C251.145 343.295 254.24 328.165 256.945 314.067C257.443 314.13 257.923 314.294 258.354 314.55C258.786 314.806 259.16 315.148 259.454 315.555C259.747 315.962 259.954 316.425 260.061 316.915C260.168 317.406 260.173 317.913 260.075 318.405V318.392ZM237.415 171.325C240.733 173.624 244.738 174.719 248.765 174.427L237.415 183.58V171.325ZM258.582 169.635L262.627 180.945L251.59 173.867C254.227 173.039 256.625 171.587 258.582 169.635V169.635ZM258.71 168.312C254.975 168.835 253.36 168.245 252.905 164.497C252.687 162.705 252.617 161.122 252.597 160.302C255.572 160.972 258.822 161.105 260.75 158.762C262.855 156.202 263.055 150.975 261.38 142.327C265.72 139.622 261.275 141.775 271.427 139.892C271.639 140.597 271.608 141.353 271.337 142.037C270.302 143.97 267.107 147.5 266.505 148.587C265.382 150.587 264.647 152.07 265.367 152.72C266.552 153.792 270.367 150.61 272.532 149.352C272.76 150.224 273.216 151.018 273.855 151.653C274.493 152.288 275.29 152.74 276.162 152.962C278.027 153.29 282.93 153.872 289.98 154.807C279.385 162.225 278.1 163.057 267.23 165.83C264.624 166.433 262.055 167.185 259.535 168.08C259.269 168.187 258.993 168.265 258.71 168.312V168.312ZM254.765 140.232C251.098 140.323 247.443 139.762 243.972 138.575C243.385 138.222 243.797 138.195 244.095 137.925C246.292 136.74 250.05 136.967 257.012 135.26C259.702 134.637 262.342 133.816 264.91 132.802C281.365 125.712 280.592 123.852 285.107 123.67C286.269 129.965 285.798 136.454 283.737 142.515C273.305 147.872 272.085 148.422 270.802 149.325C266.877 152.09 266.085 152.037 266.025 152.06C265.88 151.637 266.97 149.687 267.327 149.042C267.907 147.995 270.995 144.667 272.167 142.482C272.551 141.595 272.614 140.601 272.345 139.672C273.345 139.482 274.427 139.257 275.64 139C275.7 138.987 275.758 138.962 275.808 138.927C275.859 138.892 275.903 138.847 275.936 138.795C275.97 138.743 275.993 138.685 276.004 138.625C276.015 138.564 276.014 138.502 276.001 138.441C275.988 138.381 275.964 138.323 275.928 138.273C275.893 138.222 275.849 138.178 275.797 138.145C275.745 138.111 275.687 138.088 275.626 138.077C275.565 138.066 275.503 138.067 275.442 138.08C270.122 139.215 269.635 139.265 268.547 139.43C265.135 139.828 261.705 140.048 258.27 140.087C257.09 140.181 255.922 140.229 254.765 140.232ZM250.572 135.57C249.932 135.264 249.262 135.023 248.572 134.852C247.742 134.602 245.775 133.992 245.322 133.252C245.371 133.221 245.427 133.203 245.485 133.2C248.4 133.077 253.72 133.672 261.29 133.102C257.783 134.186 254.201 135.011 250.572 135.57V135.57ZM278.637 152.36C281.573 149.962 283.654 146.678 284.57 143C286.792 136.598 287.258 129.718 285.92 123.075C285.594 121.711 284.97 120.436 284.092 119.342L297.612 121.46C299.414 126.922 299.914 132.73 299.072 138.419C298.23 144.109 296.071 149.523 292.765 154.23C290.652 153.947 293.212 154.287 278.637 152.36V152.36ZM240.217 122.61C243.059 121.233 246.269 120.811 249.37 121.407C252.471 122.003 255.296 123.585 257.425 125.917C248.436 128.753 239.899 132.863 232.075 138.12C231.595 135.005 232.127 131.819 233.593 129.029C235.058 126.24 237.38 123.994 240.217 122.622V122.61ZM240.467 165.035C241.238 161.324 241.238 157.495 240.467 153.785C240.345 153.285 239.797 151.085 239.717 150.785C240.393 149.719 240.751 148.482 240.751 147.22C240.751 145.958 240.393 144.721 239.717 143.655C236.987 140.1 238.967 137.58 240.735 138.655C241.229 139.001 241.627 139.465 241.895 140.005C242.937 141.69 243.83 141.452 244.182 140.43C244.525 139.205 243.212 140.01 249.025 140.807C252.717 141.242 256.445 141.282 260.145 140.927C261.097 145.535 262.895 154.677 260.032 158.177C258.612 159.907 256.107 160.23 252.267 159.267C249.89 158.36 249.017 157.972 248.622 157.827C248.102 157.63 247.59 157.887 248.122 158.755C248.53 159.435 249.557 160.96 252.007 164.732C252.485 168.435 254.215 169.617 257.49 169.402C254.857 171.887 251.427 173.354 247.812 173.542C244.197 173.729 240.633 172.624 237.757 170.425C239.153 168.925 240.096 167.06 240.477 165.047L240.467 165.035ZM136.955 274.082C127.83 265.72 121.335 254.883 118.262 242.892L130.432 235.172C133.453 247.389 140.169 258.377 149.662 266.637L136.955 274.082ZM150.52 266.135C140.968 257.905 134.236 246.889 131.27 234.635C229.322 172.467 217.595 179.782 236.48 171.165V184.552C236.48 184.641 236.505 184.728 236.553 184.803C236.6 184.878 236.668 184.938 236.748 184.976C236.828 185.014 236.917 185.029 237.005 185.018C237.093 185.008 237.176 184.973 237.245 184.917L250.47 174.255L263.287 182.47C263.37 182.523 263.467 182.548 263.565 182.543C263.663 182.538 263.757 182.502 263.833 182.441C263.91 182.38 263.965 182.296 263.992 182.202C264.019 182.107 264.016 182.007 263.982 181.915L259.405 169.112C259.557 169.07 259.715 169.02 259.875 168.96C266.462 166.44 275.165 165.78 282.272 161.15L306.872 157.007C306.984 156.989 307.085 156.932 307.157 156.845C307.23 156.759 307.269 156.649 307.267 156.536C307.265 156.423 307.223 156.315 307.148 156.23C307.072 156.146 306.969 156.092 306.857 156.077L293.815 154.355C297.055 149.622 299.174 144.212 300.011 138.538C300.848 132.863 300.381 127.072 298.645 121.605L325.937 125.875C342.13 128.375 346.437 144.835 333.832 159.005C319.966 173.604 304.379 186.465 287.412 197.307C273.067 199.755 273.702 199.53 273.452 199.825C273.117 200.382 273.952 201.99 274.105 205.162C274.79 219.557 271.03 232.457 267.705 245.69L213.727 243.665L213.127 235.615L218.205 227.5C218.261 227.411 218.286 227.305 218.275 227.2C218.264 227.095 218.218 226.997 218.144 226.921C218.071 226.845 217.974 226.797 217.869 226.783C217.764 226.769 217.658 226.791 217.567 226.845L150.52 266.135ZM183.292 285.372C191.292 266.535 201.44 252.82 213.422 244.605L267.52 246.632C258.31 308.175 243.09 385.477 223.52 444.795C215.917 445.81 208.204 445.65 200.65 444.322L232.737 304.657C241.895 288.865 245.337 283.085 246.507 280.907C247.565 278.937 246.492 279.08 245.672 280.12C242.007 284.765 227.422 313.492 130.547 432.952C121.55 431.905 113.073 428.188 106.207 422.28L172.23 330.16C178.215 335.641 185.338 339.733 193.087 342.142H193.182C193.235 342.141 193.287 342.132 193.337 342.115C193.587 342.002 216.365 311.277 216.402 311.027C216.412 310.921 216.385 310.814 216.325 310.725C216.266 310.637 216.177 310.571 216.075 310.54C208.4 307.726 201.394 303.349 195.497 297.687L218.142 266.607C222.32 264.362 225.784 260.99 228.142 256.875C228.206 256.768 228.225 256.64 228.195 256.519C228.164 256.398 228.087 256.294 227.98 256.23C227.873 256.166 227.745 256.147 227.624 256.178C227.503 256.208 227.399 256.285 227.335 256.392C222.292 264.85 214.287 268.835 203.562 268.742C203.438 268.739 203.317 268.785 203.226 268.871C203.136 268.957 203.083 269.075 203.08 269.2C203.077 269.325 203.123 269.445 203.209 269.536C203.295 269.626 203.413 269.679 203.537 269.682C207.927 269.872 212.306 269.112 216.375 267.455L194.825 297.03C193.11 295.436 191.58 293.653 190.265 291.715C190.002 291.367 189.88 291.322 189.567 291.482C189.45 291.57 167.387 324.555 167.317 324.792C167.288 324.911 167.306 325.037 167.367 325.142C168.638 326.71 170.032 328.174 171.537 329.517L105.5 421.65C102.187 418.618 99.3063 415.145 96.94 411.327C98.215 405.925 175.607 303.455 183.292 285.372V285.372ZM214.25 310.947L193.07 316.47L190.467 293.627C196.871 301.246 205.034 307.191 214.25 310.947V310.947ZM189.475 293.22C192.392 318.83 192.137 317.272 192.397 317.45C192.657 317.627 191.26 317.915 214.757 311.787L193 341.15C184.607 339.07 173.445 331.04 168.357 324.9L189.475 293.22Z" fill="#18216D"/>
<path d="M190.462 80.9999L199.167 72.3199C199.256 72.2314 199.305 72.1115 199.305 71.9865C199.304 71.8616 199.255 71.7418 199.166 71.6537C199.078 71.5655 198.958 71.5161 198.833 71.5163C198.708 71.5165 198.588 71.5664 198.5 71.6549L189.795 80.3349L181.112 71.6299C181.024 71.5417 180.905 71.4922 180.78 71.4922C180.655 71.4922 180.536 71.5417 180.447 71.6299C180.359 71.7181 180.31 71.8377 180.31 71.9624C180.31 72.0871 180.359 72.2067 180.447 72.2949L189.13 80.9999L180.425 89.6824C180.337 89.7706 180.287 89.8902 180.287 90.0149C180.287 90.1396 180.337 90.2592 180.425 90.3474C180.513 90.4356 180.633 90.4851 180.757 90.4851C180.882 90.4851 181.002 90.4356 181.09 90.3474L189.795 81.6649L198.477 90.3724C198.566 90.4606 198.685 90.5101 198.81 90.5101C198.935 90.5101 199.054 90.4606 199.142 90.3724C199.231 90.2842 199.28 90.1646 199.28 90.0399C199.28 89.9152 199.231 89.7956 199.142 89.7074L190.462 80.9999Z" fill="white"/>
<path d="M256.139 142.985C256.077 142.828 255.955 142.701 255.8 142.631C255.645 142.562 255.47 142.555 255.31 142.613C255.151 142.671 255.02 142.789 254.947 142.942C254.873 143.095 254.862 143.271 254.915 143.432L254.928 143.468L257.613 150.209L255.829 150.869C255.674 150.926 255.545 151.041 255.472 151.19C255.398 151.339 255.383 151.51 255.432 151.669L255.444 151.706C255.501 151.862 255.616 151.99 255.765 152.064C255.914 152.137 256.086 152.152 256.245 152.103L256.281 152.091L258.692 151.201C258.85 151.142 258.98 151.024 259.053 150.872C259.126 150.72 259.138 150.545 259.085 150.385L259.071 150.348L256.139 142.985Z" fill="#2E186A"/>
<path d="M257.5 142.715C257.24 142.109 257.342 141.483 257.728 141.318C258.114 141.153 258.638 141.51 258.898 142.116C259.157 142.723 259.055 143.348 258.67 143.514C258.284 143.679 257.76 143.322 257.5 142.715Z" fill="#2E186A"/>
<path d="M250.798 145.605C250.656 144.961 250.873 144.365 251.283 144.275C251.693 144.184 252.141 144.633 252.283 145.278C252.425 145.922 252.208 146.517 251.798 146.608C251.388 146.698 250.941 146.249 250.798 145.605Z" fill="#2E186A"/>
<path d="M248.962 140.731C248.928 140.562 248.828 140.413 248.684 140.317C248.541 140.221 248.365 140.186 248.195 140.22C247.279 140.39 246.449 140.869 245.842 141.576C245.584 141.876 245.37 142.212 245.205 142.572C245.13 142.73 245.068 142.895 245.021 143.064C244.978 143.228 245.001 143.402 245.085 143.55C245.169 143.697 245.307 143.806 245.47 143.853C245.633 143.9 245.808 143.882 245.957 143.803C246.107 143.723 246.22 143.588 246.272 143.427L246.292 143.359C246.319 143.276 246.352 143.194 246.389 143.115C246.503 142.865 246.652 142.633 246.831 142.424C247.248 141.938 247.82 141.611 248.451 141.498C248.62 141.464 248.769 141.364 248.865 141.22C248.961 141.077 248.996 140.901 248.962 140.731V140.731Z" fill="#2E186A"/>
<path d="M251.868 154.769C251.803 154.825 251.751 154.894 251.713 154.971C251.675 155.047 251.653 155.131 251.647 155.216C251.642 155.302 251.653 155.387 251.68 155.468C251.708 155.549 251.751 155.624 251.808 155.688C251.882 155.77 251.961 155.847 252.045 155.919C252.235 156.084 252.441 156.231 252.658 156.36C254.04 157.179 255.786 157.284 257.787 156.251C257.941 156.172 258.057 156.035 258.109 155.87C258.162 155.705 258.147 155.526 258.068 155.373C257.988 155.219 257.851 155.103 257.686 155.051C257.522 154.998 257.343 155.013 257.189 155.092C255.601 155.912 254.33 155.836 253.323 155.239C253.174 155.151 253.033 155.05 252.902 154.936L252.848 154.888L252.788 154.829C252.731 154.764 252.663 154.712 252.586 154.674C252.509 154.636 252.425 154.614 252.34 154.608C252.255 154.603 252.169 154.614 252.088 154.641C252.007 154.669 251.932 154.712 251.868 154.769V154.769Z" fill="#2E186A"/>
</svg>
