<svg width="474" height="476" viewBox="0 0 474 476" fill="none" xmlns="http://www.w3.org/2000/svg">
<path d="M463.647 371.19L421.75 406.5C410.16 402.873 399.94 392.145 398.685 379.38L436.372 346.835L418.045 327.473C415.112 335.163 411.582 346.383 412.097 353.87L412.252 355.253C397.703 359.087 382.403 359.044 367.875 355.128C361.977 343.047 359.049 329.733 359.332 316.293C343.265 312.341 327.979 305.706 314.12 296.668C308.222 292.915 303.876 287.162 301.879 280.463C299.882 273.764 300.369 266.569 303.25 260.2L326.322 209.405C332.116 209.259 337.87 210.399 343.169 212.746C348.469 215.092 353.181 218.585 356.967 222.973L337.265 269.21C348.497 275.78 367.825 285.21 380.42 282.013L376.132 293.658C375.87 294.348 375.766 295.089 375.829 295.825C375.893 296.561 376.121 297.274 376.497 297.91C376.873 298.546 377.387 299.089 378.002 299.499C378.617 299.909 379.316 300.175 380.047 300.278L398.195 302.818C399.257 302.965 400.338 302.762 401.273 302.238C402.209 301.715 402.948 300.9 403.377 299.918L410.027 284.1C424.93 288.143 440.527 301.825 450.592 313.54C457.518 321.57 463.7 330.213 469.06 339.363C472.065 344.452 473.171 350.441 472.18 356.267C471.189 362.094 468.166 367.381 463.647 371.19V371.19Z" fill="#18216D"/>
<path d="M384.142 246.87H347C346.875 246.87 346.756 246.821 346.667 246.733C346.579 246.644 346.53 246.525 346.53 246.4C346.53 246.276 346.579 246.156 346.667 246.068C346.756 245.98 346.875 245.93 347 245.93H384.152C384.277 245.932 384.396 245.982 384.483 246.071C384.57 246.16 384.619 246.281 384.617 246.405C384.616 246.53 384.565 246.649 384.476 246.736C384.387 246.823 384.267 246.871 384.142 246.87Z" fill="#FE7624"/>
<path d="M445.405 245.93H421.54C421.415 245.93 421.296 245.98 421.207 246.068C421.119 246.156 421.07 246.276 421.07 246.4C421.07 246.525 421.119 246.644 421.207 246.733C421.296 246.821 421.415 246.87 421.54 246.87H445.405C448.181 246.873 450.843 247.978 452.806 249.941C454.77 251.904 455.874 254.566 455.877 257.343V320.548C455.877 320.672 455.927 320.792 456.015 320.88C456.103 320.968 456.223 321.018 456.347 321.018C456.472 321.018 456.592 320.968 456.68 320.88C456.768 320.792 456.817 320.672 456.817 320.548V257.343C456.814 254.317 455.611 251.416 453.471 249.276C451.331 247.137 448.431 245.933 445.405 245.93V245.93Z" fill="#FE7624"/>
<path d="M253.4 174.485C249.203 175.125 244.225 175.298 239.113 175.54C259.285 183.29 249.155 181.778 236.275 180.29C254.775 191.935 221.275 178.54 216.025 179.663C214.15 180.645 212.364 181.788 210.688 183.08C210.226 179.68 209.04 176.418 207.21 173.514C205.38 170.611 202.949 168.134 200.08 166.25C218.56 162.733 239.193 138.115 222.33 162.075C220.845 164.508 220.448 166.1 222.245 166.71C237.628 168.35 254.65 171.718 253.4 174.485Z" fill="white"/>
<path d="M112.115 261.137C116.515 265.092 117.775 270.04 115.783 271.61C115.199 271.998 114.541 272.261 113.85 272.382C114.55 276.047 112.1 276.78 108.95 276.447C108.962 276.875 108.885 277.3 108.725 277.697C108.565 278.093 108.325 278.453 108.02 278.752C105.325 281.215 96.2202 279.925 93.6552 273.43C88.2676 272.323 82.7185 272.255 77.3052 273.227C81.6917 265 83.06 255.496 81.1727 246.365C81.0927 245.9 111.113 247.005 111.21 249.007C111.308 251.01 106.12 252.165 105.71 252.257C114.367 255.631 123.198 258.537 132.165 260.965C135.118 261.597 126.653 265.1 112.115 261.137Z" fill="white"/>
<path d="M293.415 85.9648H171.665C163.896 85.9748 156.448 89.0659 150.955 94.5602C145.462 100.055 142.373 107.503 142.365 115.272V134.39H96.0149C95.8903 134.39 95.7707 134.439 95.6826 134.528C95.5944 134.616 95.5449 134.735 95.5449 134.86C95.5449 134.984 95.5944 135.104 95.6826 135.192C95.7707 135.28 95.8903 135.33 96.0149 135.33H174.635C177.411 135.333 180.073 136.438 182.036 138.401C183.998 140.364 185.102 143.026 185.105 145.802V169.615C185.105 169.74 185.154 169.859 185.243 169.947C185.331 170.035 185.45 170.085 185.575 170.085C185.7 170.085 185.819 170.035 185.907 169.947C185.995 169.859 186.045 169.74 186.045 169.615V145.802C186.042 142.777 184.839 139.876 182.7 137.737C180.561 135.598 177.66 134.394 174.635 134.39H156.117V118.055C156.142 115.467 156.682 112.911 157.708 110.535C158.733 108.159 160.222 106.012 162.088 104.219C163.953 102.427 166.158 101.024 168.573 100.094C170.988 99.1646 173.564 98.7262 176.15 98.8048H289.832C292.418 98.7272 294.993 99.1664 297.406 100.097C299.819 101.027 302.023 102.43 303.887 104.223C305.752 106.015 307.239 108.162 308.263 110.538C309.287 112.913 309.826 115.468 309.85 118.055C309.867 253.715 309.645 244.98 310.222 245.102C310.327 245.125 310.437 245.111 310.533 245.063C310.629 245.015 310.706 244.935 310.75 244.837C323.172 217.587 322.725 218.627 322.725 218.375V115.272C322.716 107.502 319.625 100.052 314.13 94.5582C308.635 89.0639 301.185 85.9734 293.415 85.9648V85.9648Z" fill="#FE7624"/>
<path d="M68.2624 134.388H20.8124C17.7866 134.391 14.8857 135.594 12.7462 137.734C10.6067 139.874 9.40321 142.774 9.3999 145.8V211.433C9.3999 211.557 9.44942 211.677 9.53756 211.765C9.6257 211.853 9.74525 211.903 9.8699 211.903C9.99455 211.903 10.1141 211.853 10.2022 211.765C10.2904 211.677 10.3399 211.557 10.3399 211.433V145.8C10.3432 143.024 11.4476 140.362 13.4109 138.399C15.3741 136.435 18.0359 135.331 20.8124 135.328H68.2624C68.3871 135.328 68.5066 135.278 68.5947 135.19C68.6829 135.102 68.7324 134.982 68.7324 134.858C68.7324 134.733 68.6829 134.614 68.5947 134.525C68.5066 134.437 68.3871 134.388 68.2624 134.388V134.388Z" fill="#FE7624"/>
<path d="M404.5 373.798H291.588C288.811 373.795 286.149 372.691 284.186 370.728C282.223 368.766 281.118 366.104 281.115 363.328C281.115 267.213 281.178 267.605 281.093 267.355L271.342 237.39L302.035 246.845C302.285 246.928 303.388 246.868 309.523 246.868C309.642 246.859 309.753 246.806 309.834 246.718C309.915 246.631 309.961 246.516 309.961 246.396C309.961 246.277 309.915 246.162 309.834 246.075C309.753 245.987 309.642 245.934 309.523 245.925H302.25L270.75 236.225C270.668 236.199 270.58 236.197 270.496 236.217C270.412 236.238 270.335 236.282 270.275 236.343C270.214 236.405 270.171 236.482 270.152 236.566C270.132 236.65 270.136 236.738 270.162 236.82L280.162 267.57V363.32C280.166 366.345 281.369 369.246 283.508 371.385C285.647 373.524 288.547 374.727 291.573 374.73H309.837V390.46C309.83 395.767 307.719 400.855 303.966 404.608C300.213 408.36 295.125 410.471 289.817 410.478H176.15C170.84 410.472 165.749 408.36 161.993 404.606C158.238 400.851 156.125 395.76 156.117 390.45V263.2H164C195.138 272.773 195.34 272.893 195.59 272.893C195.664 272.892 195.737 272.875 195.804 272.841C195.87 272.807 195.927 272.758 195.97 272.698C196.014 272.637 196.043 272.568 196.054 272.494C196.066 272.421 196.06 272.346 196.037 272.275L186.037 241.543V206.46C186.037 206.336 185.988 206.216 185.9 206.128C185.812 206.04 185.692 205.99 185.567 205.99C185.443 205.99 185.323 206.04 185.235 206.128C185.147 206.216 185.097 206.336 185.097 206.46C185.097 243.67 184.987 241.82 185.222 242.073L194.852 271.7L164.145 262.263C163.895 262.208 162.485 262.263 129.195 262.263C129.076 262.271 128.965 262.325 128.883 262.412C128.802 262.5 128.757 262.615 128.757 262.734C128.757 262.853 128.802 262.968 128.883 263.056C128.965 263.143 129.076 263.197 129.195 263.205H142.362V394.038C142.371 401.806 145.461 409.254 150.954 414.746C156.447 420.239 163.894 423.329 171.662 423.338H293.412C301.18 423.33 308.628 420.242 314.122 414.75C319.616 409.259 322.708 401.813 322.72 394.045V374.75H404.5C404.626 374.75 404.747 374.7 404.837 374.611C404.926 374.521 404.976 374.4 404.976 374.274C404.976 374.148 404.926 374.027 404.837 373.937C404.747 373.848 404.626 373.798 404.5 373.798V373.798Z" fill="#FE7624"/>
<path d="M73.4999 414.235C57.9966 392.965 50.8864 366.723 53.5316 340.536C56.1768 314.35 68.3913 290.059 87.8349 272.32C87.9276 272.24 88.0481 272.199 88.1705 272.206C88.293 272.213 88.4078 272.268 88.4904 272.359C88.5729 272.449 88.6167 272.569 88.6125 272.691C88.6082 272.814 88.5561 272.93 88.4674 273.015C77.882 282.688 69.3688 294.408 63.4428 307.466C57.5168 320.524 54.3011 334.648 53.9903 348.984C53.6796 363.32 56.2801 377.571 61.6347 390.873C66.9892 404.175 74.9865 416.253 85.1428 426.376C95.2991 436.499 107.403 444.457 120.723 449.768C134.043 455.078 148.302 457.632 162.637 457.274C176.972 456.916 191.086 453.654 204.124 447.685C217.162 441.716 228.854 433.165 238.492 422.547C238.576 422.455 238.693 422.4 238.818 422.393C238.943 422.387 239.065 422.431 239.157 422.515C239.25 422.599 239.305 422.716 239.311 422.841C239.317 422.965 239.274 423.087 239.19 423.18C228.509 434.946 215.342 444.185 200.643 450.225C185.945 456.265 170.086 458.954 154.218 458.098C138.351 457.241 122.873 452.86 108.911 445.273C94.9483 437.685 82.8516 427.083 73.4999 414.235V414.235Z" fill="#FE7624"/>
<path d="M205.84 444.482L161.84 443.355C161.382 443.311 160.92 443.377 160.493 443.548C160.066 443.719 159.686 443.989 159.384 444.336C159.083 444.683 158.869 445.098 158.76 445.545C158.651 445.991 158.65 446.458 158.757 446.905C161.362 457.655 160.607 454.577 160.787 455.105C160.816 455.176 160.861 455.239 160.92 455.288C160.978 455.337 161.048 455.372 161.122 455.387C161.622 455.455 165.192 455.502 166.317 455.502C171.455 455.502 177.335 455.205 185.037 454.562C177.761 457.448 170.207 459.578 162.495 460.92C162.04 461.252 162.022 460.67 166.355 473.302C166.466 473.743 166.679 474.151 166.977 474.493C167.275 474.836 167.65 475.103 168.071 475.274C168.492 475.444 168.947 475.513 169.399 475.474C169.852 475.436 170.289 475.291 170.675 475.052C183.988 468.457 196.261 459.944 207.102 449.785C207.604 449.46 207.992 448.988 208.214 448.433C208.436 447.879 208.481 447.269 208.342 446.688C208.204 446.107 207.889 445.583 207.441 445.188C206.993 444.793 206.434 444.547 205.84 444.482V444.482ZM206.54 449.055C195.73 459.182 183.494 467.671 170.222 474.25C169.959 474.419 169.659 474.521 169.347 474.55C169.036 474.578 168.722 474.532 168.433 474.413C168.143 474.295 167.886 474.109 167.683 473.871C167.48 473.633 167.338 473.35 167.267 473.045L163.372 461.692C171.981 460.079 180.401 457.585 188.5 454.25L188.557 454.22C188.648 454.165 188.717 454.081 188.754 453.982C188.791 453.883 188.793 453.774 188.76 453.673C188.728 453.573 188.662 453.486 188.574 453.427C188.486 453.369 188.38 453.341 188.275 453.35C179.417 454.303 170.507 454.682 161.6 454.482L159.677 446.697C159.605 446.394 159.606 446.078 159.681 445.775C159.757 445.472 159.903 445.192 160.109 444.957C160.314 444.723 160.573 444.541 160.863 444.427C161.154 444.313 161.467 444.27 161.777 444.302L205.762 445.43C206.169 445.477 206.55 445.651 206.853 445.926C207.155 446.201 207.364 446.564 207.45 446.964C207.536 447.364 207.494 447.781 207.331 448.156C207.168 448.531 206.891 448.845 206.54 449.055V449.055Z" fill="#FE7624"/>
<path d="M81.97 153.437C80.8463 152.918 79.7647 152.312 78.735 151.625C78.7123 153.71 79.4929 155.724 80.915 157.25C81.375 160.25 85.165 160.382 87.5125 160.75C81.845 169.105 71.295 169.635 57.46 164.907C61.7817 162.414 65.4806 158.972 68.2775 154.84C73.0075 147.955 74.1775 141.037 73.4125 140.28C66.135 133.067 72.56 126.345 75.93 131.53C77.54 134.002 78.5075 133.977 79.0325 132.56C81.235 125.142 91.6225 114.905 95.265 130.52L96.095 135.52C98.625 158.44 87.66 156.085 81.97 153.437Z" fill="white"/>
<path d="M225.712 30.3024C225.065 30.3024 224.431 30.1103 223.893 29.7503C223.354 29.3904 222.934 28.8787 222.687 28.2802C222.439 27.6816 222.374 27.023 222.501 26.3876C222.627 25.7522 222.939 25.1687 223.398 24.7108C223.856 24.2529 224.44 23.9412 225.075 23.8151C225.711 23.689 226.369 23.7542 226.968 24.0025C227.566 24.2507 228.077 24.6709 228.437 25.2098C228.796 25.7487 228.988 26.3821 228.987 27.0299C228.987 27.8981 228.641 28.7305 228.027 29.3441C227.413 29.9577 226.581 30.3024 225.712 30.3024V30.3024ZM225.712 24.6974C225.251 24.6979 224.801 24.8352 224.417 25.0918C224.034 25.3484 223.735 25.7128 223.559 26.1391C223.383 26.5653 223.337 27.0342 223.428 27.4865C223.518 27.9388 223.74 28.3542 224.067 28.6802C224.393 29.0061 224.808 29.228 225.261 29.3178C225.713 29.4076 226.182 29.3613 226.608 29.1847C227.034 29.008 227.398 28.7091 227.655 28.3256C227.911 27.942 228.047 27.4912 228.047 27.0299C228.047 26.4111 227.801 25.8178 227.363 25.3805C226.925 24.9431 226.331 24.6974 225.712 24.6974V24.6974Z" fill="#FE7624"/>
<path d="M237.902 30.3024C237.255 30.3029 236.621 30.1112 236.082 29.7515C235.543 29.3919 235.123 28.8804 234.875 28.2819C234.627 27.6834 234.562 27.0247 234.688 26.3891C234.814 25.7536 235.126 25.1698 235.584 24.7117C236.042 24.2535 236.626 23.9415 237.262 23.8152C237.897 23.689 238.556 23.754 239.154 24.0022C239.753 24.2504 240.264 24.6706 240.624 25.2095C240.984 25.7485 241.175 26.382 241.175 27.0299C241.174 27.8975 240.828 28.7291 240.215 29.3425C239.602 29.9559 238.77 30.3011 237.902 30.3024V30.3024ZM237.902 24.6974C237.441 24.6974 236.99 24.8342 236.607 25.0905C236.223 25.3468 235.924 25.7111 235.748 26.1373C235.571 26.5635 235.525 27.0325 235.615 27.485C235.705 27.9375 235.927 28.3531 236.253 28.6793C236.579 29.0055 236.995 29.2276 237.447 29.3176C237.9 29.4076 238.369 29.3614 238.795 29.1849C239.221 29.0084 239.586 28.7094 239.842 28.3258C240.098 27.9422 240.235 27.4913 240.235 27.0299C240.234 26.4115 239.988 25.8186 239.551 25.3813C239.114 24.9441 238.521 24.6981 237.902 24.6974V24.6974Z" fill="#FE7624"/>
<path d="M250.09 30.3024C249.442 30.3029 248.809 30.1112 248.27 29.7515C247.731 29.3919 247.31 28.8804 247.062 28.2819C246.814 27.6834 246.749 27.0247 246.875 26.3891C247.002 25.7536 247.314 25.1698 247.772 24.7117C248.23 24.2535 248.814 23.9415 249.449 23.8152C250.085 23.689 250.743 23.754 251.342 24.0022C251.94 24.2504 252.452 24.6706 252.812 25.2095C253.171 25.7485 253.363 26.382 253.362 27.0299C253.362 27.8977 253.017 28.7296 252.403 29.3432C251.79 29.9568 250.958 30.3018 250.09 30.3024V30.3024ZM250.09 24.6974C249.629 24.6974 249.178 24.8342 248.794 25.0905C248.411 25.3468 248.112 25.7111 247.935 26.1373C247.759 26.5635 247.712 27.0325 247.802 27.485C247.892 27.9375 248.114 28.3531 248.441 28.6793C248.767 29.0055 249.182 29.2276 249.635 29.3176C250.087 29.4076 250.556 29.3614 250.983 29.1849C251.409 29.0084 251.773 28.7094 252.029 28.3258C252.286 27.9422 252.422 27.4913 252.422 27.0299C252.422 26.4115 252.176 25.8186 251.739 25.3813C251.301 24.9441 250.708 24.6981 250.09 24.6974V24.6974Z" fill="#FE7624"/>
<path d="M405.938 155.63C405.938 154.171 405.358 152.772 404.327 151.741C403.295 150.709 401.896 150.13 400.438 150.13H381.888C380.429 150.13 379.03 150.709 377.999 151.741C376.967 152.772 376.388 154.171 376.388 155.63V174.182C376.388 175.641 376.967 177.04 377.999 178.071C379.03 179.103 380.429 179.682 381.888 179.682H400.445C401.904 179.682 403.303 179.103 404.334 178.071C405.366 177.04 405.945 175.641 405.945 174.182L405.938 155.63ZM400.438 178.735H381.88C380.673 178.734 379.516 178.253 378.663 177.4C377.809 176.547 377.329 175.389 377.328 174.182V155.625C377.329 154.417 377.809 153.259 378.663 152.405C379.517 151.552 380.675 151.071 381.883 151.07H400.438C401.644 151.071 402.802 151.551 403.655 152.404C404.509 153.257 404.99 154.413 404.993 155.62V174.182C404.991 175.389 404.512 176.546 403.659 177.399C402.806 178.253 401.649 178.733 400.443 178.735H400.438Z" fill="#FE7624"/>
<path d="M391.165 159.397C390.077 159.397 389.014 159.72 388.109 160.324C387.205 160.929 386.5 161.788 386.084 162.793C385.667 163.798 385.559 164.904 385.771 165.97C385.983 167.037 386.507 168.017 387.276 168.787C388.045 169.556 389.025 170.08 390.092 170.292C391.159 170.504 392.265 170.395 393.27 169.979C394.275 169.563 395.134 168.858 395.738 167.953C396.342 167.049 396.665 165.985 396.665 164.897C396.665 163.439 396.086 162.04 395.054 161.008C394.023 159.977 392.624 159.397 391.165 159.397V159.397ZM391.165 169.467C390.262 169.467 389.38 169.2 388.629 168.698C387.878 168.197 387.293 167.484 386.948 166.649C386.602 165.815 386.512 164.897 386.688 164.012C386.864 163.126 387.299 162.313 387.937 161.675C388.576 161.036 389.389 160.601 390.274 160.425C391.16 160.249 392.078 160.339 392.912 160.685C393.746 161.03 394.459 161.616 394.961 162.366C395.462 163.117 395.73 164 395.73 164.902C395.729 166.113 395.247 167.273 394.392 168.129C393.536 168.985 392.375 169.466 391.165 169.467V169.467Z" fill="#FE7624"/>
<path d="M398.1 156.403C398.117 156.85 398.307 157.273 398.629 157.583C398.951 157.893 399.381 158.067 399.829 158.067C400.276 158.067 400.706 157.893 401.029 157.583C401.351 157.273 401.541 156.85 401.558 156.403C401.541 155.955 401.351 155.532 401.029 155.222C400.706 154.912 400.276 154.738 399.829 154.738C399.381 154.738 398.951 154.912 398.629 155.222C398.307 155.532 398.117 155.955 398.1 156.403V156.403Z" fill="#FE7624"/>
<path d="M346.452 403.163C345.548 403.163 344.663 402.894 343.911 402.392C343.158 401.889 342.572 401.174 342.226 400.338C341.879 399.503 341.789 398.583 341.965 397.695C342.142 396.808 342.578 395.992 343.217 395.353C343.857 394.713 344.672 394.277 345.56 394.101C346.447 393.924 347.367 394.015 348.203 394.361C349.039 394.707 349.754 395.294 350.256 396.046C350.759 396.798 351.027 397.683 351.027 398.588C351.026 399.801 350.544 400.964 349.686 401.821C348.828 402.679 347.665 403.161 346.452 403.163V403.163ZM346.452 394.955C345.733 394.955 345.03 395.168 344.432 395.567C343.834 395.966 343.368 396.534 343.092 397.198C342.817 397.862 342.745 398.593 342.885 399.299C343.025 400.004 343.371 400.652 343.88 401.161C344.388 401.669 345.036 402.015 345.741 402.155C346.447 402.296 347.178 402.223 347.842 401.948C348.506 401.673 349.074 401.206 349.473 400.608C349.873 400.01 350.085 399.307 350.085 398.588C350.083 397.625 349.7 396.702 349.019 396.021C348.338 395.341 347.415 394.957 346.452 394.955V394.955Z" fill="#FE7624"/>
<path d="M126.167 98.3226H116.395V88.5451C116.399 88.481 116.391 88.4166 116.37 88.356C116.348 88.2954 116.315 88.2398 116.271 88.1927C116.227 88.1456 116.174 88.1081 116.115 88.0824C116.056 88.0567 115.993 88.0435 115.929 88.0435C115.864 88.0435 115.801 88.0567 115.742 88.0824C115.683 88.1081 115.63 88.1456 115.586 88.1927C115.542 88.2398 115.509 88.2954 115.487 88.356C115.466 88.4166 115.458 88.481 115.462 88.5451V98.3126H105.685C105.561 98.3126 105.442 98.3619 105.354 98.4495C105.267 98.5372 105.217 98.6561 105.217 98.7801C105.217 98.9041 105.267 99.023 105.354 99.1107C105.442 99.1984 105.561 99.2476 105.685 99.2476H115.457V109.025C115.466 109.143 115.519 109.253 115.605 109.333C115.692 109.414 115.805 109.458 115.924 109.458C116.042 109.458 116.155 109.414 116.242 109.333C116.328 109.253 116.381 109.143 116.39 109.025V99.2501H126.167C126.28 99.2357 126.384 99.1807 126.459 99.0953C126.534 99.01 126.576 98.9001 126.576 98.7864C126.576 98.6726 126.534 98.5628 126.459 98.4774C126.384 98.392 126.28 98.337 126.167 98.3226V98.3226Z" fill="#FE7624"/>
<path d="M237.902 0.5C215.085 0.5 201.21 23.57 213.35 41.155L208.9 52.925C208.868 53.0105 208.861 53.1036 208.881 53.1927C208.901 53.2818 208.947 53.3632 209.012 53.4268C209.078 53.4905 209.161 53.5337 209.25 53.5511C209.34 53.5685 209.433 53.5595 209.517 53.525L221.25 48.735C240.217 60.9175 266.93 48.7 266.932 27.03C266.935 12.4 253.91 0.5 237.902 0.5ZM221.557 47.815C221.511 47.7752 221.455 47.7493 221.395 47.7405C221.334 47.7316 221.273 47.7401 221.217 47.765C220.64 47.91 218.657 48.78 210.16 52.2475C213.34 43.8375 214.125 41.8625 214.3 41.295C214.377 41.045 214.43 41.065 214.26 40.815C202.352 23.9 215.682 1.4375 237.902 1.4375C253.402 1.4375 265.992 12.92 265.992 27.03C266 47.9775 239.937 59.835 221.557 47.815Z" fill="#FE7624"/>
<path d="M469.47 339.125C461.8 325.924 452.344 313.845 441.368 303.233C448.075 289.955 449.215 278.823 444.753 270.135C438.64 258.233 423.705 254.79 420.71 254.21C425.6 236.945 415.923 228.268 404.67 229.46C397.42 230.21 389.935 234.79 384.963 243.835C380.213 252.485 378.963 258.793 381.288 262.585C382.393 263.996 383.843 265.1 385.498 265.789C387.153 266.479 388.957 266.731 390.738 266.523C390.488 280.1 380.54 283.998 367.325 281.388C356.907 278.868 346.96 274.692 337.865 269.02C354.55 229.868 357.088 224.06 357.403 223.08C357.475 222.858 357.433 222.885 357.403 222.83C356.913 222.199 356.386 221.598 355.825 221.03C358.153 216.138 369.445 195.58 368.745 193.543C367.975 191.358 360.665 197.625 358.895 199.16C361.783 186.633 360.645 175.243 359.243 172.395C358.743 171.37 358.065 171.595 357.823 172.303C356.515 176.12 354.923 185.26 353.823 190.978C353.043 186.55 349.6 183.04 346.488 185.403C346.138 185.025 345.698 184.743 345.209 184.581C344.72 184.419 344.199 184.384 343.693 184.478C343.141 184.629 342.628 184.894 342.187 185.258C341.746 185.621 341.387 186.073 341.133 186.585C340.551 186.29 339.883 186.21 339.248 186.36C335.97 187.195 335.07 191.478 334.248 195.018C333.166 199.992 331.259 204.75 328.608 209.095L326.328 208.948C326.213 208.948 326.145 208.83 325.883 209.29C325.048 210.765 321.58 218.718 302.82 260.018C299.929 266.494 299.454 273.792 301.481 280.589C303.507 287.386 307.902 293.232 313.868 297.068C327.582 306.205 342.823 312.81 358.868 316.568C358.328 326.863 360.395 339.633 367.353 355.138L359.575 374.1C359.552 374.157 359.54 374.218 359.54 374.28C359.54 374.342 359.552 374.403 359.576 374.46C359.6 374.517 359.635 374.569 359.679 374.612C359.722 374.656 359.774 374.69 359.831 374.714C359.889 374.737 359.95 374.749 360.011 374.749C360.073 374.749 360.134 374.737 360.191 374.713C360.248 374.689 360.3 374.654 360.344 374.61C360.387 374.567 360.422 374.515 360.445 374.458L368.145 355.685C382.579 359.489 397.749 359.514 412.195 355.758C414.843 357.064 417.236 358.833 419.26 360.983C403.01 375.008 399.31 378.14 398.463 378.958C398.155 379.253 398.213 379.245 398.213 379.343C398.493 382.25 399.221 385.097 400.37 387.783C396.447 391.607 391.932 394.774 387 397.16C381.168 400.018 380.713 401.305 380.968 402.108C381.578 404.018 386.915 402.82 388.685 402.46C391.76 401.838 396.908 400.798 397.775 401.905C397.948 402.128 397.913 402.5 397.675 403.015C393.335 408.8 394.808 408.015 388.385 414.205C386.97 415.565 382.885 419.638 378.593 423.343C375.825 425.738 374.728 427.373 375.235 428.343C375.395 428.585 375.631 428.766 375.907 428.857C376.182 428.948 376.48 428.943 376.753 428.843C379.831 427.788 382.761 426.344 385.473 424.545C384.668 426.683 382.345 433.013 384.185 433.935C385.935 434.795 389.253 429.935 390.353 428.29C402.988 409.54 408.998 407.393 413.698 403.29C416.186 404.86 418.872 406.093 421.685 406.958C422.05 406.99 420.733 407.958 463.953 371.548C468.569 367.676 471.659 362.29 472.67 356.35C473.681 350.411 472.546 344.305 469.47 339.125V339.125ZM391.178 271.06C393.678 268.14 394.843 266.81 395.355 266.175C396.015 265.335 395.668 265.035 394.835 265.175C382.138 267.425 376.375 261.383 385.785 244.268C387.462 240.961 389.798 238.032 392.65 235.663C398.708 231.82 402.473 241.34 401.805 247.785C401.76 248.114 401.806 248.45 401.939 248.755C402.071 249.06 402.284 249.323 402.555 249.515C403.235 249.853 404.23 249.515 405.79 248.455C410.365 245.333 413.018 253.133 404.315 256.705C402.103 257.61 400.34 267.108 402.53 277.875C403.455 282.405 405.665 283.208 409.645 284.463L402.943 299.733C402.55 300.617 401.881 301.35 401.036 301.822C400.192 302.293 399.216 302.478 398.258 302.348L380.113 299.81C379.451 299.717 378.819 299.477 378.264 299.106C377.708 298.736 377.243 298.245 376.903 297.671C376.563 297.096 376.357 296.452 376.3 295.787C376.242 295.122 376.336 294.452 376.573 293.828L380.965 282.27C383.579 281.609 385.941 280.193 387.756 278.2C389.572 276.207 390.762 273.724 391.178 271.06V271.06ZM348.088 185.64C350.143 185.098 353.805 188.465 352.965 195.158C352.748 196.878 352.158 197.708 351.673 197.77C351.188 197.833 350.333 197.155 349.488 195.083C349.855 191.895 349.018 188.685 347.14 186.083C347.428 185.881 347.748 185.731 348.088 185.64ZM343.938 185.375C346.108 184.798 348.978 189.625 348.56 194.913C348.518 195.005 348.509 195.109 348.533 195.208C348.498 195.548 348.453 195.893 348.395 196.243C348.075 198.15 347.255 199.218 346.645 199.243C346.093 199.255 345.298 198.45 344.668 196.11C344.917 194.497 344.799 192.849 344.322 191.287C343.846 189.726 343.024 188.292 341.918 187.093C342.11 186.677 342.39 186.308 342.739 186.012C343.087 185.715 343.497 185.498 343.938 185.375V185.375ZM335.173 195.218C335.865 192.218 336.745 187.968 339.483 187.26C341.345 186.783 342.918 189.493 343.44 191.575C343.83 193.133 344.28 198.09 342.67 198.075C342.416 198.039 342.174 197.948 341.958 197.81C341.742 197.671 341.559 197.488 341.42 197.273C340.442 195.75 339.884 193.996 339.803 192.188C339.786 192.067 339.724 191.958 339.629 191.882C339.534 191.807 339.413 191.771 339.292 191.783C339.171 191.794 339.059 191.852 338.98 191.945C338.901 192.037 338.861 192.156 338.868 192.278C338.939 193.058 339.064 193.832 339.243 194.595C338.471 194.473 337.683 194.507 336.925 194.695C336.812 194.733 336.717 194.812 336.66 194.917C336.603 195.022 336.588 195.145 336.618 195.26C336.649 195.376 336.722 195.475 336.823 195.539C336.924 195.603 337.045 195.625 337.163 195.603C337.95 195.386 338.785 195.412 339.558 195.678C340.91 199.62 343.475 199.648 344.308 197.928C345.835 201.538 348.473 200.52 349.263 196.76C350.975 199.805 353.395 199.238 353.903 195.288C355.125 189.908 357.005 178.088 358.593 173.038C360.471 181.96 360.181 191.203 357.748 199.99C355.833 200.328 347.83 202.103 348.44 208.163C348.456 208.284 348.518 208.394 348.614 208.47C348.709 208.546 348.831 208.582 348.953 208.57C349.074 208.558 349.186 208.499 349.265 208.406C349.344 208.312 349.383 208.192 349.375 208.07C348.79 202.235 358.175 200.87 358.27 200.858C358.363 200.846 358.45 200.805 358.52 200.743C361.257 198.005 364.418 195.725 367.88 193.993C367.653 196.668 357.253 215.993 355.153 220.3C348.345 213.534 339.254 209.557 329.665 209.15C332.251 204.839 334.112 200.132 335.173 195.218V195.218ZM412.693 354.933C411.653 347.483 415.02 336.433 418.173 328.198L435.7 346.793L419.993 360.358C417.907 358.123 415.434 356.285 412.693 354.933V354.933ZM376.515 427.933C375.915 428.093 375.983 427.743 376.288 427.2C377.088 426.003 378.075 424.943 379.213 424.06C383.783 420.118 391.148 412.843 391.815 412.148C389.69 415.665 387.77 419.303 386.065 423.043C383.105 425.075 379.895 426.716 376.515 427.928V427.933ZM389.573 427.763C386.308 432.615 384.823 433.188 384.608 433.09C383.968 432.625 384.89 428.4 386.858 423.59C387.85 421.166 389.034 418.825 390.4 416.59C393.531 410.33 397.391 404.463 401.9 399.11C401.978 399.013 402.015 398.889 402.001 398.765C401.988 398.641 401.926 398.527 401.829 398.449C401.732 398.371 401.608 398.334 401.484 398.348C401.36 398.361 401.246 398.423 401.168 398.52C400.25 399.66 399.433 400.698 398.698 401.65C397.633 399.12 390.01 401.363 385.845 402.04C383.398 402.438 381.948 402.108 381.845 401.818C381.845 401.818 381.608 400.835 387.395 398C392.308 395.611 396.819 392.471 400.765 388.693C403.433 394.397 407.615 399.26 412.855 402.753C408.278 406.678 402.135 409.113 389.573 427.75V427.763ZM463.348 370.835L421.653 405.97C415.804 404.128 410.594 400.674 406.62 396.004C402.646 391.334 400.07 385.638 399.188 379.57L436.688 347.188C436.736 347.146 436.775 347.095 436.803 347.038C436.831 346.981 436.846 346.919 436.849 346.856C436.853 346.792 436.843 346.729 436.82 346.67C436.798 346.61 436.764 346.556 436.72 346.51L414.518 322.953C414.432 322.862 414.314 322.809 414.189 322.805C414.065 322.801 413.943 322.847 413.853 322.933C413.762 323.018 413.709 323.136 413.705 323.261C413.701 323.386 413.747 323.507 413.833 323.598L417.455 327.443C414.243 335.773 410.725 347.13 411.738 354.905C397.457 358.573 382.473 358.511 368.223 354.725C354.753 324.725 359.815 305.138 366.443 293.993C366.501 293.886 366.516 293.761 366.484 293.643C366.451 293.526 366.375 293.425 366.27 293.363C366.166 293.301 366.041 293.282 365.923 293.31C365.804 293.338 365.701 293.41 365.635 293.513C361.69 300.247 359.397 307.821 358.945 315.613C343.057 311.87 327.965 305.318 314.38 296.268C308.606 292.554 304.352 286.895 302.389 280.316C300.427 273.737 300.886 266.673 303.683 260.403L326.62 209.903L331.188 210.2C340.963 211.009 350.029 215.631 356.425 223.068C341.398 258.33 337.653 266.708 336.943 268.8C336.668 269.615 336.875 269.513 337.025 269.618C348.513 276.338 366.848 285.408 379.86 282.558L375.7 293.5C375.413 294.257 375.299 295.068 375.368 295.875C375.437 296.681 375.687 297.462 376.099 298.158C376.512 298.855 377.075 299.449 377.749 299.898C378.423 300.347 379.189 300.638 379.99 300.75C399.778 303.518 398.34 303.34 398.873 303.34C399.918 303.338 400.941 303.033 401.817 302.462C402.694 301.891 403.386 301.078 403.81 300.123L410.56 284.758C434.56 292.365 455.81 317.855 468.665 339.613C471.625 344.601 472.716 350.48 471.742 356.198C470.768 361.917 467.792 367.103 463.348 370.83V370.835Z" fill="#18216D"/>
<path d="M222.322 166.235C222.17 166.192 222.027 166.118 221.904 166.018C221.781 165.918 221.68 165.794 221.607 165.653C221.357 165.065 221.73 163.973 222.727 162.343C229.075 153.318 229.462 152.093 228.83 151.453C228.197 150.813 226.93 151.593 222.695 154.478C217.325 158.138 209.195 163.668 201.392 165.515C200.978 165.569 200.566 165.645 200.16 165.743C198.418 164.591 196.571 163.605 194.645 162.798C194.569 162.765 194.487 162.754 194.405 162.763C194.323 162.773 194.246 162.804 194.18 162.853C183.065 171.13 166.585 182.273 151.06 188.473C141.071 181.026 130.527 174.356 119.52 168.52C105.297 161.58 86.1649 160.453 83.7974 159.628C83.2036 159.491 82.6609 159.189 82.2327 158.756C81.8046 158.322 81.5088 157.776 81.3799 157.18C81.3084 156.078 81.579 154.98 82.1549 154.038C85.5924 155.565 89.6874 156.405 92.7399 154.213C96.3624 151.613 97.6499 145.303 96.5574 135.433C95.4499 128.753 96.2474 132.985 92.5174 114.623C92.4198 113.768 92.0557 112.966 91.4768 112.33C90.8978 111.695 90.1334 111.257 89.2919 111.08C88.4504 110.903 87.5744 110.995 86.7884 111.344C86.0023 111.693 85.3459 112.28 84.9124 113.023C84.5762 112.328 84.051 111.742 83.397 111.332C82.7431 110.922 81.9868 110.704 81.2149 110.704C80.4429 110.704 79.6866 110.922 79.0327 111.332C78.3787 111.742 77.8535 112.328 77.5174 113.023C77.1108 112.326 76.5072 111.766 75.7826 111.411C75.0581 111.057 74.2449 110.925 73.4455 111.032C72.6461 111.139 71.8962 111.48 71.2902 112.012C70.6842 112.544 70.2491 113.244 70.0399 114.023C69.4147 113.335 68.5749 112.88 67.6577 112.732C66.7405 112.583 65.8001 112.75 64.99 113.205C64.1798 113.66 63.5479 114.376 63.1973 115.237C62.8468 116.097 62.7983 117.051 63.0599 117.943C64.9315 123.534 66.5169 129.217 67.8099 134.97C69.7624 144.398 69.7874 151.19 67.8774 154.613C63.4949 161.152 56.8347 165.824 49.1949 167.72C23.2099 174.25 9.13735 207.095 1.90735 233.5C0.140149 240.017 0.933591 246.963 4.12492 252.913C7.31625 258.864 12.6635 263.367 19.0699 265.5C37.5415 271.698 56.8542 275.027 76.3349 275.37C76.4167 275.371 76.4972 275.35 76.5689 275.311C76.6407 275.271 76.7012 275.214 76.7449 275.145C77.0399 274.668 77.3248 274.183 77.5973 273.695C82.799 272.764 88.1288 272.813 93.3124 273.84C96.5074 281.34 108.677 282.483 109.39 276.963C112.785 277.145 114.807 276.113 114.39 272.753C114.995 272.605 115.567 272.346 116.077 271.988C116.506 271.595 116.829 271.101 117.017 270.551C117.205 270.001 117.252 269.413 117.152 268.84C116.742 266.264 115.53 263.882 113.687 262.035C117.344 262.949 121.096 263.429 124.865 263.465C127.656 263.736 130.466 263.204 132.965 261.93C133.42 261.463 133.337 260.745 132.265 260.508C123.8 258.238 115.464 255.513 107.292 252.345C109.125 251.805 111.77 250.718 111.685 248.99C111.652 248.298 109.85 247.74 107.135 247.32L105.435 235C108.115 224.899 109.771 214.553 110.377 204.12C118.71 210.592 127.99 215.74 137.892 219.383C141.856 220.917 146.086 221.648 150.335 221.533C154.584 221.417 158.768 220.458 162.642 218.71C179.955 210.815 190.557 204.995 211.392 189.388C211.449 189.344 211.496 189.288 211.528 189.224C211.561 189.16 211.578 189.09 211.58 189.018C211.605 187.103 211.476 185.189 211.195 183.295C212.77 182.061 214.463 180.986 216.25 180.085C219.685 179.495 237.042 185.543 240.92 185.543C241.67 185.543 242.045 185.358 242.202 185C242.452 184.435 242.302 183.685 238.232 180.988C240.182 181.198 246.085 181.965 248.702 181.965C250.265 181.965 250.867 181.715 250.995 181.215C251.185 180.443 250.557 179.538 241.355 175.915C245.406 175.801 249.449 175.481 253.467 174.958C253.545 174.946 253.618 174.915 253.68 174.868C253.742 174.82 253.792 174.759 253.825 174.688C255.875 170.138 227.272 166.75 222.322 166.235ZM228.072 152.235C226.276 155.585 224.229 158.795 221.947 161.835C220.17 164.743 220.577 165.653 220.772 166.085C215.689 165.539 210.58 165.265 205.467 165.265C216 161.38 225.53 153.085 228.067 152.225L228.072 152.235ZM68.6949 155.063C73.3574 148.25 74.7999 141 73.7499 139.943C67.2499 133.5 72.2074 127.57 75.2299 131.34C75.8399 132.09 76.8549 134.065 78.1199 133.985C78.9249 133.935 79.3299 133.145 79.5849 132.38C80.9074 128.288 85.1674 122.68 89.0624 122.803C91.6499 122.88 93.6374 125.575 94.8124 130.598L95.6348 135.56C96.6798 145.043 95.5249 151.06 92.1999 153.45C89.2474 155.568 85.1198 154.38 82.1798 153.013C81.1438 152.545 80.1486 151.991 79.2049 151.358C78.6199 150.98 78.2799 151.253 78.2724 151.608C78.2459 153.775 79.0367 155.872 80.4874 157.483C80.9074 159.613 82.9874 160.833 86.6799 161.108C81.4924 168.06 72.2899 169.263 58.5949 164.775C62.6217 162.303 66.0669 158.99 68.6949 155.063V155.063ZM132.092 261.428C130.702 262.318 123.412 263.71 112.342 260.713C111.204 259.709 109.956 258.836 108.622 258.113C108.568 258.083 108.508 258.065 108.447 258.059C108.386 258.052 108.323 258.058 108.264 258.076C108.205 258.093 108.15 258.122 108.102 258.161C108.054 258.2 108.014 258.248 107.985 258.303C107.955 258.357 107.937 258.417 107.931 258.478C107.924 258.54 107.93 258.602 107.948 258.661C107.965 258.72 107.995 258.775 108.034 258.823C108.073 258.871 108.121 258.911 108.175 258.94C112.067 261.058 115.88 265.035 116.205 268.913C116.287 269.237 116.3 269.574 116.241 269.903C116.182 270.232 116.054 270.545 115.864 270.82C115.675 271.095 115.429 271.327 115.143 271.5C114.857 271.672 114.537 271.781 114.205 271.82C112.803 267.677 109.814 264.26 105.895 262.32C105.786 262.269 105.662 262.261 105.548 262.298C105.434 262.336 105.338 262.415 105.281 262.521C105.224 262.627 105.209 262.75 105.24 262.866C105.271 262.982 105.345 263.082 105.447 263.145C107.461 264.081 109.232 265.467 110.625 267.196C112.019 268.925 112.996 270.951 113.482 273.118C113.562 273.536 113.538 273.967 113.412 274.373C113.286 274.779 113.062 275.148 112.76 275.448C111.73 275.97 110.567 276.17 109.422 276.023C109.172 272.12 105.31 268.49 101.795 266.43C101.742 266.399 101.683 266.378 101.621 266.37C101.56 266.361 101.498 266.365 101.438 266.38C101.378 266.396 101.322 266.423 101.272 266.46C101.223 266.498 101.181 266.544 101.15 266.598C101.118 266.651 101.098 266.71 101.089 266.771C101.081 266.833 101.084 266.895 101.1 266.955C101.116 267.015 101.143 267.071 101.18 267.12C101.217 267.17 101.264 267.211 101.317 267.243C106.22 270.115 108.227 273.593 108.467 275.89C108.55 276.34 108.525 276.802 108.395 277.24C108.264 277.678 108.032 278.079 107.717 278.41C105.267 280.66 97.2299 279.41 94.4674 274.083C96.9683 274.606 99.4074 275.391 101.745 276.423C101.84 276.503 101.963 276.543 102.087 276.532C102.212 276.522 102.327 276.463 102.407 276.368C102.488 276.273 102.527 276.149 102.517 276.025C102.507 275.901 102.447 275.786 102.352 275.705C99.5859 274.497 96.7 273.583 93.7423 272.978C88.6116 271.96 83.3424 271.846 78.1724 272.64C82.1814 264.689 83.4379 255.632 81.7449 246.89C89.2374 247.557 96.6002 249.267 103.62 251.97C112.927 255.65 122.433 258.807 132.092 261.428V261.428ZM105.75 251.765C100.411 249.541 94.8458 247.905 89.1524 246.888C92.6324 247.018 109.25 247.835 110.735 249.11C110.657 250.213 107.865 251.298 105.75 251.765ZM81.5599 245.83C81.4899 245.443 81.4149 245.048 81.3349 244.655C81.3148 244.554 81.2621 244.462 81.1849 244.394C81.1077 244.326 81.0101 244.285 80.9074 244.278C70.3632 243.416 59.8909 241.829 49.5649 239.528C50.7186 238.208 52.0676 237.074 53.5649 236.163C70.2999 238.913 88.2374 239.585 104.565 235.543L106.162 247.158C97.9905 246.294 89.7797 245.851 81.5624 245.83H81.5599ZM37.9199 236.718C40.4528 229.699 43.5982 222.916 47.3199 216.448L52.9149 235.465C51.2518 236.497 49.7703 237.796 48.5299 239.31C43.1049 238.108 39.2499 237.078 37.9199 236.718ZM162.25 217.848C158.489 219.545 154.428 220.478 150.303 220.59C146.178 220.702 142.073 219.993 138.225 218.503C130.548 215.649 123.231 211.906 116.425 207.35L109.995 186.35C109.867 185.943 109.182 185.728 109.085 186.76C108.78 190.075 112.277 204.713 104.585 234.59C90.1974 238.193 73.1299 238.42 53.8349 235.273L50.7524 224.773C51.2949 214.458 51.5749 210.925 51.5449 209.68C51.5224 208.7 50.8749 208.863 50.6924 209.153C44.9747 217.794 40.329 227.098 36.8574 236.86C36.8337 236.921 36.823 236.986 36.826 237.051C36.829 237.117 36.8456 237.181 36.8748 237.239C36.904 237.297 36.9452 237.349 36.9955 237.391C37.0459 237.432 37.1044 237.463 37.1674 237.48C51.3498 241.326 65.846 243.905 80.4849 245.185C82.8469 255.128 81.2711 265.598 76.0873 274.405C56.8172 273.79 37.7272 270.488 19.3699 264.595C13.1953 262.538 8.04119 258.197 4.96333 252.462C1.88547 246.728 1.11683 240.033 2.81486 233.75C8.67986 212.335 22.5349 175.4 49.4174 168.625C52.2426 167.919 54.9608 166.839 57.4999 165.413C68.5924 169.163 80.9999 170.838 87.7324 161.248C97.6549 162.56 109.817 164.835 119.105 169.365C130.132 175.224 140.696 181.915 150.705 189.383C150.77 189.431 150.846 189.462 150.926 189.473C151.006 189.484 151.087 189.474 151.162 189.445C166.752 183.265 183.305 172.108 194.522 163.77C205.272 168.42 210.695 176.83 210.645 188.77C190 204.223 179.46 210 162.25 217.848ZM241.262 184.598C239.397 185.02 226.637 180.865 220.35 179.598C225.619 179.658 230.879 180.045 236.1 180.755C238.023 181.741 239.771 183.038 241.272 184.593L241.262 184.598ZM219.5 178.683C225.868 176.947 232.435 176.05 239.035 176.015C247.197 179.158 249.432 180.433 249.957 180.945C247.34 181.65 228.58 178.228 219.5 178.683ZM215.447 179.368C213.903 180.221 212.426 181.19 211.027 182.265C209.963 175.919 206.439 170.249 201.22 166.485C211.385 164.813 249.47 169.86 252.84 173.89C252.888 173.946 252.928 174.009 252.96 174.075C242.79 175.553 224.762 174.365 215.45 179.368H215.447Z" fill="#18216D"/>
<path d="M71.3949 253.815C71.9164 253.815 72.4261 253.659 72.8595 253.369C73.2929 253.079 73.6306 252.667 73.8298 252.185C74.0291 251.703 74.081 251.173 73.9789 250.661C73.8768 250.15 73.6255 249.68 73.2565 249.312C72.8875 248.943 72.4176 248.692 71.906 248.591C71.3945 248.489 70.8643 248.541 70.3825 248.741C69.9007 248.941 69.4889 249.279 69.1992 249.712C68.9095 250.146 68.7549 250.656 68.7549 251.178C68.7546 251.524 68.8226 251.868 68.9552 252.188C69.0878 252.508 69.2823 252.799 69.5275 253.044C69.7728 253.289 70.064 253.483 70.3844 253.616C70.7048 253.748 71.0482 253.816 71.3949 253.815V253.815Z" fill="#18216D"/>
<path d="M32.8548 257.728C32.333 257.728 31.823 257.882 31.3892 258.172C30.9554 258.462 30.6174 258.874 30.4178 259.356C30.2183 259.838 30.1662 260.369 30.2681 260.881C30.3701 261.392 30.6216 261.862 30.9907 262.231C31.3598 262.6 31.83 262.851 32.3418 262.952C32.8536 263.054 33.384 263.001 33.8658 262.801C34.3477 262.601 34.7595 262.263 35.049 261.829C35.3385 261.394 35.4928 260.884 35.4923 260.363C35.4923 260.016 35.4241 259.673 35.2915 259.354C35.1589 259.034 34.9646 258.743 34.7196 258.498C34.4747 258.254 34.1839 258.06 33.8639 257.927C33.5439 257.795 33.201 257.727 32.8548 257.728V257.728Z" fill="#18216D"/>
<path d="M14.0799 222.195C13.5582 222.195 13.0483 222.35 12.6146 222.639C12.1808 222.929 11.8428 223.341 11.6432 223.823C11.4435 224.305 11.3913 224.835 11.4931 225.347C11.5948 225.858 11.846 226.328 12.2149 226.697C12.5837 227.066 13.0537 227.317 13.5653 227.419C14.077 227.521 14.6073 227.469 15.0892 227.269C15.5712 227.069 15.9831 226.731 16.2729 226.298C16.5627 225.864 16.7174 225.354 16.7174 224.832C16.7174 224.133 16.4395 223.462 15.9449 222.967C15.4502 222.473 14.7794 222.195 14.0799 222.195V222.195Z" fill="#18216D"/>
<path d="M46.075 199.672C45.5533 199.672 45.0434 199.827 44.6097 200.117C44.1759 200.407 43.8379 200.819 43.6383 201.301C43.4386 201.782 43.3864 202.313 43.4882 202.824C43.5899 203.336 43.8411 203.806 44.21 204.175C44.5789 204.544 45.0488 204.795 45.5604 204.897C46.0721 204.998 46.6024 204.946 47.0843 204.747C47.5663 204.547 47.9782 204.209 48.268 203.775C48.5578 203.341 48.7125 202.832 48.7125 202.31C48.7125 201.61 48.4346 200.94 47.94 200.445C47.4454 199.95 46.7745 199.672 46.075 199.672V199.672Z" fill="#18216D"/>
<path d="M58.3474 168.85C57.8263 168.85 57.3169 169.004 56.8834 169.294C56.45 169.583 56.1119 169.994 55.9119 170.475C55.7119 170.957 55.659 171.486 55.7597 171.998C55.8605 172.509 56.1104 172.979 56.4781 173.348C56.8457 173.718 57.3145 173.97 57.8253 174.073C58.3361 174.176 58.866 174.126 59.3481 173.928C59.8303 173.73 60.2431 173.394 60.5344 172.962C60.8257 172.53 60.9825 172.021 60.9849 171.5C60.9866 171.153 60.9196 170.808 60.7878 170.487C60.656 170.166 60.4619 169.873 60.2169 169.627C59.9718 169.381 59.6805 169.185 59.3597 169.052C59.0388 168.919 58.6948 168.85 58.3474 168.85V168.85Z" fill="#18216D"/>
<path d="M84.9148 195.5C84.3932 195.5 83.8833 195.655 83.4495 195.945C83.0158 196.234 82.6777 196.646 82.4781 197.128C82.2785 197.61 82.2263 198.14 82.328 198.652C82.4298 199.164 82.681 199.634 83.0498 200.002C83.4187 200.371 83.8887 200.623 84.4003 200.724C84.9119 200.826 85.4422 200.774 85.9242 200.574C86.4061 200.375 86.818 200.037 87.1078 199.603C87.3977 199.169 87.5523 198.659 87.5523 198.138C87.5523 197.791 87.4841 197.448 87.3516 197.128C87.219 196.808 87.0248 196.517 86.7798 196.273C86.5349 196.028 86.2442 195.833 85.9242 195.701C85.6042 195.568 85.2612 195.5 84.9148 195.5Z" fill="#18216D"/>
<path d="M63.3551 219.56C62.8337 219.562 62.3244 219.718 61.8916 220.008C61.4588 220.299 61.1219 220.712 60.9235 221.194C60.7251 221.676 60.6741 222.206 60.7769 222.718C60.8797 223.229 61.1317 223.698 61.5011 224.066C61.8705 224.434 62.3407 224.684 62.8523 224.785C63.3639 224.886 63.8939 224.833 64.3754 224.633C64.8568 224.433 65.2681 224.094 65.5573 223.66C65.8465 223.226 66.0006 222.717 66.0001 222.195C66.0001 221.848 65.9316 221.505 65.7986 221.184C65.6655 220.864 65.4705 220.573 65.2248 220.328C64.979 220.083 64.6874 219.89 64.3665 219.758C64.0457 219.626 63.702 219.559 63.3551 219.56Z" fill="#18216D"/>
<path d="M123.75 199.672C123.228 199.672 122.718 199.827 122.284 200.117C121.851 200.407 121.513 200.819 121.313 201.301C121.113 201.782 121.061 202.313 121.163 202.824C121.265 203.336 121.516 203.806 121.885 204.175C122.254 204.544 122.724 204.795 123.235 204.897C123.747 204.998 124.277 204.946 124.759 204.747C125.241 204.547 125.653 204.209 125.943 203.775C126.233 203.341 126.387 202.832 126.387 202.31C126.387 201.61 126.109 200.94 125.615 200.445C125.12 199.95 124.449 199.672 123.75 199.672V199.672Z" fill="#18216D"/>
<path d="M149.315 192.357C148.794 192.357 148.284 192.512 147.85 192.802C147.417 193.091 147.079 193.503 146.879 193.984C146.679 194.466 146.627 194.996 146.728 195.508C146.829 196.019 147.08 196.489 147.448 196.858C147.817 197.227 148.286 197.479 148.798 197.581C149.309 197.683 149.839 197.632 150.321 197.433C150.803 197.234 151.215 196.897 151.506 196.464C151.796 196.031 151.952 195.521 151.953 195C151.953 194.653 151.886 194.31 151.753 193.989C151.621 193.668 151.427 193.377 151.182 193.132C150.937 192.886 150.646 192.692 150.326 192.559C150.005 192.426 149.662 192.357 149.315 192.357V192.357Z" fill="#18216D"/>
<path d="M181.5 198.127C180.978 198.127 180.468 198.282 180.034 198.572C179.601 198.862 179.263 199.274 179.063 199.756C178.863 200.238 178.811 200.768 178.913 201.279C179.015 201.791 179.266 202.261 179.635 202.63C180.004 202.999 180.474 203.25 180.985 203.352C181.497 203.454 182.027 203.401 182.509 203.202C182.991 203.002 183.403 202.664 183.693 202.23C183.983 201.797 184.137 201.287 184.137 200.765C184.137 200.419 184.069 200.076 183.937 199.756C183.804 199.436 183.61 199.145 183.365 198.9C183.12 198.655 182.829 198.461 182.509 198.328C182.189 198.196 181.846 198.127 181.5 198.127Z" fill="#18216D"/>
<path d="M195.585 169.522C195.064 169.523 194.554 169.678 194.121 169.968C193.687 170.258 193.349 170.67 193.15 171.152C192.951 171.634 192.899 172.165 193.001 172.676C193.103 173.187 193.355 173.657 193.724 174.026C194.093 174.394 194.563 174.645 195.074 174.747C195.586 174.849 196.116 174.796 196.598 174.596C197.079 174.397 197.491 174.059 197.781 173.625C198.071 173.191 198.225 172.682 198.225 172.16C198.225 171.813 198.157 171.47 198.024 171.15C197.891 170.83 197.697 170.539 197.452 170.294C197.207 170.049 196.916 169.855 196.595 169.723C196.275 169.59 195.932 169.522 195.585 169.522Z" fill="#18216D"/>
<path d="M97.9202 224.833C97.3986 224.833 96.8889 224.988 96.4555 225.278C96.0221 225.568 95.6845 225.98 95.4852 226.462C95.286 226.944 95.2341 227.475 95.3361 227.986C95.4382 228.498 95.6896 228.967 96.0585 229.336C96.4275 229.704 96.8975 229.955 97.409 230.057C97.9206 230.159 98.4508 230.106 98.9326 229.907C99.4144 229.707 99.8261 229.369 100.116 228.935C100.406 228.501 100.56 227.992 100.56 227.47C100.56 227.123 100.492 226.78 100.359 226.46C100.226 226.14 100.032 225.849 99.7868 225.604C99.5416 225.359 99.2505 225.165 98.9303 225.033C98.61 224.9 98.2667 224.832 97.9202 224.833Z" fill="#18216D"/>
<path d="M103.195 167.87C102.673 167.871 102.163 168.026 101.73 168.316C101.296 168.607 100.958 169.019 100.759 169.502C100.56 169.984 100.509 170.515 100.612 171.026C100.714 171.538 100.966 172.008 101.336 172.376C101.706 172.744 102.176 172.995 102.689 173.096C103.201 173.196 103.731 173.143 104.213 172.942C104.694 172.741 105.106 172.402 105.394 171.967C105.683 171.533 105.837 171.022 105.835 170.5C105.834 170.154 105.766 169.812 105.633 169.492C105.5 169.173 105.305 168.883 105.06 168.638C104.815 168.394 104.524 168.201 104.204 168.069C103.884 167.937 103.541 167.869 103.195 167.87V167.87Z" fill="#18216D"/>
</svg>
