<svg viewBox="0 0 1347 639" fill="none" xmlns="http://www.w3.org/2000/svg">
<path d="M82.1489 167.618C95.1299 152.878 114.997 149.582 133.666 157.963C152.352 166.352 166.738 184.934 171.504 208.711L171.976 211.122L172.14 211.944C176.087 231.544 179.887 240.195 187.94 248.863L188.22 249.163C192.484 253.595 210.973 270.106 213.651 272.615C213.95 272.881 214.193 273.205 214.365 273.566C214.537 273.928 214.635 274.32 214.653 274.72C214.671 275.12 214.609 275.519 214.471 275.895C214.332 276.271 214.12 276.615 213.846 276.907C213.572 277.199 213.243 277.434 212.877 277.597C212.512 277.759 212.117 277.848 211.717 277.856C211.316 277.864 210.919 277.792 210.547 277.643C210.175 277.495 209.836 277.274 209.551 276.993L206.968 274.636C200.933 269.167 187.152 256.764 183.684 253.097L183.547 252.951C174.641 243.365 170.408 233.727 166.26 213.133C166.093 212.302 165.924 211.447 165.755 210.568C157.046 165.078 110.706 144.275 86.6549 171.587C76.2669 183.374 75.2199 201.16 81.6199 222.41C86.2329 237.726 94.9129 254.32 101.243 262.258L101.525 262.608C104.644 266.443 105.989 273.247 107.525 289.095L109.002 305.151L109.316 308.404C109.767 312.981 110.216 317.07 110.71 321.11C112.058 332.767 114.132 344.328 116.92 355.726C117.359 357.471 117.815 359.193 118.29 360.893C118.396 361.273 118.426 361.669 118.379 362.06C118.332 362.452 118.208 362.83 118.015 363.173C117.821 363.516 117.562 363.818 117.252 364.061C116.942 364.304 116.587 364.484 116.208 364.59C115.828 364.696 115.432 364.727 115.041 364.679C114.649 364.632 114.271 364.508 113.928 364.315C113.585 364.122 113.283 363.863 113.04 363.553C112.797 363.243 112.617 362.888 112.511 362.508C112.022 360.758 111.552 358.985 111.101 357.189C108.252 345.55 106.132 333.745 104.754 321.841L104.525 319.948C104.112 316.466 103.73 312.906 103.345 308.997L102.945 304.807C102.606 301.163 101.868 292.985 101.72 291.407L101.556 289.685C100.172 275.445 98.8949 268.875 96.8769 266.394C90.0259 257.994 80.7859 240.428 75.8769 224.139C68.9409 201.111 70.1059 181.292 82.1489 167.618Z" fill="#FE7624"/>
<path d="M34.5959 313.15C51.7629 311.617 70.0409 319.359 83.4629 334.865L84.7629 336.383C92.2679 345.124 97.5429 350.083 102.686 353.275C106.942 355.919 111.215 357.5 118.372 359.229L119.401 359.471C122.001 360.057 134.867 362.9 140.141 364.192L142.326 364.734C152.178 367.207 162.338 370.166 173.95 374.055C191.163 379.792 207.339 391.292 222.7 407.859C222.971 408.147 223.182 408.486 223.322 408.857C223.461 409.227 223.526 409.621 223.512 410.017C223.499 410.412 223.407 410.801 223.243 411.161C223.078 411.521 222.844 411.845 222.554 412.114C222.264 412.383 221.923 412.592 221.552 412.729C221.18 412.866 220.786 412.928 220.39 412.911C219.995 412.895 219.607 412.8 219.248 412.633C218.889 412.466 218.567 412.23 218.3 411.938C203.574 396.054 188.2 385.129 172.047 379.743C160.156 375.761 149.83 372.772 139.787 370.282L137.092 369.628C130.737 368.123 118.567 365.441 117.605 365.213C109.496 363.288 104.542 361.49 99.5179 358.369C93.5439 354.659 87.6629 349.059 79.3149 339.243C54.3399 309.859 12.6789 313.581 6.73894 342.905C4.13194 355.572 10.6919 368.859 24.0629 381.685C33.7059 390.929 46.8079 399.459 54.6029 402.65L54.9949 402.808C59.0079 404.38 62.9009 408.933 70.6759 420.029L79.6859 432.977L81.3059 435.277C85.6719 441.422 89.6359 446.717 93.7059 451.759C107.12 468.378 120.593 480.77 135.443 488.87C144.543 493.852 153.031 495.895 161.488 495.619C167.834 495.412 173.437 494.085 181.404 491.298L187.299 489.19L188.699 488.702C190.032 488.245 191.173 487.877 192.272 487.555C195.411 486.522 198.704 486.037 202.007 486.121C209.087 486.508 214.579 490.832 219.179 499.948C219.365 500.3 219.479 500.687 219.514 501.084C219.549 501.481 219.505 501.881 219.383 502.261C219.262 502.641 219.066 502.992 218.807 503.296C218.549 503.599 218.232 503.847 217.876 504.027C217.52 504.206 217.132 504.313 216.734 504.341C216.336 504.368 215.937 504.316 215.56 504.188C215.182 504.06 214.834 503.857 214.536 503.593C214.237 503.328 213.995 503.007 213.822 502.648C210.184 495.438 206.522 492.476 201.94 492.126L201.399 492.095C198.358 491.949 196.811 492.256 189.04 494.965L184.14 496.693C175.248 499.844 168.973 501.375 161.685 501.613C152.151 501.924 142.597 499.625 132.566 494.132C116.927 485.602 102.904 472.705 89.0379 455.525C85.1269 450.68 81.3239 445.625 77.1949 439.842L75.3469 437.234L65.7769 423.487L64.8319 422.145C58.6689 413.437 55.1909 409.412 52.9139 408.435L52.8009 408.389C44.3189 405.039 30.2749 395.949 19.9139 386.014C5.20494 371.915 -2.24906 356.812 0.862941 341.705C4.16294 325.388 17.3739 314.687 34.5959 313.15Z" fill="#FE7624"/>
<path d="M243.071 122.907C254.16 101.534 272.176 90.8791 297.879 93.3131C308.705 94.3251 317.368 97.3541 323.993 102.295C324.631 102.771 325.054 103.48 325.168 104.268C325.283 105.055 325.08 105.856 324.604 106.494C324.129 107.131 323.419 107.554 322.632 107.669C321.844 107.784 321.044 107.581 320.406 107.105C314.72 102.865 307.106 100.205 297.317 99.2871C274.133 97.0921 258.396 106.398 248.4 125.672C240.31 141.272 236.317 162.525 235.239 189.052L235.197 190.116C234.897 198.047 234.882 204.339 235.045 214.446L235.17 222.062C235.311 232.094 235.205 236.311 234.631 241.48L234.6 241.753C233.923 249.112 231.636 256.233 227.9 262.609C224.551 268.059 220.459 273.015 215.741 277.334L215.147 277.893C205.347 287.043 205.547 297.346 213.307 313.793L214.087 315.418C215.047 317.387 216.087 319.418 217.716 322.527L220.065 327.027C222.337 331.188 224.341 335.49 226.065 339.906C228.48 346.258 229.425 351.706 228.665 356.75L228.517 357.65C227.935 360.998 226.278 369.364 226.102 370.32C222.995 386.358 222.358 402.776 224.212 419.006C226.824 443.441 234.595 470.784 248.829 501.96C248.994 502.319 249.086 502.706 249.101 503.1C249.115 503.495 249.052 503.888 248.915 504.258C248.777 504.627 248.568 504.966 248.299 505.255C248.031 505.544 247.708 505.777 247.349 505.941C246.99 506.105 246.602 506.196 246.208 506.21C245.814 506.224 245.42 506.16 245.051 506.022C244.681 505.883 244.343 505.674 244.055 505.404C243.766 505.135 243.534 504.811 243.371 504.452C228.877 472.706 220.93 444.741 218.246 419.644C216.365 403.181 216.963 386.53 220.019 370.244L220.289 368.78C220.733 366.471 222.433 357.862 222.734 355.862C223.297 352.121 222.59 347.814 220.663 342.588L220.283 341.588C218.537 337.247 216.534 333.014 214.283 328.912L211.519 323.621C210.072 320.838 209.119 318.938 208.135 316.888C204.022 308.272 201.871 301.482 201.684 294.949C201.456 287 204.305 279.98 210.671 273.867L211.05 273.508C215.59 269.436 219.525 264.735 222.734 259.548C225.923 254.112 227.907 248.054 228.553 241.784L228.694 240.562C229.209 235.807 229.304 231.697 229.168 222.055L229.01 212.239C228.892 203.83 228.918 198.004 229.156 191.116L229.2 189.889C230.246 162.056 234.379 139.672 243.071 122.907Z" fill="#FE7624"/>
<path d="M322.2 506.2H273.2C272.788 506.2 272.38 506.116 272.002 505.951C271.624 505.786 271.284 505.546 271.003 505.244C270.722 504.942 270.506 504.585 270.369 504.196C270.232 503.807 270.177 503.395 270.207 502.983C272.571 470.463 276.852 443.204 283.294 419.646C285.378 412.026 287.711 404.746 290.229 398.016C292.667 391.451 295.468 385.026 298.617 378.771C301.541 372.968 304.852 367.368 308.528 362.008C311.981 356.983 315.828 352.24 320.034 347.825C320.309 347.532 320.641 347.299 321.009 347.139C321.378 346.979 321.775 346.895 322.177 346.894C322.574 346.889 322.968 346.964 323.336 347.113C323.704 347.262 324.038 347.483 324.319 347.763C324.601 348.043 324.824 348.376 324.975 348.743C325.126 349.11 325.203 349.503 325.2 349.9V503.2C325.2 503.996 324.884 504.759 324.321 505.322C323.759 505.884 322.996 506.2 322.2 506.2ZM319.2 357.8L319.072 357.956C306.431 373.394 296.34 394.686 289.081 421.229C282.956 443.629 278.822 469.421 276.443 500.078L276.434 500.2H319.2V357.8Z" fill="#FE7624"/>
<path d="M321.3 500.2C322.081 500.199 322.831 500.503 323.392 501.047C323.952 501.591 324.279 502.332 324.302 503.112C324.324 503.893 324.042 504.651 323.515 505.227C322.987 505.803 322.256 506.15 321.476 506.195L321.3 506.2H200.3C198.656 506.165 197.024 506.496 195.524 507.169C194.024 507.843 192.693 508.842 191.627 510.095C190.561 511.347 189.788 512.821 189.363 514.41C188.938 515.999 188.872 517.662 189.17 519.279L215.028 634.845C215.2 635.607 215.068 636.407 214.66 637.073C214.252 637.739 213.6 638.22 212.842 638.413C212.085 638.606 211.283 638.496 210.605 638.106C209.928 637.716 209.43 637.078 209.216 636.326L209.173 636.155L183.376 520.872C180.961 510.365 189.042 500.4 199.968 500.2H200.3H321.3Z" fill="#2E186A"/>
<path d="M1085.5 637.4H322.2C321.404 637.4 320.641 637.084 320.079 636.521C319.516 635.959 319.2 635.196 319.2 634.4V3C319.2 2.20435 319.516 1.44129 320.079 0.87868C320.641 0.31607 321.404 0 322.2 0L1085.5 0C1086.3 0 1087.06 0.31607 1087.62 0.87868C1088.18 1.44129 1088.5 2.20435 1088.5 3V634.4C1088.5 635.196 1088.18 635.959 1087.62 636.521C1087.06 637.084 1086.3 637.4 1085.5 637.4V637.4ZM325.2 6V631.4H1082.5V6H325.2Z" fill="#2E186A"/>
<path d="M799 544.6H756.2C755.404 544.6 754.641 544.284 754.079 543.721C753.516 543.159 753.2 542.395 753.2 541.6V474.8C753.2 474.004 753.516 473.241 754.079 472.678C754.641 472.116 755.404 471.8 756.2 471.8H799C799.796 471.8 800.559 472.116 801.121 472.678C801.684 473.241 802 474.004 802 474.8V541.6C802 542.395 801.684 543.159 801.121 543.721C800.559 544.284 799.796 544.6 799 544.6ZM759.2 477.8V538.6H796V477.8H759.2Z" fill="#2E186A"/>
<path d="M866.2 544.6H823.4C822.604 544.6 821.841 544.284 821.279 543.721C820.716 543.158 820.4 542.395 820.4 541.6V446.7C820.4 445.904 820.716 445.141 821.279 444.578C821.841 444.016 822.604 443.7 823.4 443.7H866.2C866.996 443.7 867.759 444.016 868.321 444.578C868.884 445.141 869.2 445.904 869.2 446.7V541.6C869.2 542.395 868.884 543.158 868.321 543.721C867.759 544.284 866.996 544.6 866.2 544.6ZM826.4 449.7V538.6H863.2V449.7H826.4Z" fill="#2E186A"/>
<path d="M933.3 544.6H890.5C889.704 544.6 888.941 544.284 888.379 543.721C887.816 543.159 887.5 542.395 887.5 541.6V402.3C887.5 401.504 887.816 400.741 888.379 400.178C888.941 399.616 889.704 399.3 890.5 399.3H933.3C934.096 399.3 934.859 399.616 935.421 400.178C935.984 400.741 936.3 401.504 936.3 402.3V541.6C936.3 542.395 935.984 543.159 935.421 543.721C934.859 544.284 934.096 544.6 933.3 544.6ZM893.5 405.3V538.6H930.3V405.3H893.5Z" fill="#2E186A"/>
<path d="M1000.4 363.9H957.6V541.6H1000.4V363.9Z" fill="#FE7624"/>
<path d="M1014.9 272.7C1014.57 272.423 1014.19 272.218 1013.77 272.097C1013.36 271.977 1012.93 271.943 1012.5 272L984.5 276.5C983.721 276.626 983.022 277.053 982.555 277.689C982.087 278.324 981.888 279.119 982 279.9C982.144 280.67 982.575 281.357 983.207 281.821C983.838 282.285 984.622 282.492 985.4 282.4L1003.7 279.5L949.1 342.9L926.8 321.5C926.519 321.207 926.174 320.983 925.793 320.844C925.412 320.705 925.003 320.656 924.6 320.7C924.199 320.707 923.804 320.8 923.442 320.973C923.08 321.145 922.758 321.393 922.5 321.7L849.3 406.7L828.1 390.8C827.531 390.368 826.827 390.151 826.113 390.187C825.4 390.224 824.722 390.512 824.2 391L758.5 454C757.934 454.546 757.606 455.293 757.587 456.079C757.568 456.866 757.861 457.627 758.4 458.2C758.689 458.487 759.033 458.715 759.41 458.869C759.788 459.023 760.192 459.102 760.6 459.1C761.37 459.076 762.109 458.794 762.7 458.3L826.6 397L848.1 413.1C848.712 413.552 849.47 413.761 850.227 413.687C850.984 413.613 851.687 413.262 852.2 412.7L925.1 328L947.4 349.4C947.681 349.693 948.025 349.917 948.407 350.056C948.788 350.194 949.196 350.244 949.6 350.2C950.001 350.192 950.396 350.099 950.758 349.927C951.12 349.754 951.441 349.507 951.7 349.2L1010 281.5L1009.6 305.2C1009.59 305.596 1009.67 305.989 1009.81 306.356C1009.96 306.724 1010.18 307.057 1010.46 307.337C1010.74 307.617 1011.08 307.838 1011.44 307.986C1011.81 308.135 1012.2 308.207 1012.6 308.2V308.2C1013.39 308.197 1014.16 307.881 1014.72 307.319C1015.28 306.756 1015.6 305.995 1015.6 305.2L1016.1 274.9C1015.97 274.05 1015.54 273.273 1014.9 272.7V272.7Z" fill="#FE7624"/>
<path d="M583.2 469.5C583.981 469.499 584.731 469.803 585.292 470.347C585.852 470.891 586.179 471.631 586.202 472.412C586.224 473.193 585.942 473.951 585.414 474.527C584.887 475.103 584.156 475.45 583.376 475.495L583.2 475.5H399.2C398.419 475.501 397.669 475.197 397.108 474.653C396.548 474.109 396.221 473.369 396.198 472.588C396.175 471.807 396.458 471.049 396.985 470.473C397.513 469.897 398.244 469.55 399.024 469.505L399.2 469.5H583.2Z" fill="#2E186A"/>
<path d="M534.7 497.5C535.481 497.499 536.231 497.803 536.792 498.347C537.352 498.891 537.679 499.631 537.702 500.412C537.724 501.193 537.442 501.951 536.914 502.527C536.387 503.103 535.656 503.45 534.876 503.495L534.7 503.5H399.2C398.419 503.501 397.669 503.197 397.108 502.653C396.548 502.109 396.221 501.369 396.198 500.588C396.175 499.807 396.458 499.049 396.985 498.473C397.513 497.897 398.244 497.55 399.024 497.505L399.2 497.5H534.7Z" fill="#2E186A"/>
<path d="M491.2 528.9C491.981 528.899 492.731 529.203 493.292 529.747C493.852 530.29 494.179 531.031 494.202 531.812C494.224 532.592 493.942 533.351 493.414 533.927C492.887 534.503 492.156 534.85 491.376 534.895L491.2 534.9H395.2C394.419 534.901 393.669 534.597 393.108 534.053C392.548 533.509 392.221 532.769 392.198 531.988C392.175 531.207 392.458 530.449 392.985 529.873C393.513 529.297 394.244 528.95 395.024 528.905L395.2 528.9H491.2Z" fill="#2E186A"/>
<path d="M683.8 469.5C684.581 469.499 685.331 469.803 685.892 470.347C686.452 470.891 686.779 471.631 686.802 472.412C686.824 473.193 686.542 473.951 686.014 474.527C685.487 475.103 684.756 475.45 683.976 475.495L683.8 475.5H604.4C603.619 475.501 602.869 475.197 602.308 474.653C601.748 474.109 601.421 473.369 601.398 472.588C601.375 471.807 601.658 471.049 602.185 470.473C602.713 469.897 603.444 469.55 604.224 469.505L604.4 469.5H683.8Z" fill="#2E186A"/>
<path d="M486.5 411.3L507.7 431.3V391L486.5 411.3Z" fill="#FE7624"/>
<path d="M456 432.3L477.8 411.4L456 390.9V432.3Z" fill="#FE7624"/>
<path d="M564.1 383.9H515.1L539.8 407.2L564.1 383.9Z" fill="#FE7624"/>
<path d="M482.1 415.5L457.3 439.4H507.5L482.1 415.5Z" fill="#FE7624"/>
<path d="M513.7 432.3L535.5 411.4L513.7 390.9V432.3Z" fill="#FE7624"/>
<path d="M395.2 388.1V435.2L420 411.4L395.2 388.1Z" fill="#FE7624"/>
<path d="M424.4 415.5L399.6 439.4H449.8L424.4 415.5Z" fill="#FE7624"/>
<path d="M448.6 383.9H399.6L424.4 407.2L448.6 383.9Z" fill="#FE7624"/>
<path d="M565.4 431.3V391L544.2 411.3L565.4 431.3Z" fill="#FE7624"/>
<path d="M428.8 411.3L450 431.3V391L428.8 411.3Z" fill="#FE7624"/>
<path d="M539.9 415.5L515.1 439.4H565.3L539.9 415.5Z" fill="#FE7624"/>
<path d="M506.3 383.9H457.3L482.1 407.2L506.3 383.9Z" fill="#FE7624"/>
<path d="M623.1 383.9H571.4V439.4H623.1V383.9Z" fill="#FE7624"/>
<path d="M683.8 383.9H629.1V439.4H683.8V383.9Z" fill="#FE7624"/>
<path d="M565.2 439.4C565.3 439.5 565.3 439.5 565.4 439.5V439.4H565.2Z" fill="#FE7624"/>
<path d="M972.7 214.5H941.7C940.904 214.5 940.141 214.184 939.579 213.621C939.016 213.059 938.7 212.296 938.7 211.5V180.5C938.7 179.704 939.016 178.941 939.579 178.379C940.141 177.816 940.904 177.5 941.7 177.5H972.7C973.496 177.5 974.259 177.816 974.821 178.379C975.384 178.941 975.7 179.704 975.7 180.5V211.5C975.7 212.296 975.384 213.059 974.821 213.621C974.259 214.184 973.496 214.5 972.7 214.5ZM944.7 183.5V208.5H969.7V183.5H944.7Z" fill="#2E186A"/>
<path d="M978.8 163H860.3C859.504 163 858.741 162.684 858.179 162.121C857.616 161.559 857.3 160.795 857.3 160V124.3C857.3 123.504 857.616 122.741 858.179 122.178C858.741 121.616 859.504 121.3 860.3 121.3H978.8C979.596 121.3 980.359 121.616 980.921 122.178C981.484 122.741 981.8 123.504 981.8 124.3V160C981.8 160.795 981.484 161.559 980.921 162.121C980.359 162.684 979.596 163 978.8 163ZM863.3 127.3V157H975.8V127.3H863.3Z" fill="#2E186A"/>
<path d="M920.6 208.5C921.381 208.499 922.131 208.803 922.692 209.347C923.252 209.891 923.579 210.631 923.602 211.412C923.624 212.193 923.342 212.951 922.814 213.527C922.287 214.103 921.556 214.45 920.776 214.495L920.6 214.5H860.3C859.519 214.501 858.769 214.197 858.208 213.653C857.648 213.109 857.321 212.369 857.298 211.588C857.275 210.807 857.558 210.049 858.085 209.473C858.613 208.897 859.344 208.55 860.124 208.505L860.3 208.5H920.6Z" fill="#2E186A"/>
<path d="M920.6 193.8C921.381 193.799 922.131 194.103 922.692 194.647C923.252 195.19 923.579 195.931 923.602 196.712C923.624 197.492 923.342 198.251 922.814 198.827C922.287 199.402 921.556 199.75 920.776 199.795L920.6 199.8H860.3C859.519 199.801 858.769 199.497 858.208 198.953C857.648 198.409 857.321 197.668 857.298 196.888C857.275 196.107 857.558 195.349 858.085 194.773C858.613 194.197 859.344 193.85 860.124 193.805L860.3 193.8H920.6Z" fill="#2E186A"/>
<path d="M920.6 179.2C921.381 179.199 922.131 179.503 922.692 180.046C923.252 180.59 923.579 181.331 923.602 182.112C923.624 182.892 923.342 183.651 922.814 184.227C922.287 184.802 921.556 185.15 920.776 185.195L920.6 185.2H860.3C859.519 185.2 858.769 184.897 858.208 184.353C857.648 183.809 857.321 183.068 857.298 182.288C857.275 181.507 857.558 180.748 858.085 180.173C858.613 179.597 859.344 179.25 860.124 179.205L860.3 179.2H920.6Z" fill="#2E186A"/>
<path d="M927.8 292.3C928.581 292.299 929.331 292.603 929.892 293.147C930.452 293.69 930.779 294.431 930.802 295.212C930.824 295.992 930.542 296.751 930.014 297.327C929.487 297.902 928.756 298.25 927.976 298.295L927.8 298.3H763.1C762.319 298.301 761.569 297.997 761.008 297.453C760.448 296.909 760.121 296.168 760.098 295.388C760.075 294.607 760.358 293.849 760.885 293.273C761.413 292.697 762.144 292.35 762.924 292.305L763.1 292.3H927.8Z" fill="#2E186A"/>
<path d="M860.3 306.4C861.081 306.399 861.831 306.703 862.392 307.247C862.952 307.79 863.279 308.531 863.302 309.312C863.324 310.092 863.042 310.851 862.514 311.427C861.987 312.003 861.256 312.35 860.476 312.395L860.3 312.4H763.1C762.319 312.401 761.569 312.097 761.008 311.553C760.448 311.009 760.121 310.269 760.098 309.488C760.075 308.707 760.358 307.949 760.885 307.373C761.413 306.797 762.144 306.45 762.924 306.405L763.1 306.4H860.3Z" fill="#2E186A"/>
<path d="M594.1 209.9L707.1 152.6C716.098 170.361 720.791 189.99 720.8 209.9C720.8 279.4 663.6 336.6 594.1 336.6C575.049 336.603 556.244 332.306 539.085 324.03C521.926 315.754 506.857 303.711 495 288.8L594.1 209.9Z" fill="#FE7624"/>
<path d="M795.9 110.2C796.681 110.199 797.431 110.503 797.992 111.047C798.552 111.591 798.879 112.332 798.902 113.112C798.925 113.893 798.642 114.651 798.115 115.227C797.587 115.803 796.856 116.15 796.076 116.195L795.9 116.2H691.2C690.419 116.201 689.669 115.897 689.108 115.353C688.548 114.81 688.221 114.069 688.198 113.288C688.176 112.508 688.458 111.749 688.985 111.173C689.513 110.598 690.244 110.25 691.024 110.205L691.2 110.2H795.9Z" fill="#2E186A"/>
<path d="M795.9 124.3C796.681 124.3 797.431 124.603 797.992 125.147C798.552 125.691 798.879 126.432 798.902 127.212C798.925 127.993 798.642 128.752 798.115 129.327C797.587 129.903 796.856 130.25 796.076 130.295L795.9 130.3H740.1C739.319 130.301 738.569 129.997 738.008 129.454C737.448 128.91 737.121 128.169 737.098 127.388C737.075 126.608 737.358 125.849 737.885 125.273C738.413 124.698 739.144 124.35 739.924 124.305L740.1 124.3H795.9Z" fill="#2E186A"/>
<path d="M795.9 138.5C796.681 138.499 797.431 138.803 797.992 139.347C798.552 139.891 798.879 140.631 798.902 141.412C798.925 142.193 798.642 142.951 798.115 143.527C797.587 144.103 796.856 144.45 796.076 144.495L795.9 144.5H758.8C758.019 144.501 757.269 144.197 756.708 143.653C756.148 143.109 755.821 142.369 755.798 141.588C755.775 140.807 756.058 140.049 756.585 139.473C757.113 138.897 757.844 138.55 758.624 138.505L758.8 138.5H795.9Z" fill="#2E186A"/>
<path d="M799 222.5C799.781 222.499 800.531 222.803 801.092 223.347C801.652 223.891 801.979 224.631 802.002 225.412C802.025 226.193 801.742 226.951 801.215 227.527C800.687 228.103 799.956 228.45 799.176 228.495L799 228.5H663.9C663.119 228.501 662.369 228.197 661.808 227.653C661.248 227.109 660.921 226.369 660.898 225.588C660.875 224.807 661.158 224.049 661.685 223.473C662.213 222.897 662.944 222.55 663.724 222.505L663.9 222.5H799Z" fill="#2E186A"/>
<path d="M799 233.6C799.781 233.599 800.531 233.903 801.092 234.447C801.652 234.991 801.979 235.731 802.002 236.512C802.025 237.293 801.742 238.051 801.215 238.627C800.687 239.203 799.956 239.55 799.176 239.595L799 239.6H773.7C772.919 239.601 772.169 239.297 771.608 238.753C771.048 238.21 770.721 237.469 770.698 236.688C770.676 235.908 770.958 235.149 771.485 234.573C772.013 233.997 772.744 233.65 773.524 233.605L773.7 233.6H799Z" fill="#2E186A"/>
<path d="M517.3 98.5C518.081 98.4992 518.831 98.803 519.392 99.3468C519.952 99.8905 520.279 100.631 520.302 101.412C520.325 102.193 520.042 102.951 519.515 103.527C518.987 104.103 518.256 104.45 517.476 104.495L517.3 104.5H436.8C436.019 104.501 435.269 104.197 434.708 103.653C434.148 103.109 433.821 102.369 433.798 101.588C433.775 100.807 434.058 100.049 434.585 99.473C435.113 98.8973 435.844 98.5501 436.624 98.505L436.8 98.5H517.3Z" fill="#2E186A"/>
<path d="M452.9 109.9C453.681 109.899 454.431 110.203 454.992 110.747C455.552 111.29 455.879 112.031 455.902 112.812C455.925 113.592 455.642 114.351 455.115 114.927C454.587 115.503 453.856 115.85 453.076 115.895L452.9 115.9H436.8C436.019 115.901 435.269 115.597 434.708 115.053C434.148 114.509 433.821 113.769 433.798 112.988C433.775 112.207 434.058 111.449 434.585 110.873C435.113 110.297 435.844 109.95 436.624 109.905L436.8 109.9H452.9Z" fill="#2E186A"/>
<path d="M475 294.2C474.548 294.201 474.102 294.1 473.695 293.904C473.288 293.708 472.93 293.421 472.65 293.067C455.375 271.388 445.853 244.551 445.6 216.832C445.596 216.438 445.669 216.047 445.816 215.682C445.963 215.316 446.18 214.983 446.456 214.701C446.732 214.42 447.06 214.195 447.422 214.041C447.785 213.886 448.174 213.804 448.568 213.8L570.468 212.5H570.504C571.128 212.495 571.737 212.688 572.245 213.049C572.753 213.411 573.134 213.924 573.334 214.515C573.549 215.102 573.571 215.742 573.396 216.343C573.222 216.943 572.86 217.472 572.364 217.852L476.864 293.552C476.335 293.974 475.677 294.203 475 294.2V294.2ZM561.769 218.592L451.67 219.767L451.686 220.211C452.593 244.248 460.828 267.434 475.286 286.658L475.519 286.965L561.769 218.592Z" fill="#FE7624"/>
<path d="M453.8 209.299C453.004 209.299 452.241 208.983 451.679 208.42C451.116 207.858 450.8 207.095 450.8 206.299V204.699C450.777 189.249 453.626 173.928 459.2 159.518C459.42 158.954 459.805 158.47 460.305 158.128C460.804 157.785 461.395 157.601 462 157.599C462.371 157.598 462.739 157.666 463.085 157.799L576.685 201.899C577.337 202.15 577.881 202.62 578.223 203.228C578.565 203.836 578.685 204.545 578.561 205.232C578.437 205.919 578.077 206.541 577.543 206.992C577.01 207.442 576.336 207.692 575.638 207.699L453.839 209.299H453.8ZM463.749 164.499L463.422 165.423C459.246 177.405 457.016 189.979 456.817 202.666L456.81 203.259L560.11 201.902L463.749 164.499Z" fill="#FE7624"/>
<path d="M598.685 196.114C598.156 196.108 597.637 195.964 597.181 195.696C596.725 195.428 596.347 195.045 596.085 194.585C595.819 194.136 595.678 193.623 595.678 193.101C595.678 192.579 595.819 192.066 596.085 191.617L656.185 85.917C656.38 85.5739 656.64 85.2726 656.951 85.0302C657.262 84.7879 657.618 84.6092 657.998 84.5046C658.379 84.3999 658.776 84.3712 659.167 84.4202C659.558 84.4692 659.936 84.5948 660.279 84.79C671.022 90.8757 680.796 98.5303 689.279 107.501C697.754 116.45 704.838 126.62 710.292 137.673C710.642 138.385 710.695 139.207 710.441 139.959C710.187 140.711 709.646 141.332 708.936 141.686L600.036 195.786C599.617 195.999 599.155 196.111 598.685 196.114ZM659.907 91.52L606.162 186.042L703.551 137.66L703.362 137.301C693.376 118.497 678.482 102.749 660.262 91.733L659.907 91.52Z" fill="#FE7624"/>
<path d="M644.8 90.2001C626.615 79.7914 606.053 74.2464 585.1 74.1001L583.1 74.1001C558.823 74.3306 535.169 81.8134 515.176 95.5875C495.183 109.361 479.764 128.798 470.9 151.4L584.3 195.9L644.8 90.2001Z" fill="#2E186A"/>
<path d="M471.3 234C472.081 233.999 472.831 234.303 473.392 234.847C473.952 235.391 474.279 236.131 474.302 236.912C474.325 237.693 474.042 238.451 473.515 239.027C472.987 239.603 472.256 239.95 471.476 239.995L471.3 240H390.8C390.019 240.001 389.269 239.697 388.708 239.153C388.148 238.609 387.821 237.869 387.798 237.088C387.775 236.307 388.058 235.549 388.585 234.973C389.113 234.397 389.844 234.05 390.624 234.005L390.8 234H471.3Z" fill="#2E186A"/>
<path d="M419.9 245.4C420.681 245.399 421.431 245.703 421.992 246.247C422.552 246.79 422.879 247.531 422.902 248.312C422.925 249.092 422.642 249.851 422.115 250.427C421.587 251.003 420.856 251.35 420.076 251.395L419.9 251.4H390.8C390.019 251.401 389.269 251.097 388.708 250.553C388.148 250.009 387.821 249.269 387.798 248.488C387.775 247.707 388.058 246.949 388.585 246.373C389.113 245.797 389.844 245.45 390.624 245.405L390.8 245.4H419.9Z" fill="#2E186A"/>
<path d="M1001.01 580.006C1001.8 579.965 1002.58 580.237 1003.17 580.763C1003.75 581.289 1004.11 582.026 1004.16 582.815C1004.21 583.604 1003.95 584.38 1003.43 584.975C1002.91 585.57 1002.18 585.936 1001.39 585.994C994.96 586.402 988.559 587.138 982.207 588.2L973.747 589.686L970.082 590.347C969.155 590.517 968.262 590.682 967.392 590.847L966.101 591.091C956.772 592.866 950.073 594.433 946.174 595.871C945.444 596.127 944.734 596.438 944.051 596.8C943.93 596.868 943.827 596.931 943.745 596.986L943.626 597.07C943.04 598.016 943.219 598.514 944.547 599.324L944.719 599.424C946.867 600.687 950.558 601.432 954.395 601.299C954.789 601.285 955.182 601.35 955.551 601.488C955.92 601.626 956.258 601.836 956.547 602.104C956.835 602.373 957.067 602.697 957.23 603.055C957.394 603.414 957.485 603.802 957.498 604.195C957.512 604.589 957.448 604.982 957.31 605.351C957.171 605.721 956.962 606.059 956.693 606.347C956.424 606.635 956.101 606.868 955.742 607.031C955.383 607.194 954.996 607.285 954.602 607.299C949.708 607.468 944.91 606.499 941.678 604.599C937.396 602.08 935.921 597.848 938.693 593.653C939.634 592.221 941.367 591.247 944.093 590.24L944.712 590.018C950.917 588.08 957.244 586.553 963.65 585.449L966.281 584.948C967.82 584.659 969.424 584.365 971.164 584.048L979.681 582.545C986.74 581.307 993.861 580.46 1001.01 580.006V580.006Z" fill="#2E186A"/>
<path d="M983.521 637.487C979.334 637.487 976.052 636.846 973.765 635.581C972.694 635.063 971.786 634.261 971.141 633.261C970.495 632.262 970.137 631.105 970.105 629.916L970.1 629.676C970.097 629.246 970.134 628.817 970.209 628.393L970.242 628.218L969.958 628.206C967.228 628.069 964.559 627.351 962.129 626.1C960.118 625.202 958.488 623.625 957.523 621.646L957.454 621.452C957.131 620.35 957.231 619.167 957.736 618.136L957.768 618.062L957.568 618.088C956.348 618.245 955.119 618.328 953.889 618.338C952.931 618.348 951.975 618.268 951.032 618.1L950.778 618.045C949.822 617.906 948.911 617.546 948.119 616.993C947.327 616.44 946.675 615.71 946.215 614.86C945.315 612.984 945.56 610.47 946.905 607.781C948.305 604.916 954.724 600.428 967.097 593.656L968.957 592.646C977.464 588.069 985.776 584.118 989.172 583.038L989.762 582.862C992.529 582.09 1001.43 580.545 1016.98 578.139L1020.3 577.628C1024.5 576.985 1029 576.305 1033.7 575.607L1045.65 573.846L1051.28 573.031C1051.99 572.928 1052.71 573.083 1053.32 573.467C1053.92 573.851 1054.37 574.439 1054.58 575.125L1054.62 575.296L1068.72 633.696C1068.83 634.123 1068.84 634.567 1068.75 634.998C1068.66 635.428 1068.48 635.834 1068.22 636.187C1067.96 636.54 1067.62 636.831 1067.24 637.04C1066.85 637.249 1066.42 637.37 1065.98 637.396L1065.81 637.401H986.309L985.967 637.421C985.12 637.464 984.3 637.487 983.521 637.487ZM1004.59 609.754C1004.92 609.753 1005.25 609.786 1005.58 609.854L1005.66 609.873C1006.31 610.021 1006.9 610.38 1007.32 610.895C1007.74 611.41 1007.98 612.051 1008 612.717C1008.02 613.382 1007.81 614.035 1007.42 614.572C1007.02 615.109 1006.46 615.5 1005.82 615.683L1004.95 615.937L1003.35 616.418C1002.55 616.661 1001.83 616.887 1001.12 617.109L1000.53 617.296C999.603 617.59 998.71 617.879 997.875 618.155L996.848 618.5L993.592 619.824L986.708 622.654C984.629 623.5 983.291 624.026 981.939 624.53L981.402 624.73C978.451 625.777 976.088 628.265 976.102 629.63C976.102 629.918 976.302 630.193 977.237 630.601C979.211 631.288 981.298 631.594 983.386 631.501C984.073 631.501 984.804 631.481 985.561 631.441L986.015 631.415L986.201 631.409H1061.99L1049.42 579.36L1042.47 580.375L1034.58 581.541C1031.01 582.074 1027.85 582.547 1024.94 582.989L1015.6 584.426C1002.14 586.526 993.776 587.979 991.42 588.626L991.22 588.683C987.278 589.813 977.51 594.747 969.578 599.138C962.132 603.261 953.134 608.696 952.278 610.438C952.042 610.888 951.854 611.362 951.718 611.852L951.684 612.006L951.678 612.082L951.833 612.129L952.048 612.181C952.651 612.297 953.264 612.35 953.878 612.34C957.212 612.185 960.521 611.68 963.75 610.832L964.92 610.553L964.974 610.513C967.824 608.496 970.823 606.697 973.943 605.13L974.352 604.922C976.12 604.03 978.087 603.099 980.199 602.155C983.859 600.519 987.933 598.848 992.308 597.186L993.518 596.73C994.088 596.517 994.663 596.304 995.229 596.096L996.601 595.596L997.823 595.163C998.561 594.903 999.372 594.943 1000.08 595.273C1000.79 595.603 1001.34 596.197 1001.62 596.929C1001.9 597.661 1001.88 598.472 1001.57 599.19C1001.26 599.908 1000.68 600.475 999.951 600.771L998.328 601.352L997.29 601.728C996.338 602.077 995.378 602.435 994.437 602.793C990.168 604.415 986.201 606.042 982.647 607.631C980.616 608.539 978.735 609.431 977.056 610.277C973.075 612.218 969.338 614.621 965.921 617.438C965.116 618.116 964.375 618.866 963.708 619.68L963.588 619.838L963.773 619.983C964.616 620.598 965.538 621.095 966.514 621.463C967.851 621.993 969.275 622.273 970.714 622.288C971.697 622.295 972.674 622.135 973.604 621.817L973.678 621.792L973.932 621.638C977.814 619.433 981.869 617.548 986.057 616L986.71 615.748C988.755 614.965 990.967 614.164 993.284 613.368L994.706 612.886L996.096 612.33C1000.95 610.4 1003.09 609.754 1004.59 609.754Z" fill="#2E186A"/>
<path d="M1292.6 418.2C1293.05 405.386 1289.84 392.709 1283.34 381.656C1276.84 370.604 1267.32 361.634 1255.9 355.8L1218.2 335.5L1214.1 354.1C1211.95 363.805 1206.03 372.258 1197.65 377.603C1189.27 382.947 1179.11 384.744 1169.4 382.6L1164.5 381.5C1154.79 379.348 1146.34 373.431 1141 365.049C1135.65 356.667 1133.86 346.507 1136 336.8L1142.3 308.5C1135.1 303.5 1129.4 296.7 1126.7 287.9C1126.5 287.3 1126.4 286.7 1126.2 286.2L1088.6 266L1088.5 557.7L1190.5 536.8L1185.6 468.3C1185.56 467.511 1185.83 466.738 1186.35 466.148C1186.88 465.558 1187.61 465.197 1188.4 465.145C1189.19 465.092 1189.97 465.352 1190.57 465.867C1191.16 466.383 1191.54 467.113 1191.6 467.9L1196.7 539C1196.75 539.733 1196.54 540.462 1196.1 541.05C1195.66 541.638 1195.02 542.047 1194.3 542.2L1088.5 563.9V564.7L1030.6 575.3C1042 577.5 1054.6 634 1054.6 634H1260C1264.76 633.995 1269.48 633.044 1273.87 631.2C1278.26 629.357 1282.25 626.658 1285.59 623.262C1288.93 619.866 1291.56 615.839 1293.33 611.416C1295.1 606.994 1295.97 602.263 1295.9 597.5L1292.6 418.2Z" fill="#2E186A"/>
<path d="M1223.86 292.484C1224.03 291.73 1224.49 291.071 1225.13 290.643C1225.78 290.216 1226.56 290.053 1227.32 290.19C1228.08 290.326 1228.76 290.751 1229.22 291.376C1229.67 292.001 1229.87 292.777 1229.76 293.543L1229.73 293.717L1216.93 354.752C1214.63 365.122 1208.35 374.172 1199.44 379.955C1190.53 385.738 1179.71 387.789 1169.3 385.667L1168.64 385.527L1163.74 384.427C1153.38 382.127 1144.33 375.846 1138.54 366.938C1132.76 358.029 1130.71 347.206 1132.83 336.799L1132.97 336.145L1139.27 307.845C1139.44 307.083 1139.9 306.416 1140.55 305.987C1141.21 305.558 1142 305.401 1142.77 305.548C1143.53 305.695 1144.21 306.136 1144.66 306.776C1145.11 307.416 1145.29 308.205 1145.16 308.976L1145.13 309.149L1138.83 337.449C1136.88 346.284 1138.47 355.531 1143.28 363.2C1148.08 370.868 1155.7 376.343 1164.5 378.444L1165.05 378.573L1169.95 379.673C1178.78 381.625 1188.02 380.032 1195.69 375.238C1203.35 370.443 1208.83 362.831 1210.94 354.039L1211.06 353.484L1223.86 292.484Z" fill="#2E186A"/>
<path d="M1177.33 322.021C1168.48 321.995 1159.72 320.28 1151.51 316.968C1144.94 314.38 1138.95 310.51 1133.88 305.583C1129.13 300.915 1125.61 295.144 1123.63 288.783C1121.68 281.994 1120.71 274.958 1120.78 267.893C1120.82 257.601 1121.95 247.343 1124.15 237.287C1124.84 233.966 1125.62 230.675 1126.46 227.504C1126.56 227.138 1126.65 226.814 1126.73 226.514L1126.99 225.595L1127.23 224.742L1127.5 223.827V223.818L1127.52 223.755C1130.98 211.953 1135.07 200.347 1139.78 188.987C1144.3 178.022 1149.53 167.369 1155.46 157.098L1156.12 155.973L1156.4 155.507C1159.97 149.364 1165.13 144.291 1171.33 140.815C1177.37 137.644 1184.12 136.045 1190.94 136.168C1192.94 136.172 1194.93 136.28 1196.91 136.492C1203.24 137.22 1209.44 138.742 1215.38 141.023C1218.56 142.206 1221.67 143.573 1224.68 145.117L1225.7 145.652C1232.2 149.045 1238.27 153.193 1243.79 158.01C1248.64 162.264 1252.86 167.179 1256.34 172.61C1259.59 177.74 1262.06 183.319 1263.69 189.168C1265.31 195.104 1266.14 201.227 1266.16 207.379C1266.18 216.183 1264.86 224.939 1262.25 233.348C1261.39 236.186 1260.42 238.933 1259.35 241.515C1258.61 243.321 1258.05 244.506 1257.71 245.183L1257.55 245.499L1254.81 250.669C1254.43 251.379 1254.03 252.111 1253.63 252.863L1251.82 256.21C1248.38 262.567 1245.07 268.537 1241.99 273.953C1241.56 274.718 1241.2 275.341 1240.87 275.912L1239.43 278.422C1232.89 289.71 1228.24 296.946 1225.19 300.544L1224.86 300.928C1220.27 306.313 1216.1 310.537 1210.67 313.648C1205.86 316.405 1199.94 318.411 1190.24 320.57L1189.03 320.835C1185.19 321.646 1181.26 322.043 1177.33 322.021V322.021ZM1133.19 225.418C1132.65 227.503 1131.21 233.042 1130.25 237.441L1130.08 238.224L1129.78 239.666C1127.83 248.935 1126.82 258.378 1126.78 267.851C1126.71 274.331 1127.58 280.786 1129.36 287.016C1132.69 297.809 1141.14 306.245 1153.78 311.411C1161.27 314.426 1169.26 315.991 1177.33 316.022C1180.84 316.043 1184.33 315.689 1187.76 314.968C1205.49 311.113 1210.62 308.319 1219.99 297.382L1220.77 296.471C1223.61 293.048 1228.26 285.763 1234.58 274.817L1235.67 272.924L1236.78 270.983C1240.1 265.135 1243.72 258.594 1247.52 251.54L1247.94 250.772C1248.76 249.238 1249.54 247.784 1250.25 246.452L1252.11 242.952L1252.41 242.352C1252.48 242.218 1252.55 242.052 1252.64 241.868L1252.98 241.125C1253.16 240.725 1253.32 240.371 1253.46 240.025L1253.8 239.225C1254.79 236.819 1255.7 234.255 1256.5 231.602C1258.93 223.772 1260.16 215.619 1260.15 207.421C1259.96 182.98 1247.42 163.979 1222.88 150.944C1219.77 149.301 1216.56 147.865 1213.27 146.644C1207.81 144.541 1202.1 143.135 1196.28 142.459C1194.51 142.269 1192.72 142.172 1190.93 142.168C1177.89 142.168 1167.92 147.841 1161.28 159.031L1160.63 160.131C1150.01 178.336 1140.3 201.533 1133.28 225.445L1133.19 225.418H1133.19Z" fill="#2E186A"/>
<path d="M1177.33 322.021C1168.48 321.995 1159.72 320.28 1151.51 316.968C1144.94 314.38 1138.95 310.51 1133.88 305.583C1129.13 300.915 1125.61 295.144 1123.63 288.783C1121.68 281.994 1120.71 274.958 1120.78 267.893C1120.82 257.601 1121.95 247.343 1124.15 237.287C1124.84 233.966 1125.62 230.675 1126.46 227.504C1126.56 227.138 1126.65 226.814 1126.73 226.514L1126.99 225.595L1127.23 224.742L1127.5 223.827V223.818L1127.52 223.755C1130.98 211.953 1135.07 200.347 1139.78 188.987C1144.3 178.022 1149.53 167.369 1155.46 157.098L1156.12 155.973L1156.4 155.507C1159.97 149.364 1165.13 144.291 1171.33 140.815C1177.37 137.644 1184.12 136.045 1190.94 136.168C1192.94 136.172 1194.93 136.28 1196.91 136.492C1203.24 137.22 1209.44 138.742 1215.38 141.023C1218.56 142.206 1221.67 143.573 1224.68 145.117L1225.7 145.652C1232.2 149.045 1238.27 153.193 1243.79 158.01C1248.64 162.264 1252.86 167.179 1256.34 172.61C1259.59 177.74 1262.06 183.319 1263.69 189.168C1265.31 195.104 1266.14 201.227 1266.16 207.379C1266.18 216.183 1264.86 224.939 1262.25 233.348C1261.39 236.186 1260.42 238.933 1259.35 241.515C1258.61 243.321 1258.05 244.506 1257.71 245.183L1257.55 245.499L1254.81 250.669C1254.43 251.379 1254.03 252.111 1253.63 252.863L1251.82 256.21C1248.38 262.567 1245.07 268.537 1241.99 273.953C1241.56 274.718 1241.2 275.341 1240.87 275.912L1239.43 278.422C1232.89 289.71 1228.24 296.946 1225.19 300.544L1224.86 300.928C1220.27 306.313 1216.1 310.537 1210.67 313.648C1205.86 316.405 1199.94 318.411 1190.24 320.57L1189.03 320.835C1185.19 321.646 1181.26 322.043 1177.33 322.021V322.021ZM1133.19 225.418C1132.65 227.503 1131.21 233.042 1130.25 237.441L1130.08 238.224L1129.78 239.666C1127.83 248.935 1126.82 258.378 1126.78 267.851C1126.71 274.331 1127.58 280.786 1129.36 287.016C1132.69 297.809 1141.14 306.245 1153.78 311.411C1161.27 314.426 1169.26 315.991 1177.33 316.022C1180.84 316.043 1184.33 315.689 1187.76 314.968C1205.49 311.113 1210.62 308.319 1219.99 297.382L1220.77 296.471C1223.61 293.048 1228.26 285.763 1234.58 274.817L1235.67 272.924L1236.78 270.983C1240.1 265.135 1243.72 258.594 1247.52 251.54L1247.94 250.772C1248.76 249.238 1249.54 247.784 1250.25 246.452L1252.11 242.952L1252.41 242.352C1252.48 242.218 1252.55 242.052 1252.64 241.868L1252.98 241.125C1253.16 240.725 1253.32 240.371 1253.46 240.025L1253.8 239.225C1254.79 236.819 1255.7 234.255 1256.5 231.602C1258.93 223.772 1260.16 215.619 1260.15 207.421C1259.96 182.98 1247.42 163.979 1222.88 150.944C1219.77 149.301 1216.56 147.865 1213.27 146.644C1207.81 144.541 1202.1 143.135 1196.28 142.459C1194.51 142.269 1192.72 142.172 1190.93 142.168C1177.89 142.168 1167.92 147.841 1161.28 159.031L1160.63 160.131C1150.01 178.336 1140.3 201.533 1133.28 225.445L1133.19 225.418H1133.19Z" fill="#2E186A"/>
<path d="M1130.4 224.5C1136.3 204.5 1145.7 179.2 1158.7 157.4C1159.27 156.396 1159.91 155.428 1160.6 154.5C1150.1 146.3 1133 163.2 1121.2 198.1C1115.1 216.1 1098.5 225.2 1098.5 225.2C1111.2 236.3 1122.7 231.5 1130.2 225.2C1130.3 224.8 1130.3 224.5 1130.4 224.5Z" fill="#2E186A"/>
<path d="M1157.21 211.89C1157.5 211.164 1158.06 210.579 1158.77 210.259C1159.49 209.939 1160.3 209.909 1161.03 210.177C1161.76 210.445 1162.36 210.988 1162.7 211.691C1163.04 212.395 1163.09 213.203 1162.85 213.944L1162.79 214.11L1150.42 245.151L1158.64 248.186C1159.36 248.451 1159.95 248.981 1160.29 249.666C1160.63 250.351 1160.69 251.141 1160.47 251.873L1160.41 252.04C1160.15 252.758 1159.62 253.347 1158.93 253.688C1158.25 254.028 1157.46 254.094 1156.73 253.871L1156.56 253.815L1145.46 249.715C1144.73 249.446 1144.13 248.903 1143.8 248.202C1143.46 247.501 1143.41 246.697 1143.65 245.958L1143.71 245.789L1157.21 211.89Z" fill="#2E186A"/>
<path d="M1150.94 210.647C1152.14 207.855 1151.67 204.975 1149.9 204.213C1148.12 203.452 1145.71 205.097 1144.51 207.889C1143.32 210.68 1143.79 213.561 1145.56 214.322C1147.34 215.084 1149.75 213.438 1150.94 210.647Z" fill="#2E186A"/>
<path d="M1181.8 223.954C1182.46 220.988 1181.46 218.246 1179.57 217.829C1177.68 217.413 1175.62 219.479 1174.97 222.446C1174.31 225.412 1175.31 228.154 1177.2 228.571C1179.09 228.987 1181.15 226.92 1181.8 223.954Z" fill="#2E186A"/>
<path d="M1190.26 201.511C1190.41 200.731 1190.87 200.045 1191.54 199.604C1192.2 199.163 1193.01 199.002 1193.79 199.158C1198.01 199.942 1201.83 202.144 1204.62 205.399C1205.81 206.784 1206.8 208.328 1207.56 209.986C1207.9 210.716 1208.19 211.474 1208.4 212.251C1208.6 213.007 1208.49 213.809 1208.11 214.488C1207.72 215.166 1207.09 215.667 1206.34 215.885C1205.59 216.102 1204.78 216.019 1204.09 215.652C1203.4 215.286 1202.88 214.665 1202.64 213.922L1202.55 213.608C1202.43 213.226 1202.28 212.852 1202.1 212.487C1201.58 211.337 1200.89 210.267 1200.07 209.306C1198.15 207.069 1195.51 205.563 1192.61 205.041C1191.83 204.885 1191.14 204.426 1190.7 203.764C1190.26 203.102 1190.1 202.291 1190.26 201.511V201.511Z" fill="#2E186A"/>
<path d="M1150.83 179.763C1154.42 179.501 1158.04 180.714 1161.57 182.847C1163.05 183.727 1164.44 184.746 1165.73 185.89C1166.3 186.431 1166.64 187.177 1166.67 187.966C1166.7 188.755 1166.42 189.523 1165.88 190.105C1165.35 190.686 1164.61 191.034 1163.82 191.072C1163.03 191.11 1162.26 190.836 1161.67 190.309L1161.55 190.198C1161.39 190.065 1161.15 189.867 1160.85 189.622C1160.09 189.028 1159.29 188.48 1158.47 187.981C1156.35 186.532 1153.84 185.753 1151.27 185.747C1150.28 185.811 1149.33 186.127 1148.5 186.666L1148.25 186.839C1147.6 187.292 1146.8 187.472 1146.02 187.339C1145.24 187.206 1144.55 186.771 1144.09 186.128C1143.63 185.486 1143.44 184.688 1143.56 183.908C1143.69 183.128 1144.12 182.428 1144.75 181.961C1146.54 180.676 1148.64 179.914 1150.83 179.763V179.763Z" fill="#2E186A"/>
<path d="M1321.9 225.5L1288 208.3C1292.3 183.1 1289.6 144.1 1242.3 122.1C1168.3 87.7002 1141.3 161.8 1141.3 161.8L1310.8 247.3C1313.71 248.763 1317.07 249.016 1320.16 248.004C1323.26 246.992 1325.82 244.798 1327.3 241.9C1328.04 240.471 1328.48 238.911 1328.61 237.309C1328.73 235.707 1328.54 234.095 1328.04 232.569C1327.53 231.043 1326.73 229.631 1325.68 228.418C1324.62 227.204 1323.34 226.212 1321.9 225.5V225.5Z" fill="#FE7624"/>
<path d="M1176.88 266.145C1177.17 266.405 1177.42 266.721 1177.59 267.074C1177.76 267.428 1177.87 267.812 1177.89 268.205C1177.92 268.598 1177.87 268.993 1177.74 269.366C1177.61 269.739 1177.41 270.083 1177.15 270.379C1176.81 270.755 1176.45 271.109 1176.06 271.439C1175.18 272.2 1174.24 272.879 1173.24 273.469C1166.88 277.243 1158.84 277.723 1149.62 272.969C1148.92 272.604 1148.38 271.973 1148.14 271.215C1147.9 270.456 1147.97 269.633 1148.33 268.925C1148.7 268.218 1149.33 267.684 1150.09 267.442C1150.84 267.2 1151.67 267.269 1152.38 267.634C1159.69 271.41 1165.54 271.06 1170.18 268.308C1170.86 267.904 1171.51 267.438 1172.12 266.916L1172.36 266.694L1172.64 266.42C1172.9 266.124 1173.22 265.882 1173.57 265.707C1173.93 265.533 1174.31 265.43 1174.7 265.405C1175.1 265.379 1175.49 265.431 1175.86 265.559C1176.24 265.686 1176.58 265.885 1176.88 266.145V266.145Z" fill="#2E186A"/>
<path d="M1284.1 233.8L1212.6 197.7C1204.3 223.6 1193.9 275.5 1238.2 289.2C1238.2 289.2 1272.8 300.7 1282.8 289.3C1282.8 289.3 1259 271.9 1264.4 257.6C1264.4 257.6 1288.7 293.6 1317.3 274.5C1317.2 274.5 1283.5 263.7 1284.1 233.8Z" fill="#2E186A"/>
<path d="M1344.45 631C1345.11 630.999 1345.75 631.303 1346.23 631.847C1346.7 632.391 1346.98 633.131 1347 633.912C1347.02 634.693 1346.78 635.451 1346.33 636.027C1345.88 636.603 1345.26 636.95 1344.6 636.995L1344.45 637H2.55101C1.88762 637.001 1.25012 636.697 0.773975 636.153C0.297829 635.609 0.0205661 634.869 0.00109874 634.088C-0.0183686 633.307 0.221494 632.549 0.669721 631.973C1.11795 631.397 1.73921 631.05 2.40149 631.005L2.55101 631H1344.45Z" fill="#2E186A"/>
</svg>
