<svg width="476" height="406" viewBox="0 0 476 406" fill="none" xmlns="http://www.w3.org/2000/svg">
<path d="M273.85 51.575C273.75 51.5134 273.63 51.4911 273.515 51.5124C273.399 51.5337 273.295 51.5972 273.224 51.6905C273.152 51.7838 273.118 51.9004 273.127 52.0176C273.137 52.1348 273.189 52.2444 273.275 52.325C299.96 72.9363 318.083 102.686 324.158 135.853C330.233 169.02 323.831 203.261 306.184 231.993C288.536 260.724 260.888 281.917 228.559 291.494C196.229 301.072 161.5 298.358 131.05 283.875C132.7 248.375 150.9 228 153 225.5C156.823 227.675 161.101 228.928 165.493 229.158C169.885 229.388 174.271 228.589 178.3 226.825C185.425 224.121 191.85 219.849 197.1 214.325C203.21 206.969 207.164 198.065 208.525 188.6C208.53 188.525 208.517 188.451 208.489 188.382C208.461 188.312 208.418 188.25 208.363 188.2C208.308 188.15 208.242 188.112 208.171 188.091C208.099 188.069 208.024 188.064 207.95 188.075C203.15 189.333 198.547 191.251 194.275 193.775C193.326 190.142 191.662 186.735 189.379 183.754C187.096 180.773 184.241 178.278 180.981 176.415C177.721 174.552 174.121 173.359 170.394 172.905C166.667 172.452 162.886 172.748 159.275 173.775C159.273 168.871 158.592 163.992 157.25 159.275C157.225 159.206 157.184 159.143 157.131 159.092C157.078 159.041 157.014 159.003 156.944 158.982C156.873 158.96 156.799 158.955 156.726 158.967C156.654 158.978 156.585 159.007 156.525 159.05C149.037 164.991 143.357 172.905 140.125 181.9C138.064 189.106 137.628 196.68 138.85 204.075C139.344 208.328 140.79 212.415 143.079 216.033C145.369 219.651 148.443 222.707 152.075 224.975C149.325 227.975 132.275 247.8 130.05 281.625C128.586 272.459 125.176 263.713 120.05 255.975C91.2749 211.475 90.0499 193.3 88.4999 168.475C93.9375 167.649 98.8652 164.807 102.304 160.515C105.742 156.222 107.439 150.793 107.058 145.306C106.677 139.819 104.245 134.677 100.247 130.901C96.2477 127.125 90.9745 124.991 85.4749 124.925C84.5627 120.778 82.5106 116.968 79.5499 113.925C76.3431 110.984 72.3611 109.024 68.0749 108.275C68.0005 108.26 67.9236 108.264 67.8512 108.287C67.7789 108.31 67.7135 108.351 67.6611 108.406C67.6087 108.46 67.571 108.528 67.5516 108.601C67.5322 108.674 67.5316 108.751 67.5499 108.825C68.4415 113.076 70.5222 116.986 73.5499 120.1C76.0468 122.413 79.0399 124.123 82.2999 125.1C76.5315 125.796 71.2758 128.755 67.6892 133.327C64.1026 137.898 62.4787 143.707 63.1749 149.475C63.8711 155.243 66.8303 160.499 71.4015 164.086C75.9727 167.672 81.7815 169.296 87.5499 168.6C89.2499 196.1 91.6999 213.95 119.25 256.55C124.53 264.539 127.947 273.613 129.25 283.1C120.946 279.02 113.08 274.103 105.775 268.425C104.375 256.609 99.6305 245.438 92.0999 236.225C92.0589 236.163 92.0031 236.112 91.9377 236.077C91.8723 236.042 91.7992 236.024 91.7249 236.024C91.6507 236.024 91.5776 236.042 91.5121 236.077C91.4467 236.112 91.391 236.163 91.3499 236.225C89.0318 240.433 87.2112 244.896 85.9249 249.525C64.6282 224.759 52.9428 193.163 52.9999 160.5C52.9999 91.9 101.75 35.075 168.925 25.5C169.051 25.5 169.172 25.45 169.261 25.3609C169.35 25.2718 169.4 25.151 169.4 25.025C169.4 24.8991 169.35 24.7783 169.261 24.6892C169.172 24.6001 169.051 24.55 168.925 24.55C144.573 28.2604 121.665 38.4443 102.596 54.0372C83.5269 69.6302 68.9967 90.0595 60.5245 113.189C52.0523 136.319 49.9492 161.301 54.4351 185.521C58.921 209.742 69.8311 232.313 86.0249 250.875C81.9999 265.875 83.5249 279.85 92.4999 294.9C86.5997 288.518 79.3832 283.493 71.3499 280.175C60.1597 276.295 48.111 275.602 36.5499 278.175C36.4802 278.195 36.416 278.231 36.3623 278.28C36.3087 278.329 36.267 278.39 36.2404 278.457C36.2139 278.525 36.2032 278.598 36.2091 278.67C36.2151 278.743 36.2376 278.813 36.2749 278.875C43.0886 288.562 52.4632 296.162 63.3499 300.825C69.8751 303.248 76.7899 304.451 83.7499 304.375C88.6026 304.401 93.4423 303.873 98.1749 302.8C100.875 304.55 121.9 319.45 119.45 356.375C116.25 378.475 120.45 374.375 114.825 364.675C110.973 358.535 105.484 353.591 98.9749 350.4C98.9084 350.367 98.8347 350.351 98.7604 350.353C98.6861 350.355 98.6136 350.376 98.5492 350.413C98.4848 350.45 98.4306 350.503 98.3915 350.566C98.3524 350.629 98.3295 350.701 98.3249 350.775C97.614 357.963 99.1574 365.194 102.741 371.466C106.325 377.737 111.771 382.738 118.325 385.775L93.8749 392.3C92.2544 392.833 90.8993 393.966 90.0879 395.466C89.2765 396.967 89.0704 398.721 89.512 400.369C89.9535 402.017 91.0091 403.433 92.4621 404.327C93.9151 405.22 95.6551 405.524 97.3249 405.175L148 391.4C148.845 391.177 149.638 390.789 150.334 390.259C151.03 389.73 151.614 389.068 152.054 388.312C152.494 387.557 152.781 386.722 152.898 385.855C153.015 384.989 152.961 384.108 152.737 383.263C152.514 382.417 152.127 381.624 151.597 380.928C151.067 380.233 150.405 379.648 149.65 379.208C148.894 378.769 148.059 378.482 147.193 378.364C146.326 378.247 145.445 378.302 144.6 378.525L119.3 385.3C119.42 382.417 119.269 379.53 118.85 376.675C118.45 346.375 130.4 321.275 131.1 295.2C131.112 295.125 131.112 295.05 131.1 294.975C131.1 293.625 131.1 292.05 130.95 288.3C130.95 287.15 130.95 286 130.95 284.9C161.645 299.642 196.719 302.47 229.38 292.836C262.041 283.202 289.965 261.791 307.746 232.749C325.526 203.708 331.898 169.102 325.627 135.632C319.355 102.162 300.888 72.2099 273.8 51.575H273.85ZM194.575 194.825C198.642 192.405 203.014 190.539 207.575 189.275C206.166 198.298 202.329 206.767 196.475 213.775C193.215 217.344 189.389 220.351 185.15 222.675C189.139 219.356 192.132 214.997 193.796 210.081C195.459 205.165 195.729 199.885 194.575 194.825V194.825ZM178 226.025C176.503 226.636 174.966 227.145 173.4 227.55C174.781 218.514 178.601 210.025 184.45 203C187.158 200.003 190.281 197.41 193.725 195.3C195.039 201.449 194.192 207.863 191.328 213.46C188.463 219.057 183.756 223.495 178 226.025V226.025ZM141.4 210.15C148.744 204.216 154.321 196.382 157.525 187.5C158.797 183.394 159.462 179.124 159.5 174.825C163.016 173.812 166.701 173.517 170.334 173.957C173.967 174.398 177.474 175.565 180.646 177.389C183.819 179.213 186.591 181.657 188.8 184.575C191.008 187.494 192.606 190.826 193.5 194.375C189.873 196.566 186.581 199.269 183.725 202.4C177.668 209.646 173.739 218.43 172.375 227.775C165.949 229.053 159.277 227.976 153.581 224.74C147.884 221.503 143.542 216.324 141.35 210.15H141.4ZM85.3499 167.8C81.2015 167.8 77.1462 166.57 73.6968 164.265C70.2475 161.96 67.5591 158.684 65.9715 154.852C64.384 151.019 63.9686 146.802 64.7779 142.733C65.5873 138.664 67.5849 134.927 70.5184 131.993C73.4518 129.06 77.1891 127.062 81.2579 126.253C85.3266 125.444 89.544 125.859 93.3767 127.447C97.2094 129.034 100.485 131.723 102.79 135.172C105.095 138.621 106.325 142.677 106.325 146.825C106.325 152.388 104.115 157.723 100.181 161.657C96.2479 165.59 90.9128 167.8 85.3499 167.8ZM149.075 380C150.051 380.567 150.838 381.411 151.337 382.424C151.835 383.438 152.022 384.576 151.875 385.695C151.728 386.815 151.254 387.866 150.511 388.717C149.768 389.567 148.79 390.179 147.7 390.475L96.9749 404.075C95.5063 404.47 93.9411 404.264 92.6236 403.505C91.3062 402.745 90.3444 401.494 89.9499 400.025C89.5554 398.556 89.7605 396.991 90.52 395.674C91.2795 394.356 92.5313 393.395 93.9999 393L144.725 379.4C146.198 379.03 147.757 379.245 149.075 380V380ZM92.0499 237.35C99.0043 246.095 103.47 256.554 104.975 267.625C98.4413 262.479 92.3912 256.747 86.8999 250.5C88.1339 245.943 89.8607 241.533 92.0499 237.35V237.35ZM63.5249 299.85C53.0248 295.361 43.9488 288.091 37.2749 278.825C48.4436 276.473 60.0422 277.207 70.8249 280.95C81.3225 285.432 90.3922 292.703 97.0499 301.975C85.8804 304.295 74.2899 303.525 63.5249 299.75V299.85ZM120.5 349.3C120.1 317.275 101.625 303.8 98.6749 301.8C103.919 291.906 106.504 280.819 106.175 269.625C113.512 275.227 121.384 280.092 129.675 284.15C132.1 305.3 124.6 326.3 120.5 349.3Z" fill="#FE7624"/>
<path d="M172.275 209.975C172.645 209.329 172.883 208.616 172.976 207.877C173.07 207.139 173.016 206.389 172.819 205.671C172.621 204.953 172.284 204.281 171.826 203.694C171.368 203.107 170.798 202.616 170.15 202.25L167.65 200.85L172.35 192.625C174.655 194.131 177.06 195.476 179.55 196.65C179.65 196.644 179.746 196.606 179.823 196.542C179.9 196.478 179.955 196.391 179.98 196.294C180.005 196.197 179.999 196.095 179.962 196.001C179.925 195.908 179.86 195.829 179.775 195.775L172.8 191.8L174.5 188.825C174.548 188.773 174.583 188.711 174.604 188.643C174.624 188.576 174.629 188.505 174.619 188.435C174.609 188.365 174.583 188.299 174.543 188.24C174.504 188.182 174.452 188.133 174.392 188.097C174.331 188.061 174.263 188.039 174.193 188.032C174.123 188.026 174.052 188.035 173.986 188.059C173.919 188.083 173.859 188.122 173.81 188.172C173.761 188.223 173.723 188.283 173.7 188.35L172 191.325L169.5 189.925C168.524 189.377 167.408 189.129 166.291 189.212C165.175 189.294 164.108 189.704 163.223 190.389C162.337 191.074 161.673 192.005 161.314 193.065C160.954 194.125 160.915 195.268 161.2 196.35C161.394 197.074 161.73 197.753 162.189 198.345C162.649 198.938 163.222 199.432 163.875 199.8L166.375 201.2L161.675 209.425L154.75 205.5C154.641 205.437 154.511 205.42 154.389 205.453C154.267 205.486 154.163 205.566 154.1 205.675C154.037 205.784 154.02 205.914 154.053 206.036C154.086 206.158 154.166 206.262 154.275 206.325L161.25 210.3L159.55 213.275C159.511 213.348 159.491 213.43 159.494 213.512C159.496 213.595 159.519 213.676 159.562 213.747C159.605 213.817 159.666 213.876 159.738 213.916C159.811 213.956 159.892 213.976 159.975 213.975C160.325 213.975 160.225 213.975 162.075 210.75C163.581 211.959 165.404 212.705 167.325 212.9C168.336 212.898 169.328 212.625 170.198 212.111C171.068 211.597 171.785 210.859 172.275 209.975V209.975ZM164.425 198.975C163.334 198.352 162.536 197.321 162.205 196.109C161.875 194.897 162.039 193.603 162.663 192.513C163.286 191.422 164.317 190.623 165.529 190.293C166.741 189.962 168.034 190.127 169.125 190.75L171.625 192.15L166.875 200.5L164.425 198.975ZM164.975 211.275L162.475 209.9L167.15 201.65L169.65 203.05C170.194 203.356 170.671 203.769 171.054 204.262C171.436 204.756 171.715 205.322 171.875 205.925C172.109 206.825 172.074 207.773 171.774 208.653C171.474 209.532 170.923 210.305 170.189 210.874C169.454 211.444 168.569 211.786 167.642 211.857C166.715 211.928 165.788 211.726 164.975 211.275V211.275Z" fill="#FE7624"/>
<path d="M269.925 49.975C268.55 49.975 242.075 24.8001 196.075 21.6251C195.949 21.6251 195.828 21.575 195.739 21.4859C195.65 21.3968 195.6 21.276 195.6 21.1501C195.6 21.0241 195.65 20.9033 195.739 20.8142C195.828 20.7251 195.949 20.675 196.075 20.675C223.047 22.5811 248.837 32.4864 270.15 49.125C270.225 49.1819 270.282 49.2598 270.313 49.349C270.344 49.4381 270.347 49.5344 270.323 49.6256C270.299 49.7167 270.248 49.7987 270.177 49.8609C270.106 49.9231 270.019 49.9629 269.925 49.975Z" fill="#FE7624"/>
<path d="M411.975 132.85C411.975 132.85 380.35 156.15 366.8 177.85C359.716 170.215 353.817 161.56 349.3 152.175C334.3 121.625 315.4 121.175 307.05 118.7C301.7 125.4 291.55 131.8 282.575 135.7C276.414 159.249 272.456 183.319 270.75 207.6C270.413 211.996 271.396 216.392 273.575 220.225L314.425 292.175C324.319 289.424 333.588 284.79 341.725 278.525C331.725 250.4 323.05 224.25 307.725 206.025C311.4 198.875 316.7 189.1 320.225 181.3C326.95 192.55 338.2 203.8 352.15 214.15C356.592 217.459 362.114 218.979 367.624 218.41C373.134 217.84 378.229 215.222 381.9 211.075L433.625 152.7C427.661 144.835 420.327 138.11 411.975 132.85V132.85Z" fill="#18216D"/>
<path d="M175.8 49.225L151.45 1.89995C151.401 1.79619 151.314 1.7151 151.207 1.67328C151.1 1.63145 150.981 1.63205 150.875 1.67495L103.875 18.475C103.767 18.5146 103.677 18.5923 103.621 18.6935C103.566 18.7947 103.55 18.9125 103.575 19.025L108.8 43.275L75.7999 31.725C75.687 31.6913 75.5657 31.7009 75.4594 31.7517C75.3532 31.8025 75.2696 31.891 75.2249 32L72.9999 37.25C72.9748 37.3041 72.9608 37.3626 72.9586 37.4222C72.9563 37.4818 72.966 37.5412 72.9869 37.597C73.0078 37.6528 73.0397 37.7039 73.0805 37.7474C73.1214 37.7908 73.1704 37.8257 73.2249 37.85L111.9 57.65C115.05 72.275 114.75 71.225 115.025 71.375C115.3 71.525 115.025 71.375 119.1 70.075C119.219 70.0319 119.317 69.9431 119.37 69.8282C119.424 69.7134 119.43 69.5818 119.387 69.4625C119.344 69.3431 119.256 69.2458 119.141 69.1919C119.026 69.1379 118.894 69.1319 118.775 69.175V69.175C118.35 68.175 120.25 67.475 124.75 67.4C124.754 67.473 124.775 67.5442 124.811 67.6079C124.846 67.6716 124.897 67.7261 124.957 67.7673C125.018 67.8084 125.087 67.835 125.159 67.845C125.232 67.855 125.306 67.8482 125.375 67.825L149.975 59.025C150.066 58.968 150.135 58.8821 150.17 58.781C150.206 58.68 150.207 58.5699 150.172 58.4685C150.137 58.3672 150.069 58.2805 149.979 58.2227C149.889 58.1648 149.782 58.1392 149.675 58.15C148.875 55.65 148.85 53.925 152.75 57.1C152.684 57.1801 152.646 57.2797 152.642 57.3835C152.638 57.4872 152.668 57.5895 152.727 57.6746C152.787 57.7597 152.873 57.8229 152.971 57.8546C153.07 57.8863 153.177 57.8846 153.275 57.85L175.775 49.825C175.852 49.7456 175.898 49.6404 175.902 49.5297C175.907 49.419 175.87 49.3105 175.8 49.225V49.225Z" fill="#FE7624"/>
<path d="M49.3251 66.1249C43.9501 54.9499 44.3251 55.5749 44.0251 55.4999C43.7251 55.4249 44.5501 54.9999 33.7501 61.4249C33.6959 61.4561 33.6484 61.4977 33.6103 61.5472C33.5722 61.5968 33.5442 61.6534 33.5279 61.7137C33.5117 61.7741 33.5075 61.837 33.5156 61.899C33.5237 61.961 33.5439 62.0208 33.5751 62.075C33.6381 62.1844 33.7419 62.2643 33.8638 62.2971C33.9242 62.3133 33.9871 62.3175 34.0491 62.3094C34.1111 62.3014 34.1709 62.2811 34.2251 62.25L43.0001 56.9749L34.6501 83.9749C6.72506 93.2999 8.37507 92.6749 8.25007 92.9999L0.0750666 110.075C0.0471607 110.131 0.0305212 110.192 0.0260978 110.254C0.0216743 110.316 0.0295539 110.379 0.0492864 110.438C0.0690188 110.497 0.100217 110.552 0.141101 110.599C0.181986 110.646 0.231755 110.685 0.287567 110.712C0.343378 110.74 0.40414 110.757 0.466383 110.761C0.528625 110.766 0.591129 110.758 0.650326 110.738C0.709524 110.719 0.764255 110.687 0.811395 110.646C0.858535 110.606 0.897161 110.556 0.925067 110.5L9.00007 93.5249L35.2501 84.8C35.6001 84.8 34.9751 86.35 44.0001 57.3L48.4751 66.6249C48.5414 66.7377 48.6497 66.8194 48.7763 66.8522C48.9029 66.8851 49.0373 66.8663 49.1501 66.7999C49.2628 66.7336 49.3445 66.6253 49.3774 66.4987C49.4102 66.3721 49.3914 66.2377 49.3251 66.1249Z" fill="#FE7624"/>
<path d="M93 150.5C92.8916 149.273 92.3082 148.137 91.3742 147.333C90.4402 146.53 89.2295 146.123 88 146.2V146.2L85.8 146.4L85.125 138.9L91.55 138.3C91.6543 138.276 91.7473 138.217 91.8139 138.133C91.8805 138.049 91.9167 137.945 91.9167 137.837C91.9167 137.73 91.8805 137.626 91.8139 137.542C91.7473 137.458 91.6543 137.399 91.55 137.375L85.1 137.95L84.85 135.25C84.85 134.6 83.875 134.75 83.925 135.25L84.175 137.925C81.975 138.125 80.25 137.925 78.775 139.825C78.1987 140.51 77.8302 141.346 77.7127 142.233C77.5953 143.121 77.7338 144.024 78.112 144.835C78.4902 145.647 79.0923 146.333 79.8475 146.814C80.6028 147.295 81.4796 147.551 82.375 147.55L85.025 147.35L85.7 154.85L79.175 155.5C79.0706 155.524 78.9776 155.583 78.911 155.667C78.8445 155.751 78.8082 155.855 78.8082 155.962C78.8082 156.07 78.8445 156.174 78.911 156.258C78.9776 156.342 79.0706 156.401 79.175 156.425L85.65 155.85L85.875 158.55C85.875 158.676 85.925 158.797 86.0141 158.886C86.1032 158.975 86.224 159.025 86.35 159.025C86.476 159.025 86.5968 158.975 86.6859 158.886C86.7749 158.797 86.825 158.676 86.825 158.55L86.575 155.875L88.775 155.675C89.3934 155.616 89.9939 155.434 90.5418 155.141C91.0897 154.849 91.5741 154.45 91.967 153.969C92.3599 153.488 92.6535 152.933 92.8308 152.338C93.0081 151.742 93.0656 151.118 93 150.5V150.5ZM82.525 146.7C82.0131 146.784 81.4894 146.761 80.9867 146.633C80.484 146.505 80.013 146.276 79.6031 145.958C79.1931 145.64 78.8531 145.241 78.6042 144.786C78.3553 144.331 78.2028 143.829 78.1563 143.313C78.1099 142.796 78.1703 142.276 78.334 141.783C78.4976 141.291 78.761 140.838 79.1075 140.452C79.4541 140.066 79.8765 139.756 80.3484 139.54C80.8202 139.325 81.3314 139.209 81.85 139.2L84.05 139L84.725 146.5L82.525 146.7ZM91.2 153.325C90.8937 153.705 90.5149 154.02 90.0857 154.251C89.6565 154.483 89.1854 154.627 88.7 154.675L86.45 154.875L85.75 147.375L87.95 147.175C88.6805 147.107 89.415 147.253 90.0636 147.596C90.7123 147.939 91.247 148.463 91.6024 149.105C91.9578 149.747 92.1184 150.478 92.0647 151.21C92.011 151.942 91.7453 152.642 91.3 153.225L91.2 153.325Z" fill="#FE7624"/>
<path d="M182.525 335.875L150.875 321.5C142.875 317.85 137.3 329.9 145.3 333.6L177 348C184.925 351.575 190.5 339.575 182.525 335.875ZM177.35 347.125L145.7 332.75C144.321 332.113 143.251 330.955 142.726 329.53C142.201 328.105 142.263 326.529 142.9 325.15C143.536 323.771 144.695 322.701 146.12 322.176C147.545 321.651 149.121 321.713 150.5 322.35L182.15 336.725C189.025 339.925 184.125 350.225 177.35 347.125V347.125Z" fill="#FE7624"/>
<path d="M238.45 320.1C236.542 320.098 234.677 319.536 233.086 318.484C231.494 317.432 230.246 315.937 229.497 314.183C228.747 312.429 228.528 310.493 228.867 308.616C229.206 306.739 230.089 305.002 231.405 303.622C232.722 302.241 234.414 301.277 236.273 300.849C238.132 300.421 240.076 300.547 241.864 301.213C243.652 301.879 245.205 303.054 246.331 304.594C247.457 306.133 248.107 307.97 248.2 309.875C248.264 311.195 248.06 312.514 247.599 313.752C247.138 314.991 246.43 316.122 245.518 317.079C244.606 318.035 243.509 318.796 242.294 319.315C241.079 319.835 239.771 320.102 238.45 320.1V320.1ZM238.45 301.55C236.977 301.544 235.527 301.906 234.23 302.604C232.933 303.302 231.831 304.314 231.026 305.546C230.22 306.779 229.735 308.194 229.616 309.662C229.497 311.13 229.747 312.604 230.344 313.95C230.941 315.297 231.865 316.472 233.032 317.37C234.2 318.268 235.573 318.86 237.027 319.091C238.482 319.322 239.971 319.185 241.359 318.693C242.747 318.202 243.99 317.37 244.975 316.275C246.101 315.007 246.839 313.442 247.101 311.767C247.363 310.092 247.138 308.377 246.453 306.825C245.769 305.274 244.653 303.952 243.238 303.017C241.824 302.082 240.171 301.573 238.475 301.55H238.45Z" fill="#FE7624"/>
<path d="M263.55 342.5C261.642 342.498 259.777 341.936 258.186 340.884C256.594 339.832 255.346 338.337 254.596 336.583C253.847 334.829 253.628 332.893 253.967 331.016C254.306 329.139 255.189 327.402 256.505 326.022C257.822 324.641 259.514 323.677 261.373 323.249C263.232 322.821 265.176 322.947 266.964 323.613C268.751 324.279 270.305 325.454 271.431 326.994C272.557 328.533 273.207 330.37 273.3 332.275C273.364 333.595 273.16 334.914 272.699 336.152C272.238 337.39 271.53 338.522 270.618 339.478C269.706 340.435 268.609 341.196 267.394 341.715C266.179 342.235 264.871 342.502 263.55 342.5V342.5ZM263.55 323.95C261.792 323.952 260.075 324.481 258.62 325.468C257.165 326.455 256.039 327.855 255.387 329.488C254.735 331.121 254.588 332.912 254.963 334.629C255.339 336.347 256.22 337.912 257.494 339.125C258.767 340.337 260.375 341.139 262.109 341.429C263.843 341.719 265.624 341.483 267.223 340.752C268.821 340.02 270.164 338.826 271.078 337.324C271.992 335.822 272.435 334.081 272.35 332.325C272.229 330.074 271.254 327.954 269.623 326.398C267.992 324.841 265.829 323.966 263.575 323.95H263.55Z" fill="#FE7624"/>
<path d="M230.8 344.125C230.707 344.126 230.616 344.099 230.538 344.049C230.46 343.998 230.398 343.926 230.361 343.84C230.324 343.755 230.312 343.661 230.328 343.569C230.344 343.478 230.386 343.393 230.45 343.325L270.875 298.75C270.961 298.657 271.081 298.602 271.207 298.598C271.334 298.593 271.457 298.639 271.55 298.725C271.643 298.811 271.698 298.931 271.702 299.057C271.707 299.184 271.661 299.307 271.575 299.4C228.15 347.15 231.125 344.125 230.8 344.125Z" fill="#FE7624"/>
<path d="M372.8 110.2C372.74 110.207 372.679 110.201 372.622 110.183C372.564 110.165 372.511 110.135 372.467 110.095C372.422 110.054 372.386 110.005 372.361 109.95C372.337 109.895 372.325 109.835 372.325 109.775L371.2 87.0499C371.2 86.924 371.25 86.8032 371.339 86.7141C371.428 86.625 371.549 86.575 371.675 86.575C371.801 86.575 371.922 86.625 372.011 86.7141C372.1 86.8032 372.15 86.924 372.15 87.0499L373.25 109.775C373.244 109.89 373.193 109.998 373.11 110.077C373.026 110.156 372.915 110.2 372.8 110.2V110.2Z" fill="#FE7624"/>
<path d="M360.875 99.4001C360.771 99.3757 360.678 99.3167 360.611 99.2327C360.545 99.1488 360.508 99.0448 360.508 98.9376C360.508 98.8304 360.545 98.7264 360.611 98.6425C360.678 98.5585 360.771 98.4995 360.875 98.4751L383.6 97.3501C383.726 97.3501 383.847 97.4001 383.936 97.4892C384.025 97.5783 384.075 97.6991 384.075 97.8251C384.075 97.9511 384.025 98.0719 383.936 98.161C383.847 98.2501 383.726 98.3001 383.6 98.3001L360.875 99.4001Z" fill="#FE7624"/>
<path d="M475.725 111.075C475.794 111.012 475.843 110.929 475.866 110.838C475.888 110.746 475.883 110.651 475.851 110.562C475.819 110.474 475.761 110.397 475.685 110.341C475.61 110.286 475.519 110.254 475.425 110.25C463.825 109.75 434.825 117.025 425.975 121.9C425.375 122.25 420.6 129.825 415.975 135C414.725 134.133 413.45 133.3 412.15 132.5C412.074 132.445 411.982 132.415 411.888 132.415C411.793 132.415 411.702 132.445 411.625 132.5C411.275 132.75 380.375 155.675 366.625 177.2C359.74 169.759 354.001 161.333 349.6 152.2C336.55 125.15 320.5 121.45 310.775 119.225C309.425 118.925 308.275 118.65 307.25 118.35C305.641 117.123 304.097 115.813 302.625 114.425C304.348 114.472 306.069 114.304 307.75 113.925C310.727 113.438 313.527 112.19 315.879 110.302C318.231 108.414 320.056 105.951 321.175 103.15C322.266 100.683 322.787 98.0017 322.701 95.3055C322.614 92.6093 321.922 89.9672 320.675 87.575C314.825 76.675 298.3 72.175 294.9 71.35C296.15 68.85 300.675 57.775 290.3 51.55C281.95 46.55 275.025 45.025 269.75 47.075C268.118 47.7281 266.642 48.7181 265.419 49.9802C264.195 51.2424 263.252 52.7484 262.65 54.4C262.05 55.875 259.2 62.75 258.55 64.4C236.875 52.85 201.375 27.05 201.05 26.9C200.974 26.845 200.882 26.8155 200.788 26.8155C200.693 26.8155 200.602 26.845 200.525 26.9C199.875 27.275 199.225 27.65 198.6 28.075C197.3 25.7021 196.58 23.0547 196.5 20.35C196.476 17.6254 195.679 14.9636 194.2 12.675C192.125 10.175 190.625 8.79998 188.075 10.75C187.475 10.025 185.575 7.89998 185.575 7.89998C185.121 7.32633 184.491 6.91715 183.783 6.73494C183.074 6.55273 182.325 6.60752 181.651 6.89094C180.976 7.17436 180.413 7.67082 180.047 8.30447C179.682 8.93812 179.533 9.67411 179.625 10.4C179.072 9.72506 178.278 9.2908 177.411 9.18836C176.545 9.08592 175.672 9.32327 174.976 9.85058C174.281 10.3779 173.817 11.1542 173.681 12.0164C173.546 12.8787 173.75 13.7598 174.25 14.475C173.589 14.3568 172.907 14.4402 172.294 14.7143C171.681 14.9883 171.164 15.4404 170.811 16.0118C170.458 16.5832 170.285 17.2476 170.314 17.9186C170.343 18.5897 170.574 19.2365 170.975 19.775C171.15 19.975 171.325 20.2 171.55 20.425C170.95 20.4043 170.356 20.5501 169.834 20.8463C169.312 21.1425 168.882 21.5775 168.592 22.103C168.302 22.6286 168.164 23.2242 168.192 23.8238C168.219 24.4234 168.413 25.0036 168.75 25.5C169.125 25.925 169.525 26.35 169.975 26.775C169.975 28.175 170.725 35.25 186.35 44.9C186 45.875 185.7 46.875 185.425 47.875C185.403 47.9701 185.407 48.0697 185.438 48.1624C185.469 48.2552 185.525 48.3374 185.6 48.4C197.775 57.225 227.8 78.625 241.025 85.9C232.922 90.0559 225.215 94.9429 218 100.5C216.125 99.225 202.1 89.65 180 74.85C179.924 74.8061 179.838 74.783 179.75 74.783C179.662 74.783 179.576 74.8061 179.5 74.85C178.725 75.3 177.95 75.775 177.225 76.25C169.778 71.1552 162.648 65.6116 155.875 59.65C151.3 55.3 149.825 54.65 149.05 55.275C148.275 55.9 149.2 59.075 149.725 60.5C150.575 62.75 155.875 70.05 154.725 71.9C154.4 72.45 153.525 72.275 153.275 72.35C144.488 69.5786 135.412 67.8255 126.225 67.125C118.3 67 118.1 68.475 118.025 68.95C118.014 69.1769 118.056 69.4033 118.147 69.6115C118.238 69.8196 118.376 70.0039 118.55 70.15C120.5 72.1 125.5 72.95 131.625 75.15C128.775 75.15 125.4 75.4 125.2 75.4C121.275 75.625 119.15 76.375 119.025 77.6C119.021 77.8864 119.12 78.1649 119.303 78.385C119.487 78.6051 119.743 78.7523 120.025 78.8C123.35 79.625 128.6 80.45 132.4 81.3C130.625 81.7 126 82.725 126.125 84.575C126.166 84.8603 126.306 85.1219 126.521 85.314C126.736 85.506 127.012 85.6162 127.3 85.625C136.925 86.4 141.65 84.75 156.05 89.375C157.5 90.325 161.05 93.25 163.7 95.55C163.425 96.6 163.2 97.7 163 98.825C162.982 98.9126 162.988 99.0037 163.019 99.0877C163.05 99.1718 163.104 99.2454 163.175 99.3C163.375 99.45 182.675 113.4 196.025 122.975C206.875 130.75 213.875 135.25 225.725 129.625C234.51 124.984 243.032 119.859 251.25 114.275C259.175 121.775 271.825 131.775 281.925 136.2C275.836 159.65 271.912 183.608 270.2 207.775C269.845 212.266 270.847 216.76 273.075 220.675C315.775 295.875 313.85 292.775 314.275 292.875C316.114 292.471 317.926 291.954 319.7 291.325L325.15 300.775C329.7 324.775 334.125 334.975 341.525 346.75C342.6 348.45 342.725 348 343.275 346.45C347.425 334.975 349.55 306.45 347.85 296.925C347.7 296.125 341.825 289.05 337.85 281.925C339.225 281.025 340.6 280.05 342 279.05C342.086 278.99 342.149 278.904 342.181 278.805C342.212 278.705 342.21 278.598 342.175 278.5C333 252.725 324.275 225 308.275 206C311.575 199.575 316.65 190.25 320.35 182.325C326.875 192.925 337.5 203.775 351.925 214.55C356.471 217.902 362.104 219.438 367.722 218.855C373.341 218.272 378.539 215.614 382.3 211.4L434.05 153C434.109 152.916 434.141 152.815 434.141 152.712C434.141 152.61 434.109 152.509 434.05 152.425C433.1 151.175 432.1 149.925 431.075 148.75L437 142.15C458.65 129.8 466.775 122.275 475.725 111.075ZM263.425 54.975C264.345 54.9199 265.269 54.9787 266.175 55.15C265.725 56.7 265.275 59.25 266.175 59.8C266.475 59.975 266.95 60.025 267.625 59.3C269.9 56.8 271.85 60.55 267.375 63.675C267.302 63.7224 267.244 63.7903 267.208 63.8702C267.173 63.9501 267.161 64.0387 267.175 64.125C269.087 75.8908 273.338 87.1542 279.675 97.25C274.675 93.575 269.45 83.35 261.55 81.475C263.328 78.3424 264.874 75.0837 266.175 71.725C266.206 71.6426 266.214 71.5531 266.197 71.4666C266.181 71.38 266.14 71.2999 266.081 71.235C266.021 71.1702 265.944 71.1232 265.859 71.0993C265.775 71.0755 265.685 71.0757 265.6 71.1C263.775 71.65 258.425 73.15 257.9 71.3C257.625 68.25 260.2 63 263.425 54.975ZM184.9 8.44998L187.4 11.275C186.525 12.075 185.475 13.2 184.125 14.7C183.046 13.605 182.036 12.4445 181.1 11.225C180.955 10.7311 180.966 10.2044 181.131 9.71693C181.297 9.22944 181.609 8.80491 182.024 8.50132C182.44 8.19773 182.939 8.02987 183.454 8.02068C183.969 8.01149 184.474 8.16142 184.9 8.44998V8.44998ZM179.05 10.95C180 11.975 182.25 14.25 183.325 15.4L182.2 16.65C180.55 18.475 182.2 21.275 186 19.975C185.992 20.4107 185.85 20.8335 185.594 21.186C185.338 21.5385 184.979 21.8036 184.567 21.9455C184.155 22.0874 183.71 22.0992 183.291 21.9793C182.872 21.8593 182.5 21.6134 182.225 21.275C179.575 18.525 176.375 15.45 175.15 13.775C174.987 13.2679 174.99 12.722 175.159 12.2168C175.328 11.7116 175.654 11.2737 176.089 10.9667C176.525 10.6598 177.047 10.4999 177.579 10.5103C178.112 10.5208 178.627 10.7011 179.05 11.025V10.95ZM175.5 15.95C177.575 18.1 179.925 20.475 181.725 22.55C184.05 25.05 180.975 28.075 178.4 25.55C175.825 23.025 173 20.5 171.725 19.05C171.538 18.5502 171.515 18.0037 171.661 17.4903C171.807 16.9769 172.113 16.5236 172.535 16.1967C172.957 15.8698 173.472 15.6865 174.006 15.6736C174.539 15.6607 175.063 15.8189 175.5 16.125V15.95ZM169.475 24.775C169.273 24.3062 169.233 23.7836 169.361 23.2894C169.488 22.7952 169.777 22.3575 170.181 22.0454C170.585 21.7332 171.081 21.5642 171.591 21.565C172.102 21.5659 172.597 21.7365 173 22.05C174.95 23.95 176.25 25.225 178.15 27.25C180.425 29.75 177.55 32.55 175 30.2C172.45 27.85 170.7 26.4 169.475 24.95V24.775ZM171.025 27.65C171.35 27.95 173.525 29.875 174.425 30.725C177.55 33.6 181.25 30.425 179.55 27.325C180.115 27.4624 180.707 27.4354 181.258 27.2473C181.808 27.0592 182.293 26.7178 182.655 26.2633C183.018 25.8088 183.243 25.2602 183.304 24.682C183.365 24.1038 183.26 23.5202 183 23C183.579 23.2235 184.221 23.2235 184.8 23C183.899 25.4344 183.979 28.124 185.025 30.5C185.078 30.616 185.175 30.7062 185.295 30.7508C185.414 30.7953 185.547 30.7905 185.663 30.7375C185.779 30.6844 185.869 30.5875 185.913 30.4679C185.958 30.3484 185.953 30.216 185.9 30.1C184.075 25.95 185.6 21.225 189.85 17.825C190.325 17.175 189.625 16.775 189.25 17.075C188.325 17.8767 187.289 18.5418 186.175 19.05C183 20.45 181.75 18.65 182.825 17.45C189.75 9.94998 189.925 9.24998 193.375 13.3C196.225 16.65 194.625 24.125 197.725 28.65C192.514 32.5582 188.624 37.9668 186.575 44.15C174.1 36.225 171.55 30.225 171.025 27.825V27.65ZM193.875 53.05L186.375 47.7C188.875 38.325 193.875 31.575 200.65 27.7L208 33C201.447 38.2452 196.543 45.2667 193.875 53.225V53.05ZM194.675 53.625C197.256 45.6212 202.133 38.5529 208.7 33.3C220.625 41.7 242.9 57.025 258.225 65.175C255.925 71.575 256.45 74.6 263.225 76C262.4 77.75 261.525 79.4 260.55 81C255.725 80.2 249.55 81.575 241.975 85.125C231.2 79.6 207.45 63 194.675 53.8V53.625ZM127.45 84.55C127.275 84.55 127.15 84.55 127.15 84.4C127.15 84.25 128 83.125 132.15 82.225L134.65 81.675C140.373 83.1221 146.015 84.8746 151.55 86.925C139.925 83.95 137.025 85.325 127.45 84.55ZM119.95 77.55C119.95 77.275 121 76.45 125.225 76.225C125.475 76.225 131.25 75.875 133.975 75.95C140.602 78.4662 146.813 81.9635 152.4 86.325C137 79.725 119.95 78.45 120.05 77.55H119.95ZM125.775 72.15C123.582 71.6483 121.481 70.8046 119.55 69.65C118.65 69 118.825 68.775 119.725 68.475C121.465 68.0417 123.261 67.8814 125.05 68C128.25 67.65 144.9 69.925 158.9 75.2C159.5 75.4 159.825 74.525 159.25 74.325C157.875 73.8 156.5 73.325 155.125 72.85C158.075 70.925 151.675 62.85 150.675 60.125C150.475 59.575 149.275 56.475 149.6 56C149.975 56 151.55 56.75 155.275 60.3C161.996 66.2012 169.059 71.7023 176.425 76.775C170.265 81.0013 165.828 87.3008 163.925 94.525C151.5 83.925 143 76.95 125.875 72.15H125.775ZM164.05 98.575C164.726 93.8033 166.498 89.2529 169.226 85.28C171.954 81.3071 175.565 78.0196 179.775 75.675L187.425 80.675C179.683 86.5612 174.35 95.0666 172.425 104.6L164.05 98.575ZM263.425 123.25C256.925 111.825 256.275 110.75 255.925 110.225C255.876 110.171 255.816 110.128 255.749 110.099C255.683 110.069 255.611 110.054 255.538 110.054C255.465 110.054 255.393 110.069 255.326 110.099C255.259 110.128 255.199 110.171 255.15 110.225C245.703 117.043 235.796 123.199 225.5 128.65C214.825 133.65 208.85 130.725 196.775 122.075C189.425 116.825 180.3 110.225 173.525 105.35C175.316 95.7875 180.611 87.2378 188.375 81.375C204.65 92.3 215.075 99.4 217.375 100.95C215.025 102.7 212.625 104.55 210.125 106.5C210.076 106.539 210.035 106.588 210.004 106.643C209.974 106.699 209.955 106.759 209.948 106.822C209.941 106.885 209.946 106.948 209.964 107.009C209.981 107.069 210.011 107.126 210.05 107.175C210.09 107.224 210.138 107.265 210.193 107.296C210.249 107.326 210.309 107.345 210.372 107.352C210.435 107.359 210.498 107.354 210.559 107.336C210.619 107.319 210.676 107.289 210.725 107.25C238 85.625 255.75 78 265.025 83.9C271.65 88.125 276.125 96.9 280.85 98.9C282.125 100.95 283.35 102.825 284.575 104.5C286.46 107.247 288.927 109.544 291.8 111.229C294.674 112.914 297.883 113.946 301.2 114.25C302.825 115.869 304.554 117.381 306.375 118.775C300.65 125.7 290.425 131.775 282.575 135.2C275.716 132.036 269.282 128.021 263.425 123.25ZM339.275 286C333.585 288.453 328.171 291.503 323.125 295.1L320.625 290.875C326.39 288.669 331.891 285.826 337.025 282.4C337.825 283.7 338.525 284.875 339.275 286ZM433 152.7L381.525 210.775C377.918 214.815 372.934 217.363 367.548 217.923C362.161 218.482 356.76 217.012 352.4 213.8C337.825 202.925 327.175 191.975 320.75 181.3C335.225 149.7 327.8 141.05 324.175 136.8L323.5 136C323.419 135.914 323.31 135.862 323.193 135.852C323.075 135.843 322.959 135.877 322.866 135.949C322.772 136.02 322.709 136.124 322.687 136.24C322.666 136.355 322.688 136.475 322.75 136.575L323.475 137.425C326.825 141.35 334.675 150.5 318.175 184.55C313.35 194.55 306.375 207.05 303.925 212.7C303.9 212.757 303.887 212.819 303.887 212.882C303.886 212.944 303.897 213.006 303.921 213.064C303.944 213.122 303.978 213.175 304.022 213.22C304.066 213.265 304.118 213.3 304.175 213.325C304.233 213.35 304.294 213.363 304.357 213.363C304.419 213.364 304.481 213.353 304.539 213.329C304.597 213.306 304.65 213.272 304.695 213.228C304.74 213.184 304.775 213.132 304.8 213.075C305.525 211.375 306.525 209.3 307.725 206.95C323.5 225.775 332.025 252.975 341.1 278.475C337.122 281.381 332.945 284.004 328.6 286.325L306.775 244.65C306.707 244.559 306.607 244.496 306.496 244.472C306.385 244.448 306.268 244.465 306.168 244.519C306.068 244.574 305.991 244.662 305.951 244.769C305.911 244.876 305.911 244.993 305.95 245.1L327.75 286.775C323.588 288.915 319.203 290.592 314.675 291.775L274 220.1C271.858 216.355 270.899 212.05 271.25 207.75C272.952 183.572 276.885 159.604 283 136.15C290.975 132.65 301.45 126.45 307.25 119.325C317.05 122.1 334.45 123 348.9 152.475C353.357 161.807 359.198 170.412 366.225 178C364.327 181.007 362.775 184.219 361.6 187.575C361.562 187.636 361.538 187.704 361.53 187.775C361.523 187.846 361.531 187.918 361.555 187.986C361.579 188.053 361.617 188.115 361.668 188.165C361.719 188.215 361.781 188.253 361.848 188.277C361.916 188.3 361.988 188.308 362.059 188.299C362.13 188.29 362.199 188.266 362.259 188.227C362.319 188.189 362.37 188.137 362.407 188.076C362.445 188.015 362.468 187.946 362.475 187.875C369.975 165.375 408.45 136.075 412 133.425C416.857 136.488 421.381 140.049 425.5 144.05L399.25 171.075C398.825 171.5 399.5 172.175 399.925 171.725L426.175 144.7C428.613 147.224 430.892 149.895 433 152.7V152.7ZM430.5 148C426.435 143.333 421.856 139.14 416.85 135.5L418.575 133.5C422.723 138.149 427.358 142.34 432.4 146L430.5 148Z" fill="#18216D"/>
<path d="M263.16 60.6052C263.303 59.961 263.086 59.3654 262.676 59.2749C262.266 59.1845 261.818 59.6334 261.676 60.2776C261.534 60.9218 261.751 61.5174 262.161 61.6079C262.571 61.6984 263.018 61.2495 263.16 60.6052Z" fill="#2E186A"/>
<path d="M262.997 55.5237C263.031 55.3543 263.131 55.2052 263.275 55.1094C263.419 55.0136 263.595 54.9788 263.764 55.0127C264.68 55.1828 265.51 55.6611 266.117 56.3681C266.375 56.6688 266.59 57.0042 266.755 57.3644C266.83 57.5229 266.891 57.6875 266.938 57.8563C266.981 58.0205 266.958 58.1947 266.874 58.342C266.79 58.4894 266.652 58.5982 266.489 58.6455C266.326 58.6927 266.152 58.6746 266.002 58.595C265.852 58.5154 265.739 58.3807 265.687 58.2193L265.668 58.1511C265.64 58.0681 265.607 57.9868 265.57 57.9076C265.456 57.6578 265.307 57.4253 265.128 57.2167C264.711 56.7308 264.139 56.4036 263.508 56.2904C263.339 56.2565 263.19 56.1567 263.094 56.0129C262.998 55.8691 262.963 55.6931 262.997 55.5237V55.5237Z" fill="#2E186A"/>
<path d="M261.823 69.1355C261.862 69.1827 261.895 69.24 261.918 69.3042C261.941 69.3683 261.955 69.4381 261.958 69.5094C261.962 69.5808 261.955 69.6524 261.938 69.7201C261.921 69.7878 261.894 69.8503 261.86 69.9041C261.814 69.9723 261.765 70.0366 261.713 70.0965C261.596 70.2345 261.47 70.3578 261.336 70.4649C260.485 71.1499 259.409 71.237 258.177 70.3742C258.082 70.3079 258.011 70.1933 257.978 70.0557C257.946 69.918 257.955 69.7685 258.004 69.6401C258.053 69.5117 258.137 69.4149 258.239 69.371C258.34 69.327 258.45 69.3395 258.545 69.4058C259.523 70.0912 260.306 70.0277 260.926 69.5281C261.018 69.4547 261.105 69.3702 261.186 69.2755L261.219 69.2352L261.256 69.1855C261.291 69.1317 261.333 69.0877 261.38 69.0561C261.428 69.0244 261.479 69.0058 261.532 69.0011C261.584 68.9965 261.637 69.006 261.687 69.0291C261.737 69.0521 261.783 69.0883 261.823 69.1355V69.1355Z" fill="#2E186A"/>
<path d="M260.904 57.6445C261.005 57.5084 261.156 57.4171 261.323 57.3901C261.491 57.3631 261.662 57.4024 261.801 57.4999C261.94 57.5973 261.769 57.2695 261.801 57.4362C261.833 57.6029 261.798 57.7753 261.705 57.9169L261.683 57.9484L257.343 63.7645L258.895 64.8633C259.031 64.9593 259.125 65.1035 259.158 65.2665C259.19 65.4294 259.16 65.5987 259.072 65.7398L259.298 65.4774C259.202 65.6131 259.058 65.7069 258.895 65.7398C258.732 65.7726 258.563 65.7419 258.422 65.6541L258.39 65.6329L256.605 64.422C256.467 64.3244 256.372 64.177 256.341 64.011C256.31 63.845 256.344 63.6732 256.437 63.5321L256.459 63.5L260.904 57.6445Z" fill="#2E186A"/>
<path d="M187.375 11.2249C187.636 10.9913 187.912 10.7743 188.2 10.5749C187.841 8.8991 187.129 7.31899 186.111 5.93963C185.094 4.56028 183.795 3.41328 182.3 2.57491C172.8 -2.75009 161.525 4.82491 156.3 14.1749C156.237 14.2843 156.22 14.4143 156.253 14.5362C156.286 14.6581 156.366 14.7619 156.475 14.8249C156.584 14.8879 156.714 14.9048 156.836 14.872C156.958 14.8392 157.062 14.7593 157.125 14.6499C162 5.87491 172.75 -1.70009 181.85 3.39991C183.291 4.21587 184.534 5.34061 185.489 6.69347C186.444 8.04634 187.088 9.59381 187.375 11.2249V11.2249Z" fill="#FE7624"/>
<path d="M174.05 30.5L168.15 36.15C168.088 36.2162 168.046 36.2989 168.029 36.3883C168.012 36.4777 168.022 36.57 168.056 36.6542C168.09 36.7385 168.148 36.8111 168.222 36.8636C168.296 36.916 168.384 36.946 168.475 36.95C168.75 36.95 168.275 37.325 174.75 31.125C174.525 31 174.375 30.85 174.05 30.5Z" fill="#FE7624"/>
</svg>
