<svg viewBox="0 0 1098 712" fill="none" xmlns="http://www.w3.org/2000/svg">
<path d="M979.6 613.9C966.9 621 943.4 629.5 924 610.5C904 591 889.7 591.4 883 593.3C881.977 593.102 880.918 593.227 879.968 593.657C879.019 594.087 878.227 594.801 877.7 595.7L835.6 672.2C833.958 675.165 831.553 677.636 828.634 679.359C825.715 681.082 822.389 681.994 819 682H681.9C680.6 682 679.354 682.516 678.435 683.435C677.516 684.354 677 685.6 677 686.9C677 688.199 677.516 689.446 678.435 690.365C679.354 691.284 680.6 691.8 681.9 691.8H819C824.149 691.798 829.204 690.414 833.636 687.793C838.068 685.173 841.717 681.411 844.2 676.9L868.8 632.1C878 633.3 890.5 637.4 902.2 648.9C924.8 670.9 951.3 658.5 961 652.6C963.377 651.157 965.34 649.125 966.7 646.7L983.2 617.6C983.521 617.096 983.663 616.498 983.602 615.904C983.541 615.31 983.281 614.753 982.864 614.325C982.448 613.897 981.899 613.622 981.306 613.545C980.714 613.467 980.112 613.593 979.6 613.9V613.9Z" fill="#2E186A"/>
<path d="M299.2 525.4C299.059 525.095 298.857 524.822 298.606 524.599C298.355 524.377 298.06 524.208 297.741 524.105C297.422 524.001 297.084 523.965 296.75 523.999C296.416 524.033 296.092 524.135 295.8 524.3C295.4 524.5 291.2 527.1 272.9 536.2L264.5 540.3C224.6 559.5 165.7 583.9 141.8 573.8C141.33 573.592 140.806 573.539 140.303 573.647C139.8 573.754 139.344 574.018 139 574.4C138.9 574.5 130.3 583.8 111.5 592.6C94.2 600.7 64.4 609.9 20.9 607.8C20.5379 607.772 20.1744 607.828 19.8375 607.964C19.5007 608.1 19.1997 608.311 18.9578 608.582C18.716 608.853 18.5398 609.176 18.4431 609.526C18.3464 609.876 18.3316 610.243 18.4 610.6C18.5033 611.17 18.7969 611.688 19.2329 612.069C19.6688 612.451 20.2213 612.673 20.8 612.7C24.7 612.9 28.4 613 32.1 613L33.9 624.8C33.9876 625.373 34.2507 625.906 34.653 626.324C35.0554 626.742 35.5773 627.025 36.1471 627.135C36.7169 627.244 37.3067 627.175 37.8354 626.936C38.3641 626.697 38.8059 626.3 39.1 625.8L46.7 612.6C52 612.3 57.1 611.8 62 611.2L64.8 621.4C64.9607 621.95 65.2831 622.44 65.7253 622.805C66.1675 623.171 66.7092 623.395 67.2803 623.449C67.8514 623.503 68.4254 623.384 68.9282 623.108C69.4309 622.831 69.8392 622.411 70.1 621.9L76.1 609C80.2 608.2 84 607.3 87.6 606.4L89.9 614.9C90.0607 615.45 90.3831 615.94 90.8253 616.305C91.2675 616.671 91.8092 616.895 92.3803 616.949C92.9514 617.003 93.5254 616.884 94.0282 616.608C94.5309 616.331 94.9392 615.911 95.2 615.4L101.4 602.2C105.553 600.753 109.626 599.084 113.6 597.2L115.2 603.1C115.361 603.65 115.683 604.14 116.125 604.505C116.568 604.871 117.109 605.095 117.68 605.149C118.251 605.203 118.825 605.084 119.328 604.808C119.831 604.531 120.239 604.111 120.5 603.6L126.7 590.2C132.126 587.034 137.16 583.241 141.7 578.9C146.8 580.7 153 581.2 160 580.8L164.2 591.2C164.409 591.725 164.773 592.174 165.244 592.487C165.715 592.8 166.27 592.961 166.835 592.95C167.4 592.94 167.948 592.757 168.406 592.426C168.865 592.095 169.211 591.633 169.4 591.1L174 579C178.4 578.2 182.9 577.2 187.5 575.9L189.4 584C189.52 584.566 189.814 585.08 190.242 585.47C190.67 585.86 191.209 586.105 191.784 586.171C192.359 586.238 192.94 586.122 193.445 585.84C193.951 585.558 194.355 585.124 194.6 584.6L201.1 571.8C205.5 570.4 209.9 568.8 214.3 567.2L216 574.5C216.128 575.052 216.418 575.552 216.833 575.937C217.248 576.323 217.769 576.574 218.329 576.661C218.889 576.747 219.462 576.663 219.973 576.42C220.485 576.178 220.912 575.788 221.2 575.3L229 561.6C232.9 560 236.8 558.4 240.7 556.7L242.6 563.7C242.761 564.25 243.083 564.74 243.525 565.105C243.968 565.471 244.509 565.695 245.08 565.749C245.651 565.803 246.225 565.684 246.728 565.408C247.231 565.131 247.639 564.711 247.9 564.2L254.1 550.8C258.3 548.9 262.3 547 266.2 545.1L267.7 550.8C267.861 551.35 268.183 551.84 268.625 552.205C269.068 552.571 269.609 552.795 270.18 552.849C270.751 552.903 271.325 552.784 271.828 552.508C272.331 552.231 272.739 551.811 273 551.3L278.7 539.1C294.2 531.3 297.1 529.5 298.6 528.7C298.997 528.26 299.264 527.718 299.37 527.135C299.476 526.552 299.417 525.951 299.2 525.4V525.4Z" fill="#2E186A"/>
<path d="M418.3 490.1C417.83 489.892 417.306 489.839 416.803 489.947C416.3 490.054 415.844 490.318 415.5 490.7C415.4 490.8 406.8 500.1 388 508.9C370.7 517 340.9 526.2 297.4 524.1C297.038 524.072 296.674 524.128 296.338 524.264C296.001 524.399 295.7 524.611 295.458 524.882C295.216 525.153 295.04 525.476 294.943 525.826C294.846 526.176 294.832 526.543 294.9 526.9C295.003 527.47 295.297 527.988 295.733 528.369C296.169 528.751 296.721 528.973 297.3 529C301.2 529.2 304.9 529.3 308.6 529.3L310.3 540.9C310.392 541.496 310.667 542.049 311.088 542.482C311.508 542.915 312.052 543.206 312.645 543.316C313.238 543.426 313.851 543.348 314.398 543.095C314.946 542.841 315.401 542.423 315.7 541.9L323.1 528.9C328.4 528.6 333.5 528.1 338.4 527.5L341.1 537.5C341.257 538.067 341.583 538.573 342.034 538.95C342.486 539.328 343.041 539.559 343.627 539.613C344.213 539.668 344.802 539.542 345.315 539.254C345.828 538.966 346.242 538.528 346.5 538L352.4 525.3C356.5 524.5 360.3 523.6 363.9 522.7L367.1 532.3C367.29 532.873 367.653 533.374 368.139 533.732C368.625 534.09 369.211 534.288 369.815 534.299C370.418 534.31 371.011 534.133 371.51 533.793C372.009 533.453 372.39 532.966 372.6 532.4L377.7 518.5C381.853 517.053 385.926 515.384 389.9 513.5L391.4 519.2C391.557 519.767 391.883 520.273 392.334 520.65C392.786 521.028 393.341 521.259 393.927 521.313C394.513 521.368 395.102 521.242 395.615 520.954C396.128 520.666 396.542 520.228 396.8 519.7L402.9 506.6C408.326 503.434 413.36 499.641 417.9 495.3" fill="#2E186A"/>
<path d="M1055.4 546.1C1055.29 545.791 1055.12 545.508 1054.9 545.268C1054.67 545.028 1054.4 544.836 1054.1 544.705C1053.8 544.574 1053.48 544.505 1053.15 544.505C1052.83 544.504 1052.5 544.57 1052.2 544.7C1013.7 560.8 973.2 552.7 931.9 520.8C900.8 496.8 881 467.5 880.8 467.3C880.427 466.774 879.869 466.41 879.238 466.28C878.607 466.15 877.95 466.264 877.4 466.6C876.874 466.973 876.51 467.531 876.38 468.162C876.25 468.793 876.364 469.45 876.7 470C881.67 477.162 887.081 484.009 892.9 490.5L897.8 514C897.921 514.566 898.209 515.084 898.627 515.485C899.045 515.886 899.573 516.152 900.145 516.249C900.716 516.346 901.303 516.269 901.83 516.029C902.357 515.788 902.799 515.395 903.1 514.9L908 506.6C912.2 510.7 916.7 514.8 921.5 518.8L926.7 536.9C926.857 537.432 927.164 537.908 927.585 538.269C928.006 538.631 928.523 538.862 929.073 538.936C929.623 539.01 930.183 538.924 930.684 538.686C931.186 538.449 931.608 538.072 931.9 537.6L936.5 530.4C940.6 533.3 944.7 535.9 948.9 538.4L956.1 558.7C956.285 559.215 956.613 559.668 957.045 560.004C957.477 560.341 957.996 560.547 958.541 560.599C959.087 560.652 959.636 560.548 960.124 560.3C960.612 560.052 961.02 559.671 961.3 559.2L967.7 548C971.584 549.653 975.557 551.089 979.6 552.3L989 568.7C989.285 569.187 989.706 569.581 990.211 569.834C990.716 570.087 991.284 570.188 991.845 570.124C992.406 570.061 992.937 569.835 993.373 569.476C993.809 569.117 994.131 568.639 994.3 568.1L997.8 556.4C1002.87 557.114 1007.98 557.482 1013.1 557.5H1014.3L1024.4 570.7C1024.73 571.124 1025.17 571.449 1025.68 571.637C1026.18 571.825 1026.73 571.87 1027.26 571.767C1027.79 571.663 1028.27 571.415 1028.67 571.05C1029.07 570.685 1029.35 570.218 1029.5 569.7L1033.6 555.4C1040.52 553.992 1047.28 551.915 1053.8 549.2C1054.42 549 1054.94 548.562 1055.24 547.981C1055.54 547.4 1055.6 546.723 1055.4 546.1V546.1Z" fill="#2E186A"/>
<path d="M20.4 607.1C21.1652 607.1 21.9015 607.392 22.4583 607.917C23.015 608.442 23.3501 609.16 23.395 609.924L23.4 610.1V708.9C23.4008 709.681 23.097 710.431 22.5533 710.992C22.0095 711.552 21.2686 711.879 20.4881 711.901C19.7075 711.924 18.9487 711.642 18.3731 711.114C17.7974 710.587 17.4501 709.855 17.405 709.076L17.4 708.9V610.1C17.4 609.304 17.7161 608.541 18.2787 607.979C18.8413 607.416 19.6044 607.1 20.4 607.1V607.1Z" fill="#FE7624"/>
<path d="M140.7 573.1C141.465 573.1 142.202 573.392 142.758 573.917C143.315 574.442 143.65 575.16 143.695 575.924L143.7 576.1V707.3C143.701 708.081 143.397 708.831 142.853 709.392C142.309 709.952 141.569 710.279 140.788 710.301C140.007 710.324 139.249 710.042 138.673 709.514C138.097 708.987 137.75 708.255 137.705 707.476L137.7 707.3V576.1C137.7 575.304 138.016 574.541 138.579 573.979C139.141 573.416 139.904 573.1 140.7 573.1V573.1Z" fill="#FE7624"/>
<path d="M297.3 523.3C298.065 523.3 298.802 523.592 299.358 524.117C299.915 524.642 300.25 525.36 300.295 526.124L300.3 526.3V707.1C300.301 707.881 299.997 708.631 299.453 709.192C298.909 709.752 298.169 710.078 297.388 710.101C296.607 710.124 295.849 709.842 295.273 709.314C294.697 708.787 294.35 708.055 294.305 707.276L294.3 707.1V526.3C294.3 525.504 294.616 524.741 295.179 524.178C295.741 523.616 296.504 523.3 297.3 523.3V523.3Z" fill="#FE7624"/>
<path d="M1053.4 543.5C1054.17 543.5 1054.9 543.792 1055.46 544.317C1056.02 544.842 1056.35 545.56 1056.4 546.324L1056.4 546.5V708.9C1056.4 709.681 1056.1 710.431 1055.55 710.992C1055.01 711.552 1054.27 711.878 1053.49 711.901C1052.71 711.924 1051.95 711.642 1051.37 711.114C1050.8 710.587 1050.45 709.855 1050.41 709.076L1050.4 708.9V546.5C1050.4 545.704 1050.72 544.941 1051.28 544.378C1051.84 543.816 1052.6 543.5 1053.4 543.5V543.5Z" fill="#FE7624"/>
<path d="M869.4 454.599L507.4 456.999C504.688 456.934 502.008 457.606 499.648 458.945C497.288 460.283 495.336 462.237 494 464.599L377.2 677.099L80.4001 677.299C80.4001 677.299 75.3001 707.099 118 708.899L758 708.099L883 473.599C887.8 464.699 880.4 454.499 869.4 454.599Z" fill="#FE7624"/>
<path d="M414.4 676.199L720.1 674.899L814.7 490.599C818.4 483.499 813.5 474.899 805.9 474.999L528.1 478.399L414.4 676.199Z" fill="white"/>
<path d="M839.473 454.799C852.573 454.682 861.503 466.911 856.016 477.883L855.845 478.215L732.045 709.515C731.677 710.202 731.056 710.719 730.313 710.956C729.57 711.193 728.764 711.132 728.066 710.785C727.368 710.438 726.832 709.833 726.572 709.098C726.312 708.363 726.349 707.556 726.674 706.847L726.755 706.683L850.547 475.399C854.131 468.611 848.456 460.719 839.527 460.799C838.731 460.806 837.965 460.497 837.398 459.939C836.83 459.382 836.507 458.622 836.5 457.826C836.493 457.03 836.802 456.264 837.36 455.697C837.917 455.129 838.677 454.806 839.473 454.799V454.799Z" fill="white"/>
<path d="M430.7 548.9L464.2 610.5C464.557 611.122 465.11 611.609 465.771 611.887C466.433 612.164 467.168 612.215 467.862 612.033C468.556 611.851 469.171 611.446 469.612 610.879C470.052 610.313 470.294 609.617 470.3 608.9L468.1 580.9C468.1 580.9 487.7 648.3 514.6 650C541.5 651.7 567.3 579 567.3 579L560.2 609.5C560.196 610.223 560.432 610.926 560.872 611.499C561.312 612.073 561.93 612.484 562.629 612.667C563.328 612.85 564.068 612.796 564.733 612.512C565.398 612.228 565.949 611.732 566.3 611.1L602.1 548.9" fill="#2E186A"/>
<path d="M388.8 310.7C388.8 310.7 308.9 418.9 319.2 515.7H495.5V308.4L388.8 310.7Z" fill="#2E186A"/>
<path d="M640 310.7C640 310.7 719.9 418.9 709.6 515.7H533.3V308.4L640 310.7Z" fill="#2E186A"/>
<path d="M586.3 515.7C654 394 646.6 297.4 626.9 231.2C607.1 165 560.7 91.2 516.6 91.2C472.5 91.2 426.1 165 406.3 231.2C386.5 297.4 378.2 394 445.9 515.7L427 556.5H605.5L586.3 515.7V515.7Z" fill="white"/>
<path d="M605.501 559.5H427C426.496 559.5 426 559.373 425.558 559.131C425.116 558.889 424.743 558.539 424.471 558.115C424.2 557.69 424.04 557.204 424.006 556.701C423.973 556.198 424.066 555.695 424.278 555.238L442.538 515.82L441.412 513.774C433.941 500.114 427.183 486.316 421.326 472.763C415.633 459.624 410.604 446.207 406.257 432.563C402.142 419.613 398.725 406.451 396.021 393.135C393.437 380.358 391.571 367.447 390.432 354.461L390.299 352.882C389.424 342.236 389.057 331.516 389.207 321.021C389.355 310.721 390.007 300.314 391.143 290.091C392.256 280.083 393.869 269.932 395.943 259.922C397.963 250.151 400.482 240.199 403.43 230.341C413.804 195.657 430.75 160.761 449.922 134.602C460.822 119.731 471.993 108.209 483.122 100.357C494.561 92.29 505.825 88.2 516.601 88.2C527.377 88.2 538.64 92.29 550.074 100.357C561.208 108.209 572.379 119.73 583.274 134.602C602.447 160.762 619.393 195.658 629.767 230.345C632.68 240.134 635.167 250.045 637.145 259.805C639.174 269.791 640.745 279.936 641.814 289.959C642.905 300.19 643.509 310.615 643.607 320.945C643.707 331.468 643.286 342.219 642.355 352.9C641.203 365.993 639.316 379.011 636.703 391.893C633.966 405.332 630.51 418.614 626.349 431.682C621.951 445.464 616.865 459.017 611.11 472.29C605.187 485.984 598.354 499.93 590.801 513.739L589.659 515.812L608.207 555.225C608.42 555.668 608.519 556.158 608.495 556.649C608.471 557.141 608.324 557.618 608.069 558.039C607.819 558.46 607.469 558.813 607.051 559.068C606.633 559.322 606.158 559.47 605.669 559.498L605.501 559.5ZM516.601 94.2C506.937 94.2 496.658 98.053 486.05 105.651C475.611 113.128 465.083 124.061 454.759 138.151C435.974 163.775 419.36 198 409.174 232.06C397.148 272.269 392.93 311.63 396.274 352.392C400.618 405.278 418.195 459.732 448.518 514.242C448.747 514.655 448.876 515.117 448.893 515.59C448.91 516.062 448.816 516.532 448.618 516.961L431.695 553.5H600.774L583.588 516.977C583.4 516.578 583.302 516.142 583.302 515.701C583.302 515.26 583.4 514.824 583.588 514.425L583.682 514.242C614.057 459.642 631.791 405.179 636.391 352.377C640.011 311.85 635.813 271.004 624.026 232.06C613.84 198.005 597.226 163.776 578.443 138.149C568.118 124.062 557.59 113.129 547.151 105.649C536.543 98.053 526.265 94.2 516.601 94.2Z" fill="#2E186A"/>
<path d="M516.6 341.6C544.435 341.6 567 314.737 567 281.6C567 248.463 544.435 221.6 516.6 221.6C488.765 221.6 466.2 248.463 466.2 281.6C466.2 314.737 488.765 341.6 516.6 341.6Z" fill="#2E186A"/>
<path d="M516.6 368.6C521.239 368.6 525 364.123 525 358.6C525 353.077 521.239 348.6 516.6 348.6C511.961 348.6 508.2 353.077 508.2 358.6C508.2 364.123 511.961 368.6 516.6 368.6Z" fill="#2E186A"/>
<path d="M549 368.6C553.639 368.6 557.4 364.123 557.4 358.6C557.4 353.077 553.639 348.6 549 348.6C544.361 348.6 540.6 353.077 540.6 358.6C540.6 364.123 544.361 368.6 549 368.6Z" fill="#2E186A"/>
<path d="M481.7 368.6C486.339 368.6 490.1 364.123 490.1 358.6C490.1 353.077 486.339 348.6 481.7 348.6C477.061 348.6 473.3 353.077 473.3 358.6C473.3 364.123 477.061 368.6 481.7 368.6Z" fill="#2E186A"/>
<path d="M516.6 321C537.642 321 554.7 300.718 554.7 275.7C554.7 250.681 537.642 230.4 516.6 230.4C495.558 230.4 478.5 250.681 478.5 275.7C478.5 300.718 495.558 321 516.6 321Z" fill="white"/>
<path d="M516.6 324C511.026 324 505.529 322.695 500.549 320.19C495.535 317.657 491.091 314.126 487.491 309.814C483.664 305.265 480.69 300.063 478.712 294.457C474.429 282.319 474.429 269.081 478.712 256.943C480.69 251.337 483.664 246.134 487.491 241.585C491.091 237.273 495.535 233.742 500.549 231.21C505.528 228.705 511.025 227.4 516.599 227.4C522.173 227.4 527.67 228.705 532.649 231.21C537.664 233.743 542.108 237.273 545.709 241.586C549.535 246.135 552.509 251.338 554.487 256.944C558.77 269.082 558.77 282.32 554.487 294.458C552.509 300.063 549.535 305.266 545.709 309.815C542.109 314.127 537.665 317.657 532.651 320.19C527.671 322.695 522.174 324 516.6 324V324ZM516.6 233.4C497.246 233.4 481.5 252.376 481.5 275.7C481.5 299.024 497.246 318 516.6 318C535.954 318 551.7 299.025 551.7 275.7C551.7 252.375 535.955 233.4 516.6 233.4Z" fill="#2E186A"/>
<path d="M525.5 89.4999V17.8999C526.86 16.0048 527.594 13.7324 527.6 11.3999C527.6 8.48252 526.441 5.68463 524.378 3.62173C522.315 1.55883 519.517 0.399902 516.6 0.399902C513.683 0.399902 510.885 1.55883 508.822 3.62173C506.759 5.68463 505.6 8.48252 505.6 11.3999C505.606 13.7324 506.34 16.0048 507.7 17.8999V89.3999C489.2 93.1999 470.7 108.7 453.8 129.5C475.768 124.553 498.324 122.735 520.8 124.1C541.422 125.2 561.904 128.145 582 132.9C564.5 110.5 544.9 93.6999 525.5 89.4999Z" fill="#2E186A"/>
<path d="M598.7 169.7C576.6 162.3 551.2 155.8 517.1 154.5C482.3 153.2 455.9 161 434.2 169.5C424.882 186.66 417.15 204.634 411.1 223.2C437.1 210.5 469 197.1 517.9 198C564.4 198.8 596.4 209.1 620.7 219.9C614.804 202.573 607.444 185.779 598.7 169.7V169.7Z" fill="#2E186A"/>
<path d="M583.7 515.2C586.9 509.4 590 503.7 592.9 498C577.6 491.8 555.6 486.6 516.5 487C477 486.7 454.9 492 439.6 498.3C442.5 503.9 445.5 509.6 448.6 515.3C448.6 515.3 483.3 508.5 516.4 508.8C549 508.5 583.7 515.2 583.7 515.2Z" fill="#2E186A"/>
<path d="M768.1 674.9H610.9C610.9 674.9 588.3 654.6 598.7 638C609.1 621.4 636.4 617.4 645.3 634.2C645.3 634.2 649.2 602.1 682.1 604.6C715.1 607.1 712.5 641.4 712.5 641.4C712.5 641.4 754.2 611.9 753.1 658C753 657.9 755.6 674.9 768.1 674.9Z" fill="white"/>
<path d="M768.1 677.901H610.9C610.16 677.901 609.446 677.627 608.895 677.132C608.587 676.855 607.912 676.232 606.85 675.132L606.39 674.651C604.463 672.624 602.667 670.477 601.011 668.223C598.392 664.751 596.271 660.93 594.711 656.871C593.33 653.278 592.763 649.423 593.051 645.584C593.344 642.322 594.41 639.176 596.161 636.408C599.364 631.371 603.846 627.273 609.15 624.534C614.214 621.859 619.85 620.446 625.577 620.416C628.91 620.392 632.222 620.944 635.367 622.046C638.433 623.118 641.241 624.821 643.607 627.046L643.875 627.307L644.101 626.623C645.066 623.763 646.326 621.011 647.861 618.411L648.261 617.751C651.241 612.781 655.45 608.662 660.483 605.79C666.003 602.824 672.196 601.332 678.461 601.459C679.718 601.459 681.019 601.509 682.328 601.609L682.861 601.652C690.061 602.273 696.224 604.377 701.178 607.904C706.015 611.418 709.772 616.214 712.025 621.752C713.641 625.614 714.706 629.685 715.187 633.844C715.277 634.585 715.351 635.314 715.406 636.011V636.057L716.039 635.701C716.791 635.282 717.571 634.865 718.358 634.464L719.158 634.064C723.3 631.93 727.728 630.401 732.304 629.524C733.886 629.246 735.489 629.102 737.095 629.094C742.195 629.094 746.352 630.707 749.467 633.888C754.108 638.629 756.341 646.699 756.103 657.873L756.119 657.973L756.199 658.39C756.287 658.823 756.405 659.318 756.54 659.823C757.018 661.627 757.688 663.374 758.54 665.034C760.94 669.657 764.068 671.904 768.103 671.904L768.303 671.909C769.066 671.955 769.782 672.291 770.306 672.847C770.83 673.404 771.121 674.139 771.121 674.903C771.121 675.668 770.83 676.403 770.306 676.959C769.782 677.516 769.066 677.852 768.303 677.898L768.103 677.903L768.1 677.901ZM625.499 626.432C620.682 626.447 615.945 627.658 611.711 629.955C607.478 632.252 603.881 635.563 601.242 639.593C599.989 641.559 599.229 643.799 599.027 646.122C598.535 651.582 600.827 657.822 605.852 664.676C607.358 666.725 608.991 668.678 610.743 670.521C611.097 670.895 611.457 671.264 611.843 671.649L612.097 671.899H755.873L755.5 671.427C754.711 670.388 754.006 669.288 753.393 668.137L753.213 667.795C752.163 665.751 751.336 663.599 750.747 661.378C750.547 660.649 750.381 659.914 750.256 659.254L750.222 659.069C750.19 658.892 750.164 658.73 750.145 658.588L750.124 658.43L750.104 658.207V657.852V657.752L750.12 656.832C750.2 647.832 748.539 641.55 745.184 638.161L744.997 637.977C742.813 635.994 739.931 634.959 736.984 635.099C735.755 635.107 734.528 635.219 733.318 635.433C729.313 636.214 725.441 637.563 721.818 639.439C719.951 640.362 718.097 641.39 716.309 642.496C715.975 642.703 715.644 642.912 715.324 643.118L714.624 643.577L714.09 643.94C713.617 644.241 713.069 644.402 712.508 644.404C712.09 644.402 711.677 644.315 711.294 644.146C710.911 643.978 710.567 643.733 710.283 643.426C710.004 643.125 709.79 642.768 709.656 642.38C709.523 641.991 709.471 641.579 709.506 641.17L709.519 640.923L709.535 640.484C709.578 638.507 709.474 636.53 709.225 634.568C708.812 630.968 707.894 627.445 706.5 624.101C702.161 613.92 694.103 608.518 681.872 607.592C680.708 607.503 679.561 607.459 678.448 607.459C667.327 607.459 658.886 611.984 653.361 620.911C651.551 623.863 650.155 627.05 649.213 630.383C648.904 631.457 648.651 632.502 648.462 633.491C648.385 633.891 648.339 634.169 648.313 634.332L648.255 634.739C648.134 635.437 647.768 636.069 647.223 636.521C646.677 636.973 645.988 637.215 645.279 637.204C644.736 637.206 644.203 637.058 643.739 636.775C643.275 636.493 642.899 636.087 642.652 635.604L642.424 635.189C639.261 629.624 633.097 626.431 625.499 626.432Z" fill="#2E186A"/>
<path d="M267.6 675.2H424.8C424.8 675.2 447.4 654.9 437 638.3C426.6 621.7 399.3 617.7 390.4 634.5C390.4 634.5 386.5 602.4 353.6 604.9C320.6 607.4 323.2 641.7 323.2 641.7C323.2 641.7 281.5 612.2 282.6 658.3C282.7 658.2 280.1 675.1 267.6 675.2Z" fill="white"/>
<path d="M424.8 678.201H267.6C266.804 678.204 266.04 677.891 265.475 677.33C264.911 676.77 264.592 676.008 264.589 675.212C264.585 674.417 264.899 673.652 265.459 673.088C266.02 672.523 266.781 672.204 267.577 672.201L267.888 672.194C271.688 672.051 274.67 669.9 276.988 665.617L277.161 665.291C278.012 663.638 278.683 661.899 279.161 660.103C279.32 659.514 279.455 658.937 279.551 658.435L279.6 658.169L279.592 657.709C279.425 646.747 281.673 638.821 286.273 634.151C289.384 630.993 293.534 629.391 298.61 629.391C300.064 629.397 301.515 629.516 302.951 629.747L303.401 629.821C307.976 630.698 312.401 632.226 316.542 634.359C317.582 634.873 318.632 635.425 319.661 635.998L320.293 636.354L320.342 635.781C320.377 635.397 320.413 635.042 320.452 634.697L320.517 634.142C320.998 629.983 322.063 625.912 323.679 622.05C325.958 616.446 329.78 611.602 334.7 608.082C339.744 604.543 346.027 602.466 353.373 601.909L353.924 601.869C355.043 601.796 356.158 601.759 357.239 601.759C363.504 601.632 369.697 603.124 375.217 606.09C380.252 608.962 384.462 613.081 387.443 618.052C389.161 620.843 390.555 623.82 391.6 626.926L391.826 627.61L392.095 627.349C394.462 625.124 397.269 623.421 400.335 622.349C403.48 621.247 406.792 620.695 410.124 620.718C415.743 620.748 421.274 622.108 426.266 624.687C431.487 627.327 435.936 631.274 439.18 636.143L439.542 636.708C441.292 639.476 442.357 642.622 442.649 645.884C442.937 649.723 442.37 653.578 440.989 657.171C439.429 661.23 437.309 665.051 434.689 668.523C433.034 670.777 431.238 672.925 429.311 674.952C428.188 676.135 427.411 676.873 427.051 677.208L426.805 677.432C426.255 677.928 425.541 678.202 424.8 678.201V678.201ZM298.717 635.402C295.769 635.261 292.885 636.295 290.7 638.279C287.219 641.619 285.5 647.963 285.576 657.133L285.59 658.045L285.596 658.165V658.509L285.575 658.732L285.555 658.89C285.542 658.979 285.526 659.084 285.507 659.196L285.442 659.554C285.319 660.2 285.149 660.931 284.951 661.668C284.361 663.88 283.534 666.023 282.486 668.059C281.737 669.516 280.842 670.893 279.814 672.169L279.791 672.197H423.6C423.77 672.031 423.944 671.858 424.117 671.682L424.668 671.118L424.955 670.818C426.707 668.975 428.34 667.022 429.846 664.973C434.866 658.121 437.162 651.878 436.671 646.419C436.469 644.096 435.709 641.856 434.456 639.89C431.818 635.861 428.22 632.549 423.987 630.253C419.753 627.956 415.016 626.747 410.2 626.732C402.39 626.732 396.139 630.075 393.05 635.905L392.963 636.06C392.705 636.504 392.334 636.871 391.888 637.125C391.442 637.378 390.936 637.509 390.423 637.503C389.685 637.512 388.97 637.246 388.416 636.759C387.862 636.271 387.508 635.595 387.423 634.862L387.374 634.525L387.243 633.791C387.053 632.802 386.8 631.757 386.492 630.683C385.55 627.35 384.154 624.163 382.344 621.211C376.814 612.284 368.372 607.759 357.251 607.759C356.143 607.759 354.991 607.804 353.827 607.892L353.304 607.935C341.362 608.978 333.476 614.366 329.2 624.405C327.806 627.749 326.888 631.272 326.475 634.872C326.208 636.944 326.108 639.035 326.175 641.123L326.201 641.64C326.213 642.035 326.144 642.429 326 642.798C325.856 643.166 325.639 643.502 325.362 643.785C325.079 644.075 324.742 644.305 324.369 644.463C323.996 644.621 323.596 644.704 323.191 644.706C322.573 644.703 321.971 644.508 321.469 644.148L321.075 643.879L320.375 643.42L320.301 643.372L320.064 643.22L319.391 642.798C317.608 641.698 315.755 640.666 313.883 639.741C310.26 637.865 306.388 636.516 302.383 635.735C301.173 635.521 299.946 635.41 298.717 635.402V635.402Z" fill="#2E186A"/>
<path d="M1095.36 706C1096.04 705.999 1096.7 706.303 1097.2 706.847C1097.69 707.391 1097.98 708.131 1098 708.912C1098.02 709.693 1097.77 710.451 1097.31 711.027C1096.84 711.603 1096.2 711.95 1095.51 711.995L1095.36 712H2.64407C1.95648 712.001 1.29573 711.697 0.80221 711.153C0.308695 710.609 0.0213164 709.869 0.00113882 709.088C-0.0190387 708.307 0.229575 707.549 0.694153 706.973C1.15873 706.397 1.80266 706.05 2.4891 706.005L2.64407 706H1095.36Z" fill="#2E186A"/>
</svg>
