<svg width="476" height="426" viewBox="0 0 476 426" fill="none" xmlns="http://www.w3.org/2000/svg">
<path d="M92.695 290.445C76.1906 255.361 73.0253 215.469 83.7904 178.221C94.5556 140.974 118.515 108.92 151.19 88.0507C183.866 67.181 223.023 58.923 261.344 64.8197C299.665 70.7165 334.528 90.3646 359.418 120.093C359.498 120.188 359.537 120.311 359.526 120.436C359.515 120.56 359.456 120.675 359.36 120.755C359.265 120.835 359.141 120.874 359.017 120.863C358.893 120.853 358.778 120.793 358.698 120.698C333.945 91.1696 299.292 71.6599 261.209 65.8111C223.125 59.9622 184.214 68.1742 151.742 88.9135C119.27 109.653 95.4558 141.502 84.7465 178.514C74.0372 215.526 77.1647 255.17 93.545 290.045C93.593 290.157 93.5956 290.283 93.5523 290.397C93.5091 290.511 93.4233 290.603 93.3131 290.655C93.2029 290.707 93.0769 290.714 92.9616 290.675C92.8463 290.636 92.7508 290.553 92.695 290.445Z" fill="#FE7624"/>
<path d="M326.402 19.9625C327.807 29.0132 330.015 37.9209 333 46.58C341.107 70.205 358.175 97.33 368.462 122.502C368.519 122.66 368.513 122.834 368.446 122.988C368.379 123.141 368.256 123.264 368.102 123.329C367.947 123.395 367.774 123.399 367.616 123.341C367.459 123.284 367.33 123.168 367.255 123.017C360.005 107.12 349.28 89.4075 340.8 73.685C333.746 61.3794 328.126 48.3057 324.05 34.72C322.678 30.1332 321.556 25.4755 320.687 20.7675C320.626 20.388 320.641 20.0001 320.732 19.6266C320.823 19.253 320.987 18.9013 321.215 18.592C321.443 18.2826 321.731 18.022 322.061 17.8252C322.391 17.6284 322.757 17.4994 323.138 17.4459C323.519 17.3924 323.906 17.4153 324.278 17.5133C324.65 17.6114 324.998 17.7826 325.303 18.017C325.607 18.2513 325.862 18.5441 326.052 18.8781C326.242 19.2122 326.364 19.5808 326.41 19.9625H326.402Z" fill="#FE7624"/>
<path d="M280.852 218.668C280.3 212.31 278.368 206.15 275.192 200.616C272.015 195.082 267.669 190.307 262.457 186.625C262.356 186.555 262.23 186.529 262.109 186.551C261.988 186.573 261.88 186.641 261.809 186.742C261.737 186.843 261.709 186.967 261.729 187.089C261.748 187.211 261.815 187.32 261.915 187.393L262.202 187.598C262.347 193.25 262.63 203.965 262.98 211.488C267.803 210.201 272.643 208.977 277.5 207.815C280.894 217.135 280.963 227.342 277.693 236.706C274.423 246.071 268.016 254.017 259.558 259.198C251.1 264.379 241.111 266.477 231.283 265.136C221.455 263.795 212.393 259.098 205.632 251.84C201.155 238.463 204.797 222.633 210.495 216.25L205.055 193.8L205.27 193.55C205.35 193.457 205.391 193.337 205.384 193.214C205.377 193.092 205.322 192.977 205.231 192.895C205.14 192.812 205.021 192.768 204.898 192.772C204.776 192.777 204.66 192.829 204.575 192.918C199.661 198.317 196.171 204.856 194.419 211.944C192.666 219.031 192.707 226.443 194.538 233.511C196.369 240.578 199.932 247.078 204.905 252.423C209.878 257.768 216.104 261.79 223.022 264.125C229.939 266.46 237.329 267.035 244.524 265.798C251.719 264.56 258.492 261.55 264.232 257.038C269.972 252.526 274.497 246.656 277.399 239.957C280.301 233.257 281.488 225.941 280.852 218.668V218.668Z" fill="#FE7624"/>
<path d="M95.89 296.85C95.8408 296.741 95.835 296.617 95.8739 296.504C95.9128 296.391 95.9934 296.297 96.0992 296.241C96.2051 296.185 96.3283 296.172 96.4436 296.204C96.559 296.235 96.6578 296.31 96.72 296.412C106.7 315.348 120.409 332.069 137.02 345.568C153.631 359.067 172.802 369.066 193.379 374.963C213.955 380.859 235.512 382.532 256.752 379.88C277.992 377.227 298.475 370.305 316.97 359.53C317.078 359.467 317.206 359.449 317.327 359.481C317.448 359.513 317.551 359.591 317.614 359.699C317.677 359.806 317.694 359.935 317.663 360.056C317.631 360.176 317.553 360.279 317.445 360.342C298.84 371.181 278.235 378.143 256.87 380.81C235.504 383.477 213.82 381.795 193.122 375.863C172.424 369.931 153.14 359.874 136.43 346.295C119.72 332.716 105.93 315.897 95.89 296.85V296.85Z" fill="#FE7624"/>
<path d="M237 324.25C221.283 324.213 205.789 320.54 191.727 313.519C177.666 306.498 165.419 296.319 155.946 283.779C146.472 271.239 140.028 256.677 137.117 241.232C134.206 225.787 134.908 209.878 139.168 194.75C139.205 194.635 139.286 194.539 139.392 194.482C139.499 194.426 139.623 194.412 139.739 194.444C139.855 194.476 139.955 194.552 140.017 194.655C140.079 194.759 140.099 194.882 140.073 195C135.472 211.263 135.033 228.421 138.798 244.897C142.563 261.374 150.411 276.639 161.619 289.289C172.827 301.939 187.036 311.568 202.938 317.291C218.841 323.013 235.928 324.645 252.626 322.036C269.325 319.428 285.099 312.662 298.499 302.363C311.899 292.063 322.494 278.559 329.31 263.093C336.126 247.627 338.944 230.696 337.504 213.857C336.065 197.017 330.414 180.81 321.073 166.725C321.008 166.621 320.987 166.496 321.013 166.377C321.039 166.258 321.11 166.153 321.212 166.086C321.314 166.018 321.438 165.993 321.558 166.015C321.678 166.037 321.784 166.105 321.855 166.205C332.035 181.542 337.865 199.353 338.723 217.741C339.582 236.129 335.436 254.405 326.728 270.623C318.021 286.842 305.077 300.394 289.276 309.838C273.475 319.282 255.408 324.262 237 324.25V324.25Z" fill="#FE7624"/>
<path d="M293.678 139C277.994 128.454 259.685 122.481 240.8 121.75C240.738 121.748 240.678 121.734 240.621 121.708C240.565 121.683 240.515 121.646 240.472 121.601C240.43 121.556 240.397 121.503 240.376 121.445C240.354 121.387 240.344 121.326 240.346 121.264C240.348 121.202 240.363 121.141 240.388 121.085C240.414 121.029 240.45 120.978 240.495 120.936C240.541 120.894 240.594 120.861 240.651 120.84C240.709 120.818 240.771 120.808 240.832 120.81C259.808 121.49 278.211 127.489 293.943 138.123C294.035 138.175 294.107 138.258 294.147 138.357C294.186 138.456 294.191 138.565 294.16 138.667C294.129 138.769 294.065 138.858 293.977 138.918C293.889 138.979 293.784 139.008 293.678 139Z" fill="#FE7624"/>
<path d="M171.33 145.94C171.234 145.94 171.14 145.911 171.06 145.857C170.981 145.802 170.921 145.724 170.887 145.634C170.854 145.543 170.849 145.445 170.873 145.352C170.897 145.258 170.949 145.175 171.023 145.112C182.606 135.227 196.258 128.064 210.975 124.15C211.096 124.117 211.225 124.133 211.333 124.195C211.442 124.257 211.522 124.359 211.555 124.48C211.588 124.601 211.572 124.729 211.51 124.838C211.448 124.947 211.346 125.027 211.225 125.06C196.567 129.037 182.952 136.163 171.33 145.94V145.94Z" fill="#FE7624"/>
<path d="M326 198.422C304.767 201.608 283.727 205.974 262.98 211.5L262.855 208.792L210.535 216.415L210.5 216.25C203.58 224 199.69 245.69 209.692 260C214.279 266.401 221.163 270.78 228.905 272.22C251.01 277.303 288.655 264.16 307.54 256.773C306.515 274.655 305.68 298.593 304.19 325.023C317.281 330.007 331.573 330.916 345.19 327.63C349.245 295.665 353.25 259.63 354.602 224.09C354.75 220.422 354.086 216.767 352.658 213.385C351.23 210.003 349.073 206.978 346.341 204.526C343.608 202.074 340.369 200.256 336.852 199.201C333.336 198.146 329.631 197.88 326 198.422V198.422Z" fill="#18216D"/>
<path d="M256.412 278.917L243.32 330.402C242.395 334.065 240.706 337.491 238.364 340.455C236.022 343.419 233.08 345.854 229.731 347.601C226.381 349.348 222.7 350.367 218.929 350.591C215.159 350.815 211.383 350.24 207.85 348.902L133.177 320.625C134.047 303.412 137.995 290.335 150.005 278.037L202.61 296.062L209.688 260C214.274 266.401 221.158 270.779 228.9 272.22L256.412 278.917Z" fill="#18216D"/>
<path d="M373.945 153C372.465 178.907 363.975 214.845 361.148 238.602C360.023 247.905 360.434 257.329 362.365 266.497C362.445 266.807 362.463 267.128 362.418 267.444C362.374 267.761 362.267 268.065 362.105 268.34C361.943 268.615 361.728 268.855 361.473 269.047C361.218 269.239 360.928 269.379 360.619 269.459C360.31 269.539 359.988 269.557 359.672 269.512C359.356 269.467 359.052 269.361 358.777 269.199C358.502 269.037 358.261 268.822 358.069 268.567C357.877 268.312 357.737 268.022 357.658 267.712C355.867 257.937 355.714 247.933 357.205 238.107C360.768 214.357 370.375 178.555 372.635 152.905C372.655 152.737 372.74 152.584 372.87 152.477C373 152.369 373.167 152.316 373.335 152.329C373.504 152.341 373.661 152.417 373.774 152.542C373.888 152.667 373.949 152.831 373.945 153Z" fill="#FE7624"/>
<path d="M165.202 146.77L115.727 110.333L101.67 68.1876C101.582 67.9251 105.12 70.6526 31.8475 15.8601C31.7673 15.8001 31.6701 15.7673 31.5699 15.7664C31.4698 15.7655 31.372 15.7966 31.2908 15.8552C31.2096 15.9138 31.1492 15.9968 31.1185 16.0922C31.0878 16.1875 31.0883 16.2901 31.12 16.3851L45 58.0001L0.999998 56.6226C0.899845 56.6193 0.801268 56.6481 0.718653 56.7049C0.636039 56.7616 0.573712 56.8432 0.54077 56.9378C0.507829 57.0325 0.505996 57.1352 0.535541 57.2309C0.565085 57.3267 0.624459 57.4105 0.704998 57.4701C73.4225 111.36 70.585 109.35 70.8375 109.358L115.165 111.085L164.645 147.528C164.745 147.602 164.871 147.633 164.994 147.614C165.118 147.595 165.229 147.528 165.302 147.428C165.376 147.327 165.407 147.201 165.389 147.078C165.37 146.955 165.303 146.844 165.202 146.77V146.77ZM25.6375 74.7901L68.25 76.0001L90.715 92.8026L48.045 91.4001L25.6375 74.7901ZM77.8375 51.4326L91.265 92.0351L69.015 75.3826L55.4175 34.6651L77.8375 51.4326ZM54.0875 33.6826L67.67 74.4026L46.06 58.2401L32.5 17.5126L54.0875 33.6826ZM49.3625 92.3726L92.02 93.7751L113.837 110.093L71.0175 108.425L49.3625 92.3726Z" fill="#FE7624"/>
<path d="M294.985 409.66L281.775 410.798L280.64 397.59C280.629 397.466 280.57 397.351 280.474 397.27C280.379 397.19 280.255 397.151 280.131 397.161C280.007 397.172 279.892 397.232 279.811 397.327C279.731 397.422 279.692 397.546 279.702 397.67L280.84 410.878L267.632 412.015C267.513 412.027 267.403 412.085 267.325 412.175C267.246 412.266 267.206 412.383 267.211 412.503C267.216 412.622 267.266 412.736 267.352 412.819C267.438 412.903 267.553 412.951 267.672 412.953L280.922 411.815L282.06 425.023C282.071 425.147 282.13 425.262 282.225 425.342C282.321 425.423 282.444 425.462 282.569 425.451C282.693 425.441 282.808 425.381 282.888 425.286C282.969 425.19 283.008 425.067 282.997 424.943L281.86 411.735L295.067 410.598C295.192 410.587 295.307 410.527 295.387 410.431C295.467 410.335 295.506 410.212 295.495 410.088C295.484 409.963 295.424 409.848 295.328 409.768C295.233 409.688 295.109 409.649 294.985 409.66V409.66Z" fill="#FE7624"/>
<path d="M30.105 203.985C28.9005 203.981 27.7147 203.688 26.6477 203.129C25.5807 202.57 24.664 201.763 23.9751 200.775C23.2862 199.787 22.8454 198.647 22.6899 197.453C22.5345 196.259 22.669 195.044 23.0821 193.913C23.4951 192.782 24.1746 191.766 25.063 190.953C25.9515 190.14 27.0227 189.552 28.1861 189.241C29.3495 188.929 30.5709 188.902 31.747 189.162C32.923 189.422 34.0191 189.962 34.9425 190.735C36.1244 191.725 36.9727 193.055 37.3717 194.544C37.7707 196.033 37.7011 197.609 37.1723 199.057C36.6436 200.505 35.6815 201.755 34.4169 202.637C33.1523 203.519 31.6467 203.99 30.105 203.985V203.985ZM30.13 189.915C28.8069 189.912 27.5139 190.31 26.4205 191.055C25.327 191.8 24.4842 192.857 24.0025 194.09C23.5207 195.322 23.4226 196.671 23.7209 197.96C24.0192 199.249 24.7 200.418 25.6741 201.313C26.6482 202.209 27.8701 202.789 29.1797 202.978C30.4892 203.167 31.8253 202.955 33.0127 202.372C34.2001 201.788 35.1835 200.859 35.8339 199.707C36.4843 198.555 36.7714 197.233 36.6575 195.915C36.5146 194.281 35.7656 192.759 34.5578 191.649C33.35 190.538 31.7706 189.92 30.13 189.915Z" fill="#FE7624"/>
<path d="M182.335 19.5649C181.665 18.8524 179.655 16.4349 172.802 8.37493C172.724 8.27979 172.686 8.15772 172.697 8.03498C172.708 7.91224 172.767 7.79865 172.86 7.71868C172.954 7.63871 173.075 7.59875 173.198 7.6074C173.321 7.61605 173.436 7.67262 173.517 7.76493L182.657 18.5149L190.825 0.82493C190.877 0.71155 190.973 0.623622 191.09 0.580489C191.207 0.537356 191.337 0.54255 191.45 0.59493C191.563 0.64731 191.651 0.742586 191.694 0.859796C191.738 0.977007 191.732 1.10655 191.68 1.21993C185.54 14.5124 183.83 18.3524 183.24 19.4424C183 19.8649 182.837 20.1024 182.335 19.5649Z" fill="#FE7624"/>
<path d="M475 206.735L465.4 207.573C463.131 207.763 460.878 207.049 459.133 205.586C457.389 204.122 456.294 202.028 456.087 199.76C455.255 190.318 455.352 190.15 455.145 189.9C455.081 189.822 454.995 189.767 454.897 189.742C454.8 189.717 454.697 189.724 454.604 189.761C454.511 189.799 454.432 189.866 454.38 189.952C454.327 190.037 454.304 190.137 454.312 190.238L455.15 199.838C455.248 200.962 455.124 202.095 454.784 203.172C454.444 204.249 453.896 205.248 453.17 206.113C452.444 206.978 451.555 207.691 450.553 208.212C449.552 208.733 448.457 209.052 447.332 209.15L437.732 209.988C437.671 209.99 437.61 210.005 437.554 210.031C437.498 210.057 437.448 210.094 437.406 210.139C437.364 210.185 437.332 210.238 437.311 210.296C437.289 210.354 437.28 210.416 437.282 210.478C437.285 210.539 437.3 210.6 437.326 210.656C437.352 210.712 437.389 210.762 437.434 210.804C437.48 210.846 437.533 210.878 437.591 210.899C437.649 210.921 437.711 210.93 437.772 210.928L447.412 210.088C448.537 209.989 449.671 210.113 450.748 210.453C451.825 210.792 452.824 211.341 453.689 212.067C454.554 212.793 455.268 213.682 455.789 214.684C456.31 215.685 456.629 216.78 456.727 217.905L457.565 227.505C457.576 227.629 457.635 227.744 457.73 227.825C457.826 227.905 457.949 227.944 458.074 227.934C458.198 227.923 458.313 227.864 458.393 227.768C458.474 227.673 458.513 227.549 458.502 227.425L457.665 217.825C457.471 215.554 458.184 213.299 459.649 211.554C461.113 209.808 463.21 208.713 465.48 208.51L475.082 207.673C475.144 207.667 475.204 207.65 475.259 207.621C475.313 207.592 475.362 207.553 475.402 207.506C475.441 207.459 475.471 207.404 475.49 207.345C475.509 207.286 475.515 207.224 475.51 207.163C475.504 207.101 475.487 207.041 475.458 206.986C475.43 206.931 475.391 206.883 475.343 206.843C475.296 206.803 475.241 206.773 475.182 206.755C475.124 206.736 475.061 206.73 475 206.735V206.735ZM456.94 214.913C456.35 213.534 455.445 212.314 454.297 211.35C453.15 210.385 451.792 209.704 450.332 209.36C451.709 208.768 452.928 207.862 453.892 206.714C454.855 205.566 455.536 204.209 455.88 202.75C456.471 204.128 457.378 205.348 458.527 206.312C459.676 207.276 461.035 207.957 462.495 208.3C461.114 208.889 459.891 209.794 458.924 210.943C457.957 212.092 457.274 213.451 456.93 214.913H456.94Z" fill="#FE7624"/>
<path d="M231.9 242.058C229.846 240.147 228.561 237.552 228.287 234.76C228.279 234.638 228.319 234.518 228.398 234.425C228.476 234.331 228.589 234.272 228.71 234.26C228.832 234.248 228.953 234.284 229.049 234.36C229.144 234.436 229.207 234.546 229.222 234.668C229.475 237.231 230.655 239.614 232.54 241.37C232.626 241.456 232.675 241.572 232.676 241.694C232.678 241.815 232.633 241.933 232.551 242.022C232.468 242.111 232.354 242.164 232.233 242.171C232.111 242.177 231.992 242.137 231.9 242.058Z" fill="#18216D"/>
<path d="M270.405 238.5L262.562 240C262.446 240.021 262.342 240.085 262.271 240.179C262.2 240.273 262.167 240.39 262.178 240.508C262.189 240.625 262.244 240.734 262.332 240.813C262.42 240.891 262.534 240.934 262.652 240.932C262.902 240.932 265.282 240.432 270.582 239.415C270.691 239.379 270.782 239.305 270.84 239.206C270.897 239.108 270.917 238.992 270.895 238.88C270.873 238.768 270.812 238.667 270.722 238.597C270.631 238.528 270.519 238.493 270.405 238.5Z" fill="#18216D"/>
<path d="M249.59 242.5L241.748 244C241.632 244.021 241.528 244.084 241.457 244.178C241.386 244.272 241.352 244.389 241.363 244.506C241.374 244.624 241.429 244.732 241.516 244.811C241.603 244.89 241.717 244.933 241.835 244.932C242.085 244.932 244.47 244.432 249.768 243.415C249.876 243.379 249.967 243.305 250.025 243.206C250.082 243.108 250.102 242.992 250.08 242.88C250.059 242.768 249.997 242.667 249.907 242.597C249.816 242.528 249.704 242.493 249.59 242.5V242.5Z" fill="#18216D"/>
<path d="M312.035 230.5L304.193 232C304.077 232.021 303.973 232.084 303.902 232.178C303.831 232.272 303.797 232.389 303.808 232.506C303.819 232.624 303.874 232.732 303.961 232.811C304.049 232.89 304.162 232.933 304.28 232.932C304.53 232.932 306.913 232.432 312.213 231.415C312.321 231.379 312.412 231.305 312.47 231.206C312.527 231.108 312.547 230.992 312.525 230.88C312.504 230.768 312.442 230.667 312.352 230.597C312.262 230.528 312.149 230.493 312.035 230.5Z" fill="#18216D"/>
<path d="M291.22 234.5L283.378 236C283.264 236.024 283.164 236.088 283.095 236.181C283.027 236.274 282.995 236.389 283.006 236.504C283.017 236.619 283.069 236.726 283.154 236.805C283.239 236.883 283.35 236.928 283.465 236.93C283.715 236.93 286.098 236.43 291.398 235.412C291.504 235.375 291.593 235.3 291.649 235.203C291.704 235.105 291.723 234.99 291.702 234.88C291.68 234.769 291.62 234.67 291.531 234.6C291.443 234.531 291.333 234.495 291.22 234.5V234.5Z" fill="#18216D"/>
<path d="M324.165 231.917C321.859 230.608 319.172 230.135 316.557 230.58C316.437 230.599 316.314 230.57 316.215 230.5C316.115 230.43 316.046 230.324 316.023 230.204C316 230.085 316.025 229.961 316.091 229.859C316.158 229.757 316.261 229.685 316.38 229.657C319.134 229.127 321.988 229.619 324.405 231.042C324.494 231.095 324.563 231.175 324.602 231.271C324.641 231.366 324.647 231.472 324.62 231.572C324.592 231.671 324.533 231.759 324.451 231.822C324.369 231.884 324.268 231.918 324.165 231.917Z" fill="#18216D"/>
<path d="M223.957 310.675C223.391 313.202 222.104 315.51 220.252 317.32C220.171 317.408 220.126 317.525 220.127 317.645C220.129 317.766 220.176 317.881 220.261 317.967C220.345 318.054 220.459 318.104 220.579 318.109C220.699 318.114 220.817 318.072 220.907 317.992C222.891 316.056 224.269 313.585 224.875 310.88C224.888 310.82 224.89 310.757 224.879 310.697C224.869 310.636 224.846 310.578 224.813 310.526C224.746 310.42 224.64 310.346 224.519 310.319C224.397 310.292 224.27 310.314 224.164 310.381C224.059 310.447 223.985 310.553 223.957 310.675Z" fill="#18216D"/>
<path d="M146.15 301.545L138.53 299.158C138.413 299.128 138.29 299.145 138.185 299.204C138.08 299.263 138.001 299.36 137.965 299.475C137.929 299.589 137.938 299.714 137.991 299.822C138.043 299.93 138.135 300.015 138.248 300.058C144.795 302.11 145.748 302.465 146.01 302.465C146.123 302.466 146.233 302.426 146.319 302.353C146.405 302.28 146.462 302.178 146.479 302.066C146.496 301.954 146.472 301.84 146.412 301.744C146.351 301.648 146.258 301.578 146.15 301.545Z" fill="#18216D"/>
<path d="M166.38 307.878L158.75 305.5C158.631 305.463 158.502 305.475 158.392 305.533C158.281 305.59 158.198 305.69 158.161 305.809C158.124 305.928 158.136 306.057 158.194 306.167C158.252 306.278 158.351 306.36 158.47 306.398C165.015 308.45 165.97 308.805 166.232 308.805C166.353 308.819 166.474 308.786 166.571 308.713C166.667 308.639 166.732 308.532 166.751 308.412C166.77 308.292 166.742 308.17 166.673 308.07C166.604 307.971 166.499 307.902 166.38 307.878V307.878Z" fill="#18216D"/>
<path d="M186.608 314.208L178.985 311.823C178.926 311.804 178.864 311.798 178.803 311.803C178.741 311.809 178.681 311.826 178.627 311.855C178.516 311.913 178.433 312.012 178.396 312.131C178.359 312.25 178.371 312.379 178.429 312.49C178.487 312.6 178.586 312.683 178.705 312.72C185.253 314.77 186.205 315.128 186.468 315.128C186.581 315.129 186.69 315.089 186.777 315.015C186.863 314.942 186.92 314.84 186.937 314.728C186.954 314.616 186.93 314.502 186.869 314.407C186.809 314.311 186.716 314.24 186.608 314.208V314.208Z" fill="#18216D"/>
<path d="M208.512 320.95C207.723 320.797 206.945 320.592 206.182 320.335L199.215 318.153C199.096 318.115 198.967 318.126 198.856 318.184C198.746 318.242 198.662 318.341 198.625 318.46C198.588 318.579 198.599 318.708 198.657 318.819C198.714 318.929 198.813 319.013 198.932 319.05C203.155 320.375 205.055 320.993 205.932 321.265C206.752 321.523 207.587 321.73 208.432 321.883C208.55 321.882 208.662 321.837 208.748 321.758C208.834 321.678 208.887 321.569 208.897 321.453C208.907 321.336 208.873 321.22 208.802 321.127C208.731 321.034 208.628 320.971 208.512 320.95Z" fill="#18216D"/>
<path d="M197.93 166.88C197.984 167.506 197.788 168.127 197.384 168.608C196.98 169.089 196.402 169.389 195.776 169.444C195.151 169.498 194.529 169.302 194.048 168.898C193.568 168.494 193.267 167.916 193.213 167.29C193.186 166.98 193.22 166.668 193.314 166.372C193.407 166.075 193.558 165.8 193.758 165.562C193.958 165.324 194.203 165.128 194.479 164.984C194.755 164.841 195.057 164.753 195.366 164.726C195.676 164.699 195.988 164.734 196.285 164.827C196.581 164.921 196.856 165.072 197.094 165.272C197.332 165.472 197.529 165.717 197.672 165.993C197.815 166.269 197.903 166.57 197.93 166.88V166.88Z" fill="#18216D"/>
<path d="M339.835 136.1C339.871 136.715 339.666 137.32 339.263 137.786C338.86 138.252 338.291 138.543 337.678 138.596C337.064 138.65 336.454 138.462 335.976 138.073C335.499 137.684 335.191 137.124 335.12 136.512C335.084 135.897 335.289 135.293 335.692 134.827C336.095 134.361 336.663 134.07 337.277 134.016C337.891 133.962 338.501 134.15 338.979 134.539C339.456 134.928 339.764 135.488 339.835 136.1V136.1Z" fill="#18216D"/>
<path d="M435.323 348.908L410.793 309.42C410.738 309.334 410.657 309.268 410.562 309.232C410.467 309.195 410.363 309.191 410.265 309.219C410.167 309.247 410.081 309.307 410.02 309.388C409.959 309.469 409.925 309.568 409.925 309.67V329.85L374.618 303.408C388.121 280.405 395.653 254.389 396.526 227.731C397.4 201.072 391.587 174.619 379.618 150.783C379.562 150.671 379.464 150.587 379.345 150.547C379.227 150.508 379.098 150.518 378.986 150.574C378.875 150.63 378.79 150.728 378.751 150.846C378.712 150.965 378.722 151.094 378.778 151.205C396.296 186.089 400.347 226.205 390.157 263.887C379.968 301.569 356.251 334.176 323.54 355.478C323.436 355.546 323.363 355.653 323.337 355.775C323.312 355.897 323.336 356.024 323.404 356.129C323.472 356.233 323.579 356.306 323.701 356.332C323.823 356.357 323.951 356.333 324.055 356.265C344.502 342.968 361.631 325.164 374.13 304.22L409.398 330.635L389.033 337.548C388.936 337.58 388.852 337.643 388.794 337.727C388.737 337.811 388.708 337.911 388.712 338.013C388.716 338.115 388.753 338.212 388.818 338.291C388.883 338.37 388.971 338.426 389.07 338.45C438.088 350.34 435.013 349.828 435.295 349.435C435.352 349.36 435.385 349.269 435.389 349.175C435.394 349.081 435.371 348.988 435.323 348.908V348.908Z" fill="#FE7624"/>
<path d="M329.677 249.5L330.06 241.522C330.059 241.402 330.012 241.287 329.929 241.2C329.846 241.114 329.733 241.062 329.613 241.056C329.492 241.05 329.375 241.091 329.284 241.169C329.193 241.248 329.135 241.358 329.122 241.477L328.74 249.455C328.741 249.575 328.788 249.69 328.871 249.777C328.954 249.864 329.067 249.915 329.187 249.921C329.307 249.927 329.425 249.886 329.516 249.808C329.607 249.73 329.665 249.619 329.677 249.5V249.5Z" fill="#18216D"/>
<path d="M326.15 313.46C326.272 313.462 326.39 313.416 326.48 313.332C326.569 313.249 326.623 313.135 326.63 313.013L327.012 305.035C327.017 304.973 327.009 304.91 326.988 304.851C326.968 304.791 326.936 304.737 326.894 304.69C326.853 304.644 326.802 304.606 326.745 304.579C326.689 304.553 326.627 304.538 326.565 304.535C326.44 304.529 326.317 304.572 326.223 304.656C326.13 304.74 326.073 304.857 326.065 304.983L325.68 312.96C325.677 313.024 325.687 313.088 325.709 313.148C325.731 313.208 325.765 313.263 325.809 313.31C325.853 313.356 325.906 313.394 325.964 313.419C326.023 313.445 326.086 313.459 326.15 313.46Z" fill="#18216D"/>
<path d="M327.165 292.29C327.287 292.291 327.405 292.245 327.495 292.162C327.585 292.079 327.639 291.965 327.647 291.843L328.03 283.865C328.036 283.74 327.992 283.619 327.908 283.526C327.824 283.434 327.707 283.379 327.582 283.373C327.458 283.367 327.336 283.41 327.243 283.494C327.151 283.578 327.096 283.695 327.09 283.82L326.707 291.798C326.705 291.86 326.715 291.922 326.737 291.981C326.758 292.039 326.792 292.093 326.834 292.139C326.877 292.184 326.928 292.221 326.984 292.247C327.041 292.273 327.102 292.288 327.165 292.29Z" fill="#18216D"/>
<path d="M328.182 271.117C328.304 271.118 328.422 271.072 328.511 270.989C328.6 270.905 328.654 270.792 328.662 270.67L329.045 262.692C329.051 262.568 329.007 262.446 328.923 262.354C328.839 262.261 328.722 262.206 328.597 262.2C328.473 262.194 328.351 262.238 328.258 262.322C328.166 262.406 328.111 262.523 328.105 262.648L327.722 270.625C327.718 270.751 327.764 270.874 327.851 270.966C327.937 271.059 328.056 271.113 328.182 271.117V271.117Z" fill="#18216D"/>
<path d="M227.835 293.5L226.085 301.29C226.066 301.408 226.092 301.529 226.159 301.628C226.226 301.728 226.328 301.798 226.445 301.824C226.562 301.85 226.684 301.831 226.787 301.771C226.89 301.71 226.966 301.612 227 301.498L228.75 293.708C228.769 293.589 228.743 293.468 228.676 293.369C228.609 293.27 228.507 293.2 228.39 293.174C228.273 293.147 228.151 293.166 228.048 293.227C227.945 293.287 227.869 293.385 227.835 293.5Z" fill="#18216D"/>
<path d="M377.113 144.7C377.328 144.662 377.543 144.62 377.755 144.575C381.885 143.69 381.458 137.8 377.553 136.7C378.288 136.238 378.864 135.561 379.201 134.76C379.538 133.96 379.621 133.075 379.437 132.226C379.254 131.377 378.813 130.605 378.175 130.015C377.537 129.425 376.733 129.046 375.873 128.93C376.639 128.347 377.184 127.52 377.417 126.585C377.65 125.65 377.557 124.664 377.153 123.789C376.749 122.915 376.059 122.204 375.197 121.775C374.334 121.346 373.351 121.224 372.41 121.43C372.41 121.43 368.91 122.065 367.775 122.292C366.795 119.412 365.025 119.257 360.18 119.792C353.858 120.487 352.888 120.595 351.25 124.495C348.798 130.34 346.43 131.917 344.585 132.525C344.115 131.49 343.615 130.447 343.085 129.395C343.039 129.305 342.966 129.233 342.876 129.188C342.786 129.143 342.684 129.128 342.585 129.145C341.713 129.305 255.193 145.47 244.873 146.417C237.873 147.057 234.345 140.842 233.328 133.917C234.756 133.944 236.169 133.623 237.447 132.983C238.724 132.343 239.826 131.403 240.66 130.242C242.708 126.95 242.11 121.622 238.888 114.407C234.485 99.7499 234.018 87.5524 224.56 88.1749C215.035 88.8049 197.928 107.237 204.948 117.65C210.918 126.522 218.948 131.69 219.918 138.775C219.418 138.817 218.885 138.865 218.323 138.92C217.8 135.272 216.23 135.112 211.623 135.17C205.958 135.242 205.085 135.252 203.288 138.577C202.214 140.926 200.521 142.937 198.39 144.395C197.309 142.38 196.12 140.425 194.83 138.537C194.4 137.99 194.313 138.022 193.83 138.115C191.95 138.472 182.955 140.935 138.265 154.957C125.925 158.83 119.945 166.532 120.85 176.832C121.081 179.489 121.833 182.075 123.064 184.441C124.295 186.807 125.981 188.907 128.024 190.621C130.067 192.335 132.428 193.63 134.972 194.43C137.516 195.231 140.193 195.522 142.85 195.287L203.8 190.622L209.978 216.122C203 224.2 199.183 245.58 209.188 260.09L202.25 295.445C147.69 276.747 150.138 277.485 149.808 277.612C147.699 279.703 145.756 281.954 143.995 284.345C137.705 281.24 131.175 278.649 124.468 276.595C124.357 276.562 124.237 276.571 124.133 276.62C110.133 283.14 89.2751 288.977 66.7601 304.842C66.6858 304.895 66.6283 304.968 66.5946 305.052C66.5608 305.137 66.5523 305.229 66.5701 305.318C66.5878 305.407 66.631 305.489 66.6945 305.555C66.7579 305.62 66.8389 305.665 66.9276 305.685C81.3008 308.57 95.936 309.946 110.595 309.792C118.287 309.512 125.988 309.902 133.613 310.957C133.128 314.242 132.851 317.553 132.785 320.872C132.975 321.122 129.648 319.8 207.683 349.327C211.277 350.685 215.118 351.269 218.953 351.039C222.789 350.81 226.532 349.773 229.94 347.997C233.347 346.22 236.34 343.744 238.724 340.731C241.108 337.717 242.828 334.234 243.773 330.51L258.663 271.945C275.194 268.611 291.382 263.757 307.02 257.445C306.563 265.557 304.52 310.76 303.713 324.97C303.708 325.07 303.735 325.169 303.791 325.253C303.846 325.337 303.926 325.402 304.02 325.437C306.2 326.244 308.388 326.945 310.585 327.54C309.399 335.211 308.867 342.969 308.993 350.73C308.993 351.267 308.94 351.142 309.358 351.595C310.055 352.345 312.108 354.537 318.108 361.702C329.213 374.952 339.04 386.052 353.835 397.075C353.908 397.129 353.996 397.16 354.086 397.166C354.177 397.171 354.267 397.15 354.346 397.106C354.425 397.061 354.49 396.994 354.532 396.914C354.575 396.834 354.593 396.743 354.585 396.652C352.834 382.097 349.579 367.762 344.873 353.877C342.448 346.03 339.1 337.505 338.595 329.322C340.833 329.011 343.069 328.59 345.303 328.06C345.395 328.038 345.479 327.988 345.543 327.917C345.607 327.846 345.648 327.757 345.66 327.662C349.303 298.937 353.66 261.207 355.075 224.082C355.224 220.346 354.547 216.623 353.091 213.179C351.636 209.734 349.438 206.654 346.655 204.156C343.873 201.659 340.573 199.807 336.992 198.731C333.41 197.656 329.636 197.384 325.938 197.935C304.883 201.096 284.018 205.411 263.438 210.862C263.438 210.862 262.488 179.67 262.438 177.532C352.505 161.367 348.725 162.152 348.95 161.88C349.275 160.392 349.484 158.881 349.575 157.36C354.075 156.547 364.208 155.085 370.748 153.925C373.248 153.485 376.748 152.675 377.58 152.527C381.75 151.78 381.238 145.587 377.113 144.7ZM77.8176 306.732C74.3876 306.232 71.2201 305.672 68.1776 305.012C90.1626 289.75 110.538 283.965 124.368 277.56C126.985 278.36 129.58 279.245 132.09 280.195C119.888 285.482 98.3751 292.565 77.8176 306.732ZM377.568 143.655C375.103 144.185 372.275 144.252 367.363 144.73C362.573 145.197 361.363 139.645 365.953 138.87C368.573 138.427 375.468 137.467 376.238 137.467C380.22 137.467 381 142.917 377.555 143.655H377.568ZM376.478 136.095C373.95 136.705 371.165 136.845 366.138 137.45C365.502 137.607 364.832 137.546 364.234 137.277C363.637 137.008 363.148 136.546 362.845 135.965C362.611 135.466 362.503 134.917 362.53 134.367C362.557 133.817 362.719 133.281 363 132.807C366 137.272 369.805 135.707 369.425 132.737L369.15 130.547C369.928 130.44 373.335 130.027 374.353 129.872C379 129.157 380.08 135.225 376.465 136.095H376.478ZM372.595 122.357C376.875 121.567 378.063 127.492 374.69 128.427C372.824 128.894 370.929 129.235 369.018 129.447C368.808 127.348 368.485 125.262 368.05 123.197C369.3 122.957 370 122.835 372.583 122.357H372.595ZM219.54 126.157C218.923 125.037 218.54 124.792 218.29 124.705C209.675 121.592 211.98 113.955 216.505 116.78C218.075 117.76 219.065 118.03 219.715 117.672C220.435 117.27 220.425 116.33 220.338 115.562C219.46 107.702 226.365 92.2899 236.143 110.93C241.425 121.055 244.533 132.272 233.198 132.985C231.347 133.076 229.492 132.932 227.678 132.555C227.045 132.405 226.835 132.992 227.13 133.305L233.485 138.65C234.326 141.455 236.032 143.923 238.36 145.7C235.256 147.966 231.402 148.957 227.59 148.467C227.487 147.786 227.203 147.144 226.769 146.609C226.335 146.074 225.766 145.664 225.12 145.422C225.788 144.917 226.271 144.206 226.495 143.399C226.72 142.592 226.674 141.734 226.364 140.956C226.054 140.178 225.498 139.523 224.78 139.091C224.062 138.66 223.223 138.476 222.39 138.567L221.025 138.682C221.79 135.36 221.363 131.795 219.528 126.157H219.54ZM204.128 139.017C205.663 136.177 206.003 136.175 211.725 136.102C216.225 136.052 217.09 136.145 217.475 139.482C217.494 139.601 217.554 139.709 217.646 139.787C217.738 139.864 217.855 139.906 217.975 139.905C219.205 139.777 222.475 139.502 222.475 139.502C226.25 139.18 226.78 144.407 223.793 144.932C223.41 144.997 223.023 145.055 222.62 145.1C222.033 145.167 222 146.165 222.678 146.122C222.743 146.122 223.063 146.122 223.275 146.097C227.355 145.862 227.823 151.212 224.603 151.665C223.353 151.832 222.78 151.807 222.47 151.852C222.354 151.869 222.248 151.928 222.173 152.018C222.099 152.108 222.06 152.223 222.066 152.34C222.072 152.458 222.121 152.568 222.204 152.651C222.287 152.734 222.398 152.782 222.515 152.787L223.55 152.76C227.573 152.627 227.91 157.88 224.75 158.245C224.185 158.31 223.618 158.342 223.015 158.362C222.887 158.361 222.764 158.41 222.672 158.499C222.58 158.589 222.528 158.711 222.526 158.839C222.525 158.967 222.574 159.09 222.663 159.182C222.753 159.273 222.875 159.326 223.003 159.327C226.838 159.327 227.1 164.352 224.038 164.62C220.038 164.972 215.238 165.605 208.135 165.98C206.605 166.062 205.075 166.16 203.59 166.255C203.698 158.968 202.07 151.76 198.84 145.227C201.138 143.684 202.964 141.535 204.115 139.017H204.128ZM194.083 139.097C200.973 148.699 203.893 160.589 202.235 172.29L187.553 176.807C189.273 163.515 186.35 152.377 178.863 143.69L194.083 139.097ZM207.873 203.377C209.503 194.325 210.098 191.21 210.258 190.085C210.388 189.182 210.193 189.195 209.608 189.187C207.303 189.16 196.165 189.885 142.778 194.342C137.665 194.781 132.586 193.175 128.655 189.877C124.723 186.578 122.259 181.856 121.803 176.745C120.943 166.932 126.735 159.705 138.553 155.85L177.863 144C185.45 152.615 188.363 163.75 186.55 177.125L148.405 188.875C148.299 188.909 148.208 188.98 148.149 189.075C148.09 189.17 148.067 189.283 148.084 189.393C148.101 189.504 148.157 189.605 148.241 189.678C148.326 189.751 148.433 189.792 148.545 189.792C148.763 189.792 202.795 173.122 202.883 173.08C202.935 173.051 202.981 173.012 203.019 172.965C203.056 172.919 203.084 172.865 203.1 172.807C203.36 170.955 203.513 169.09 203.56 167.22C215.278 166.47 219.013 166.2 220.35 166.06C223.918 165.692 225.6 165.662 226.548 164.13C227.022 163.301 227.17 162.324 226.961 161.392C226.752 160.46 226.201 159.639 225.418 159.092C226.09 158.837 226.673 158.391 227.096 157.809C227.519 157.227 227.764 156.535 227.8 155.817C227.836 155.098 227.663 154.385 227.301 153.764C226.938 153.142 226.403 152.64 225.76 152.317C226.303 152.053 226.764 151.646 227.094 151.139C227.423 150.633 227.608 150.046 227.63 149.442C230.843 149.837 234.099 149.234 236.958 147.715C245.893 170.632 247.088 188.287 247.733 210.562L210.888 215.9L207.873 203.377ZM242.873 330.287C241.962 333.884 240.302 337.248 238.001 340.159C235.699 343.069 232.809 345.461 229.52 347.177C226.23 348.893 222.615 349.894 218.911 350.116C215.207 350.337 211.498 349.774 208.028 348.462L133.665 320.307C134.57 303.295 138.595 290.502 150.135 278.577C206.273 297.815 202.565 296.632 202.845 296.47C203.125 296.307 202.595 298.582 209.943 261.137C214.605 267.156 221.311 271.258 228.793 272.667C229.023 272.717 230.23 273.01 232.34 273.525L230.743 280.605C230.715 280.727 230.737 280.854 230.804 280.96C230.87 281.065 230.976 281.14 231.098 281.167C231.219 281.195 231.347 281.173 231.452 281.106C231.558 281.04 231.633 280.934 231.66 280.812L233.25 273.75C237.73 274.842 245.433 276.727 255.835 279.265L242.873 330.287ZM351.675 383.287C352.425 387.12 353.11 391.537 353.545 395.71C332.1 379.5 320.415 362.075 309.948 350.867C309.875 347.442 309.948 343.982 310.155 340.56C321.768 353.54 331.75 368 351.668 383.28L351.675 383.287ZM262.5 211.132C259.108 212.037 255.988 212.9 252.973 213.77C252.862 213.811 252.772 213.892 252.718 213.997C252.665 214.101 252.652 214.222 252.684 214.336C252.715 214.449 252.788 214.547 252.888 214.609C252.987 214.671 253.107 214.694 253.223 214.672C277.139 207.849 301.472 202.576 326.068 198.887C329.629 198.357 333.263 198.618 336.711 199.654C340.159 200.689 343.337 202.473 346.016 204.877C348.696 207.281 350.812 210.248 352.214 213.564C353.616 216.88 354.268 220.465 354.125 224.062C352.723 261.012 348.39 298.577 344.758 327.242C338.569 328.697 332.209 329.294 325.858 329.015L325.993 326.207C325.997 326.145 325.989 326.082 325.969 326.023C325.948 325.964 325.916 325.909 325.875 325.863C325.833 325.816 325.782 325.778 325.726 325.752C325.669 325.725 325.608 325.71 325.545 325.707C325.42 325.702 325.297 325.746 325.204 325.829C325.11 325.913 325.053 326.03 325.045 326.155L324.91 328.957C317.988 328.532 311.165 327.094 304.66 324.69C305.453 310.6 307.503 265.285 307.97 257.082C310.878 255.942 313.208 255.007 315.068 254.24C315.125 254.216 315.177 254.182 315.22 254.138C315.264 254.095 315.299 254.043 315.323 253.986C315.347 253.929 315.359 253.868 315.359 253.806C315.359 253.745 315.347 253.683 315.324 253.626C315.3 253.569 315.266 253.517 315.222 253.473C315.179 253.43 315.127 253.395 315.07 253.371C315.013 253.347 314.952 253.335 314.89 253.335C314.828 253.334 314.767 253.346 314.71 253.37C292.71 262.452 253.045 276.727 229.618 271.87C221.755 270.537 214.732 266.168 210.06 259.705C200.56 246.117 203.765 224.92 210.578 216.852L226.283 214.577L227.033 222.037C227.047 222.16 227.11 222.271 227.206 222.348C227.302 222.425 227.424 222.461 227.547 222.448C227.669 222.436 227.782 222.376 227.86 222.281C227.939 222.187 227.978 222.065 227.968 221.942L227.218 214.442L262.398 209.345L262.5 211.132ZM332.89 163.952L279.688 173.5L261.885 170.635C261.817 170.623 261.747 170.627 261.68 170.646C261.614 170.665 261.552 170.698 261.5 170.743C261.448 170.789 261.407 170.845 261.379 170.909C261.351 170.972 261.338 171.041 261.34 171.11L262.368 208.415L248.67 210.4C248.02 188.037 246.805 170.3 237.785 147.217C238.282 146.915 238.759 146.581 239.213 146.217C240.967 147.164 242.965 147.56 244.948 147.352C252.55 146.66 301.045 137.692 326.775 132.995C331.749 142.511 333.87 153.26 332.885 163.952H332.89ZM348.165 161.202L333.855 163.77C334.789 153.085 332.672 142.355 327.75 132.825C335.5 131.41 341 130.397 342.413 130.137C347.933 141.15 349.818 151.322 348.16 161.212L348.165 161.202ZM349.63 156.407C349.902 148.473 348.306 140.586 344.97 133.382C347.86 132.382 350.08 129.72 352.123 124.852C353.545 121.462 353.925 121.422 360.373 120.712C365.038 120.197 366.373 120.052 367.2 123.695C367.608 125.482 367.865 127.922 368.488 132.847C368.835 135.61 364.203 136.22 361.645 127.347C361.607 127.233 361.527 127.137 361.421 127.08C361.314 127.023 361.19 127.009 361.073 127.041C360.957 127.073 360.858 127.149 360.796 127.253C360.733 127.356 360.714 127.48 360.74 127.597C362.908 135.392 360.208 140.637 355.74 143.012C355.635 143.073 355.557 143.173 355.523 143.29C355.489 143.407 355.502 143.532 355.559 143.64C355.617 143.747 355.713 143.829 355.829 143.866C355.945 143.904 356.071 143.896 356.18 143.842C357.619 143.087 358.882 142.036 359.885 140.758C360.888 139.479 361.609 138.002 362 136.425C362.241 136.907 362.588 137.327 363.016 137.655C363.443 137.982 363.94 138.208 364.468 138.315C360.63 139.937 361.678 145.197 366.123 145.665C360.333 146.507 361.695 153.605 367.485 153.205C368.63 153.125 369.653 153.067 370.583 153.017C364.428 154.165 356.08 155.262 349.625 156.417L349.63 156.407ZM377.335 151.5C374.9 151.947 372.265 151.927 367.433 152.25C362.803 152.565 361.76 147.207 366.198 146.59C369.675 146.107 372.103 145.882 375.568 145.542C379.978 145.125 380.813 150.867 377.335 151.5Z" fill="#18216D"/>
<path d="M361.75 223.205L219.87 166.07C219.225 166.138 218.548 166.205 217.843 166.268C365.715 225.82 361.313 224.11 361.563 224.11C361.672 224.112 361.779 224.076 361.865 224.008C361.951 223.939 362.01 223.843 362.033 223.736C362.055 223.628 362.039 223.516 361.987 223.419C361.936 223.322 361.852 223.247 361.75 223.205Z" fill="#FE7624"/>
<path d="M364.48 138.315C364.014 138.215 363.571 138.028 363.175 137.762L225.968 152.415C226.333 152.639 226.657 152.924 226.925 153.257C374.963 137.447 363.283 138.82 364.48 138.315Z" fill="#FE7624"/>
<path d="M393.77 134.623L385.27 131.458C385.196 131.43 385.116 131.421 385.037 131.433C384.959 131.445 384.885 131.476 384.822 131.524C384.759 131.571 384.709 131.635 384.676 131.707C384.644 131.779 384.631 131.859 384.638 131.938L384.945 135.438L378.383 136.138C377.338 137.09 377.175 136.368 378.455 137.075L385.025 136.373L385.295 139.455C385.306 139.572 385.36 139.681 385.447 139.76C385.534 139.839 385.647 139.883 385.765 139.883C388.536 138.572 391.228 137.1 393.828 135.475C393.907 135.432 393.972 135.367 394.015 135.289C394.059 135.21 394.078 135.12 394.072 135.03C394.066 134.941 394.035 134.854 393.981 134.782C393.927 134.71 393.854 134.655 393.77 134.623Z" fill="#FE7624"/>
<path d="M329.965 45.5276C233.402 126 219.85 137.063 218.285 138.618L218.322 138.92C218.675 138.885 219.072 138.848 219.387 138.82L330.567 46.2501C330.615 46.2105 330.654 46.162 330.683 46.1073C330.711 46.0526 330.729 45.9928 330.735 45.9313C330.74 45.8697 330.734 45.8077 330.715 45.7488C330.697 45.6898 330.667 45.635 330.627 45.5876C330.588 45.5401 330.539 45.501 330.485 45.4723C330.43 45.4436 330.37 45.4259 330.309 45.4204C330.247 45.4148 330.185 45.4214 330.126 45.4398C330.067 45.4582 330.012 45.488 329.965 45.5276V45.5276Z" fill="#FE7624"/>
</svg>
