<svg viewBox="0 0 476 354" fill="none" xmlns="http://www.w3.org/2000/svg">
<path d="M419.797 250C422.378 251.617 425.054 253.076 427.81 254.37C428.243 254.37 427.623 255.21 436.278 239.582C436.337 239.473 436.351 239.345 436.317 239.225C436.282 239.106 436.201 239.005 436.093 238.945C427.665 234.277 428.22 234.515 427.95 234.592C427.68 234.67 428.2 233.842 419.613 249.36C419.553 249.469 419.538 249.598 419.573 249.718C419.608 249.838 419.688 249.939 419.797 250V250ZM428.263 235.682L435.228 239.54L427.628 253.263L420.663 249.405L428.263 235.682Z" fill="#FE7624"/>
<path d="M409.808 244.452C412.385 246.076 415.062 247.536 417.823 248.825C418.253 248.825 417.633 249.667 426.288 234.037C426.348 233.929 426.362 233.801 426.328 233.681C426.294 233.562 426.214 233.461 426.105 233.4L418.318 229.087C418.264 229.057 418.205 229.038 418.143 229.031C418.082 229.024 418.02 229.029 417.961 229.046C417.902 229.063 417.846 229.092 417.798 229.13C417.75 229.168 417.71 229.216 417.68 229.27L409.623 243.815C409.563 243.924 409.549 244.052 409.583 244.172C409.618 244.291 409.699 244.392 409.808 244.452V244.452Z" fill="#FE7624"/>
<path d="M399.817 238.923C402.396 240.544 405.073 242.004 407.832 243.293C408.262 243.293 407.675 244.153 416.297 228.508C416.358 228.398 416.372 228.27 416.338 228.15C416.304 228.03 416.224 227.929 416.115 227.868C407.635 223.173 408.24 223.44 407.97 223.513C407.7 223.585 408.207 222.8 399.635 238.283C399.605 238.337 399.586 238.396 399.579 238.457C399.571 238.519 399.576 238.581 399.593 238.64C399.61 238.7 399.639 238.755 399.677 238.804C399.716 238.852 399.763 238.893 399.817 238.923V238.923ZM408.282 224.605L415.247 228.463L407.647 242.183L400.685 238.328L408.282 224.605Z" fill="#FE7624"/>
<path d="M456.685 195.557C456.682 195.433 456.629 195.314 456.539 195.228C456.448 195.142 456.327 195.095 456.203 195.097L365.595 197.057C357.16 189.432 347.343 183.492 336.675 179.557C336.56 179.524 336.437 179.535 336.33 179.589C336.223 179.643 336.141 179.736 336.099 179.848C336.058 179.961 336.061 180.084 336.108 180.195C336.154 180.305 336.241 180.394 336.35 180.442C351.388 185.979 364.645 195.486 374.714 207.952C384.782 220.419 391.286 235.38 393.534 251.246C395.782 267.112 393.691 283.291 387.482 298.064C381.273 312.836 371.179 325.652 358.271 335.148C345.364 344.645 330.125 350.468 314.174 351.998C298.222 353.529 282.154 350.711 267.676 343.842C253.198 336.974 240.851 326.312 231.945 312.99C223.04 299.667 217.91 284.182 217.1 268.177C217.097 268.116 217.082 268.055 217.055 267.999C217.029 267.944 216.991 267.893 216.946 267.852C216.9 267.811 216.846 267.779 216.788 267.758C216.73 267.737 216.668 267.728 216.606 267.731C216.545 267.734 216.484 267.75 216.428 267.776C216.372 267.803 216.322 267.84 216.281 267.886C216.239 267.931 216.207 267.985 216.187 268.043C216.166 268.101 216.157 268.163 216.16 268.225C216.802 280.92 220.137 293.333 225.944 304.64C231.751 315.947 239.896 325.89 249.839 333.808C259.782 341.727 271.296 347.44 283.616 350.568C295.936 353.697 308.78 354.169 321.297 351.954C333.813 349.738 345.715 344.886 356.213 337.719C366.711 330.552 375.564 321.234 382.185 310.384C388.806 299.534 393.044 287.399 394.617 274.786C396.19 262.173 395.061 249.369 391.308 237.225C430.778 259.085 429.255 258.312 429.508 258.312C429.908 258.312 429.008 259.725 440.535 238.9C440.595 238.791 440.61 238.662 440.576 238.542C440.541 238.422 440.461 238.321 440.353 238.26L405.66 219.047C460.058 217.872 456.79 218.047 457.03 217.797C457.27 217.547 457.163 218.75 456.685 195.557ZM383.625 219.527L394.215 219.3L388.53 229.562C387.103 226.12 385.465 222.768 383.625 219.527ZM388.985 230.685L395.303 219.275L397.128 219.237L389.725 232.605C389.485 231.96 389.25 231.322 388.985 230.685V230.685ZM398.215 219.212C398.67 219.212 397.788 218.792 405.258 222.93L397.658 236.65L390.695 232.795L398.215 219.212ZM439.483 238.862L429.32 257.207L390.888 235.922C390.623 235.117 390.346 234.316 390.058 233.517L397.615 237.702C397.724 237.762 397.853 237.777 397.973 237.742C398.093 237.707 398.194 237.627 398.255 237.517L406.308 222.975C406.338 222.921 406.357 222.862 406.364 222.8C406.371 222.739 406.366 222.677 406.349 222.617C406.332 222.558 406.304 222.502 406.265 222.454C406.227 222.405 406.179 222.365 406.125 222.335L400.403 219.165L403.788 219.092L439.483 238.862ZM383.09 218.6C378.628 210.956 373.069 204.008 366.59 197.977L455.75 196.05L456.203 217.02L383.09 218.6Z" fill="#FE7624"/>
<path d="M452.86 197.817C443.77 197.937 443.873 197.902 443.633 198.152C443.393 198.402 443.505 197.625 443.863 215.11C443.865 215.233 443.916 215.35 444.004 215.436C444.092 215.522 444.21 215.57 444.333 215.57L453.24 215.38C453.365 215.377 453.483 215.324 453.57 215.234C453.656 215.143 453.703 215.022 453.7 214.897L453.34 198.277C453.334 198.154 453.28 198.038 453.191 197.952C453.102 197.867 452.984 197.818 452.86 197.817V197.817Z" fill="#FE7624"/>
<path d="M441.78 198.195C441.53 197.945 441.765 198.047 432.545 198.255C432.483 198.256 432.422 198.27 432.366 198.294C432.309 198.319 432.258 198.355 432.216 198.4C432.173 198.444 432.139 198.497 432.117 198.554C432.095 198.612 432.084 198.673 432.085 198.735L432.445 215.357C432.448 215.48 432.498 215.597 432.586 215.683C432.674 215.769 432.792 215.817 432.915 215.817L441.823 215.625C441.884 215.624 441.945 215.61 442.002 215.585C442.058 215.561 442.109 215.525 442.152 215.48C442.195 215.436 442.228 215.383 442.251 215.326C442.273 215.268 442.284 215.207 442.283 215.145C441.923 197.65 442.03 198.43 441.78 198.195Z" fill="#FE7624"/>
<path d="M430.363 198.44C430.113 198.19 430.455 198.315 421.128 198.503C421.066 198.504 421.005 198.517 420.948 198.542C420.892 198.567 420.841 198.603 420.798 198.647C420.755 198.692 420.722 198.744 420.7 198.802C420.677 198.859 420.666 198.921 420.668 198.983L421.028 215.603C421.03 215.725 421.081 215.842 421.169 215.928C421.257 216.014 421.375 216.063 421.498 216.063L430.408 215.873C430.532 215.869 430.65 215.817 430.736 215.727C430.822 215.637 430.87 215.517 430.868 215.393C430.5 197.918 430.613 198.68 430.363 198.44ZM421.958 215.115L421.62 199.433L429.578 199.26L429.918 214.943L421.958 215.115Z" fill="#FE7624"/>
<path d="M418.61 198.558C409.523 198.753 409.628 198.64 409.383 198.893C409.138 199.145 409.215 198.345 409.61 215.853C409.613 215.975 409.664 216.092 409.752 216.178C409.84 216.264 409.957 216.312 410.08 216.313L418.99 216.118C419.114 216.115 419.232 216.063 419.319 215.974C419.405 215.884 419.452 215.764 419.45 215.64L419.09 199.018C419.08 198.895 419.026 198.781 418.938 198.696C418.849 198.611 418.733 198.562 418.61 198.558V198.558ZM410.543 215.36L410.203 199.68L418.16 199.508L418.5 215.188L410.543 215.36Z" fill="#FE7624"/>
<path d="M407.527 198.933C407.277 198.683 407.527 198.787 398.295 198.995C398.171 198.998 398.052 199.051 397.966 199.14C397.88 199.23 397.833 199.351 397.835 199.475L398.195 216.098C398.198 216.22 398.248 216.337 398.336 216.423C398.424 216.509 398.542 216.558 398.665 216.558L407.572 216.365C407.697 216.362 407.816 216.31 407.903 216.22C407.989 216.131 408.037 216.01 408.035 215.885C407.673 198.41 407.78 199.175 407.527 198.933ZM399.125 215.608L398.785 199.925L406.745 199.755L407.082 215.435L399.125 215.608Z" fill="#FE7624"/>
<path d="M300.878 230.47C300.628 230.47 300.58 230.4 283.948 224.22C283.831 224.177 283.736 224.088 283.683 223.975C283.631 223.862 283.627 223.732 283.67 223.615C283.713 223.498 283.802 223.403 283.915 223.351C284.029 223.299 284.158 223.294 284.275 223.338L301.043 229.565C301.142 229.606 301.225 229.68 301.277 229.774C301.329 229.869 301.347 229.978 301.327 230.084C301.308 230.191 301.253 230.287 301.171 230.357C301.089 230.427 300.985 230.467 300.878 230.47V230.47Z" fill="#FE7624"/>
<path d="M231.4 203.698C148.23 172.868 153.83 174.808 153.557 174.948C153.285 175.088 153.62 174.38 149.892 184.418C149.594 183.829 149.133 183.338 148.565 183.003L122.787 167.65C122.024 167.197 121.116 167.054 120.25 167.25L83.5225 172.075C83.5647 171.956 83.5604 171.825 83.5103 171.709C83.4602 171.594 83.3681 171.501 83.2525 171.45L81.6275 170.845L143.105 117.03C143.912 117.771 144.973 118.175 146.069 118.159C147.166 118.142 148.214 117.707 148.998 116.941C149.783 116.176 150.245 115.139 150.289 114.044C150.333 112.948 149.955 111.878 149.234 111.052C148.513 110.226 147.503 109.708 146.412 109.604C145.321 109.5 144.231 109.818 143.367 110.492C142.503 111.167 141.93 112.147 141.766 113.231C141.602 114.314 141.859 115.42 142.485 116.32L80.62 170.465C77.23 169.215 75.9125 168.695 75.3525 168.51C74.96 168.383 74.775 168.34 74.6025 168.76C74.3525 169.318 73.7325 171.068 71.6025 176.783C71.5595 176.9 71.5646 177.029 71.6166 177.142C71.6686 177.255 71.7632 177.344 71.88 177.388L72.47 177.605L7.56996 234.4C6.74025 233.682 5.66715 233.31 4.57127 233.359C3.47539 233.408 2.43998 233.875 1.67789 234.665C0.9158 235.454 0.48493 236.505 0.473852 237.601C0.462773 238.698 0.872328 239.758 1.61833 240.562C2.36433 241.366 3.39008 241.854 4.48475 241.926C5.57942 241.997 6.65981 241.646 7.50385 240.946C8.3479 240.245 8.89145 239.248 9.02278 238.158C9.15411 237.069 8.86324 235.971 8.20996 235.09L73.46 177.98C79.0125 180.04 79.835 180.408 80.0875 180.408C80.1834 180.407 80.277 180.378 80.356 180.324C80.435 180.269 80.4956 180.192 80.53 180.103L80.55 180.043L105.155 207.905C105.692 208.623 106.484 209.108 107.367 209.26L136.897 214.438C137.541 214.552 138.204 214.482 138.81 214.238L135.17 224.038C135.148 224.095 135.138 224.157 135.14 224.219C135.142 224.28 135.156 224.341 135.181 224.397C135.207 224.454 135.243 224.504 135.289 224.546C135.334 224.588 135.387 224.621 135.445 224.643C195.432 246.935 193.695 246.338 193.945 246.338C194.055 246.337 194.162 246.299 194.246 246.228C194.331 246.158 194.388 246.06 194.407 245.951C194.427 245.843 194.408 245.731 194.354 245.636C194.299 245.54 194.213 245.466 194.11 245.428L136.21 223.928C136.21 223.928 140.235 213.65 145.275 200.07C205.397 222.398 204.582 222.158 204.832 222.158C204.942 222.156 205.047 222.116 205.131 222.045C205.215 221.975 205.271 221.877 205.29 221.769C205.31 221.661 205.291 221.55 205.238 221.455C205.184 221.359 205.099 221.285 204.997 221.245L145.6 199.188C150.415 186.205 154.02 175.968 154.02 175.968L231.062 204.583C231.18 204.627 231.31 204.624 231.425 204.572C231.539 204.521 231.629 204.426 231.674 204.309C231.718 204.191 231.715 204.061 231.663 203.946C231.612 203.832 231.517 203.742 231.4 203.698V203.698ZM80.8075 176.66L77.635 175.388C77.5366 175.35 77.4284 175.346 77.3275 175.376C77.2266 175.407 77.1389 175.47 77.0782 175.556C77.0176 175.643 76.9875 175.747 76.9928 175.852C76.9981 175.957 77.0385 176.058 77.1075 176.138L79.8575 179.24L79.8225 179.335L72.6475 176.67L75.305 169.5L82.48 172.165L82.4625 172.213C80.0225 172.533 79.0775 172.633 78.6775 172.713C78.569 172.717 78.4654 172.759 78.3843 172.831C78.3032 172.903 78.2496 173.001 78.2325 173.108C78.2154 173.215 78.236 173.325 78.2906 173.419C78.3453 173.513 78.4308 173.585 78.5325 173.623L81.5325 174.683L80.8075 176.66ZM123.94 191.523C123.869 191.792 123.744 192.043 123.57 192.261C123.397 192.478 123.18 192.657 122.934 192.786C122.688 192.916 122.417 192.992 122.14 193.011C121.862 193.029 121.584 192.99 121.322 192.895L81.6825 177L82.4325 174.98L122.582 189.103C123.065 189.27 123.47 189.609 123.72 190.055C123.97 190.501 124.048 191.023 123.94 191.523Z" fill="#FE7624"/>
<path d="M369.5 260.07C369.38 259.807 370.232 260.192 353.945 254.145C355.502 249.955 355.497 250.145 355.382 249.882C355.267 249.62 357.525 250.417 321.352 237.1C321.235 237.057 321.106 237.061 320.992 237.113C320.879 237.165 320.791 237.26 320.747 237.377C320.704 237.494 320.709 237.624 320.761 237.737C320.813 237.851 320.908 237.939 321.025 237.982L354.35 250.357L345.75 273.5L305.295 258.475C305.178 258.432 305.048 258.436 304.935 258.488C304.822 258.54 304.733 258.635 304.69 258.752C304.647 258.869 304.651 258.999 304.703 259.112C304.755 259.226 304.85 259.314 304.967 259.357L345.42 274.382L336.537 298.305L222.35 255.91C222.233 255.867 222.103 255.871 221.99 255.923C221.877 255.975 221.788 256.07 221.745 256.187C221.702 256.304 221.706 256.434 221.758 256.547C221.81 256.661 221.905 256.749 222.022 256.792C339.022 300.167 336.555 299.39 336.805 299.39C336.901 299.39 336.996 299.361 337.075 299.306C337.154 299.251 337.214 299.173 337.247 299.082L338.78 294.952C352.62 300.09 353.982 300.657 354.235 300.657C354.331 300.658 354.425 300.629 354.504 300.574C354.583 300.52 354.644 300.442 354.677 300.352C370.512 257.875 369.615 260.34 369.5 260.07Z" fill="#FE7624"/>
<path d="M302.08 258.298L300.008 257.528C299.891 257.484 299.796 257.396 299.744 257.283C299.691 257.169 299.687 257.04 299.73 256.923C299.774 256.806 299.862 256.711 299.975 256.659C300.089 256.607 300.218 256.602 300.335 256.645L302.408 257.415C302.525 257.459 302.62 257.547 302.672 257.66C302.724 257.774 302.729 257.903 302.685 258.02C302.642 258.137 302.554 258.232 302.44 258.284C302.327 258.336 302.197 258.341 302.08 258.298V258.298Z" fill="#FE7624"/>
<path d="M296.815 256.342L293.19 254.995C293.081 254.946 292.994 254.858 292.948 254.748C292.901 254.638 292.898 254.514 292.94 254.402C292.981 254.29 293.064 254.198 293.171 254.145C293.277 254.091 293.401 254.081 293.515 254.115L297.143 255.46C297.26 255.503 297.355 255.591 297.407 255.705C297.459 255.818 297.464 255.948 297.42 256.065C297.377 256.182 297.289 256.277 297.175 256.329C297.062 256.381 296.932 256.386 296.815 256.342V256.342Z" fill="#FE7624"/>
<path d="M292.64 254.75C292.39 254.75 294.013 255.313 240.968 235.593C240.851 235.549 240.756 235.461 240.704 235.348C240.651 235.234 240.647 235.105 240.69 234.988C240.733 234.871 240.822 234.776 240.935 234.724C241.049 234.671 241.178 234.667 241.295 234.71L292.795 253.84C292.897 253.878 292.983 253.951 293.038 254.046C293.092 254.141 293.112 254.251 293.093 254.359C293.075 254.467 293.02 254.565 292.937 254.636C292.854 254.707 292.749 254.748 292.64 254.75Z" fill="#FE7624"/>
<path d="M336.512 180C335.562 177.315 324.237 153.263 320.512 146.485C315.2 136.808 310.835 136.43 306.59 132.443C306.564 132.407 306.541 132.369 306.52 132.33C302.84 131.984 299.278 130.844 296.08 128.99C295.643 129.242 295.177 129.44 294.692 129.58C295.83 131.448 292.757 133.91 290.25 134.288C292.322 134.093 291.435 137.705 288.325 138.248C287.645 138.268 282.282 138.43 279.812 138.475C276.835 145.79 272.175 139.628 272.175 128.188C272.114 124.909 272.592 121.643 273.59 118.52C274.34 116.42 275.34 115.043 276.447 114.77L243.222 117.495C239.918 117.767 236.799 119.13 234.355 121.371C231.912 123.612 230.284 126.602 229.727 129.87C229.171 133.139 229.719 136.499 231.284 139.422C232.848 142.345 235.342 144.663 238.37 146.013L260.422 155.878L257.712 169.095L299.015 188.615L310.907 162.88V178.228L316.157 187.668L302.782 224.39C309.401 229.182 317.297 231.892 325.462 232.175L336.73 197.715C338.61 191.947 338.534 185.72 336.512 180V180Z" fill="#18216D"/>
<path d="M475.015 133.673C467.625 133.905 463.345 125.248 454.377 129.673C449.29 128.008 444.088 126.718 438.812 125.813C431.347 124.569 423.807 123.817 416.242 123.563C405.14 123.313 404.855 125.063 404.76 125.635C404.665 126.208 404.377 127.968 414.98 131.263C422.231 133.436 429.617 135.129 437.09 136.333C442.386 137.141 447.733 137.579 453.09 137.645C459.575 143.81 469.532 141.22 475.397 134.463C475.461 134.393 475.503 134.306 475.516 134.212C475.53 134.119 475.515 134.023 475.474 133.938C475.433 133.853 475.367 133.782 475.285 133.735C475.203 133.688 475.109 133.666 475.015 133.673V133.673ZM415.265 130.355C407.495 127.94 405.605 126.305 405.692 125.775C405.78 125.245 408.09 124.298 416.227 124.493C424.249 124.769 432.242 125.605 440.147 126.993L438.732 135.63C430.792 134.418 422.946 132.656 415.25 130.355H415.265ZM439.665 135.758L441.072 127.16C445.404 128.036 449.684 129.15 453.892 130.498L452.88 136.688C448.459 136.619 444.046 136.306 439.66 135.75L439.665 135.758Z" fill="#FE7624"/>
<path d="M426.845 41.575C424.54 33.4738 419.356 26.4936 412.266 21.9468C405.176 17.4001 396.669 15.6 388.345 16.885C381.592 17.8776 375.446 21.3354 371.092 26.5917C366.737 31.848 364.484 38.5303 364.765 45.35L353.46 53.75C353.386 53.8046 353.33 53.8794 353.299 53.9654C353.267 54.0514 353.261 54.1448 353.282 54.234C353.303 54.3233 353.349 54.4045 353.415 54.4678C353.482 54.531 353.565 54.5735 353.655 54.59L367.6 57.1675C378.228 80.395 410.668 84.3925 423.54 64.3175C425.66 60.9724 427.049 57.2177 427.619 53.2989C428.188 49.38 427.925 45.3851 426.845 41.575V41.575ZM422.75 63.8075C410.133 83.4775 378.45 79.0575 368.358 56.5575C368.145 56.185 369.005 56.4675 354.888 53.86C366.24 45.4225 365.685 46.0075 365.71 45.56C365.375 38.9278 367.525 32.4091 371.74 27.2775C375.955 22.1459 381.932 18.7702 388.503 17.81C396.595 16.5643 404.863 18.3154 411.755 22.7344C418.648 27.1535 423.69 33.9366 425.935 41.81C426.981 45.4944 427.238 49.3581 426.689 53.1486C426.141 56.9391 424.798 60.5712 422.75 63.8075V63.8075Z" fill="#FE7624"/>
<path d="M393.5 50.2025C395.105 45.3575 401.628 44.3925 403.155 39.7025C403.389 39.0687 403.488 38.393 403.446 37.7187C403.405 37.0443 403.222 36.3861 402.912 35.7862C402.601 35.1862 402.169 34.6576 401.642 34.2343C401.115 33.8109 400.506 33.502 399.854 33.3274C399.201 33.1528 398.519 33.1163 397.851 33.2202C397.184 33.3241 396.545 33.5661 395.976 33.9308C395.408 34.2955 394.921 34.7748 394.548 35.3382C394.175 35.9015 393.924 36.5365 393.81 37.2025C393.798 37.2754 393.771 37.3452 393.732 37.4079C393.693 37.4706 393.642 37.5249 393.582 37.5679C393.522 37.6108 393.454 37.6415 393.382 37.6582C393.31 37.6749 393.235 37.6772 393.163 37.665C393.09 37.6529 393.02 37.6265 392.957 37.5874C392.895 37.5483 392.84 37.4972 392.797 37.4371C392.754 37.3769 392.724 37.3089 392.707 37.237C392.69 37.165 392.688 37.0904 392.7 37.0175C392.839 36.198 393.148 35.4165 393.607 34.7229C394.065 34.0293 394.663 33.4389 395.362 32.9892C396.061 32.5396 396.846 32.2406 397.668 32.1113C398.489 31.9821 399.328 32.0254 400.132 32.2385C400.935 32.4517 401.685 32.8299 402.335 33.3492C402.984 33.8685 403.518 34.5174 403.902 35.2545C404.287 35.9916 404.513 36.8007 404.567 37.6303C404.622 38.4598 404.503 39.2916 404.218 40.0725C402.558 45.1875 396.01 46.22 394.568 50.5725C394.543 50.6426 394.505 50.7072 394.456 50.7627C394.407 50.8182 394.347 50.8634 394.28 50.8958C394.214 50.9281 394.141 50.9471 394.067 50.9514C393.993 50.9558 393.919 50.9456 393.849 50.9213C393.779 50.897 393.714 50.8591 393.659 50.8099C393.603 50.7606 393.558 50.7009 393.526 50.6341C393.493 50.5674 393.474 50.4949 393.47 50.4209C393.465 50.3468 393.476 50.2726 393.5 50.2025V50.2025Z" fill="#FE7624"/>
<path d="M392.75 54.7701C392.508 54.6763 392.249 54.6316 391.99 54.6387C391.73 54.6457 391.475 54.7044 391.238 54.8112C391.001 54.918 390.788 55.0709 390.611 55.2609C390.434 55.4509 390.296 55.6742 390.206 55.9178C390.117 56.1615 390.076 56.4206 390.087 56.6801C390.099 56.9395 390.161 57.1942 390.272 57.4291C390.382 57.6641 390.539 57.8747 390.732 58.0487C390.924 58.2227 391.15 58.3566 391.395 58.4426C391.637 58.5363 391.895 58.581 392.155 58.574C392.415 58.5669 392.67 58.5082 392.907 58.4014C393.144 58.2946 393.357 58.1417 393.534 57.9517C393.711 57.7617 393.848 57.5384 393.938 57.2948C394.028 57.0511 394.069 56.792 394.058 56.5325C394.046 56.2731 393.984 56.0185 393.873 55.7835C393.762 55.5485 393.606 55.3379 393.413 55.1639C393.22 54.9899 392.995 54.856 392.75 54.7701Z" fill="#FE7624"/>
<path d="M302.985 46.475L288.535 44.5C288.413 44.4838 288.303 44.4205 288.227 44.3238C288.151 44.2271 288.117 44.1046 288.13 43.9825C288.938 36.565 288.813 36.93 289.063 36.7325C289.313 36.535 288.515 36.515 303.813 38.605C303.934 38.6218 304.044 38.6854 304.119 38.782C304.194 38.8787 304.229 39.0008 304.215 39.1225L303.465 46.055C303.453 46.1728 303.397 46.2816 303.308 46.3596C303.219 46.4375 303.103 46.4788 302.985 46.475V46.475ZM289.115 43.6325L302.57 45.475L303.225 39.475L289.768 37.635L289.115 43.6325Z" fill="#FE7624"/>
<path d="M300.622 0.790075C298.623 0.471125 296.576 0.646637 294.66 1.30128C292.744 1.95593 291.017 3.06978 289.631 4.54554C288.245 6.02131 287.241 7.81407 286.707 9.76722C286.174 11.7204 286.127 13.7745 286.57 15.7501C289.472 24.5501 289.72 24.7501 289.485 33.7926V33.8576C289.495 33.9326 289.522 34.0042 289.566 34.066C289.609 34.1279 289.667 34.1782 289.735 34.2126C289.87 34.2776 303.83 36.2126 304.022 36.1426L304.087 36.1126C304.187 36.0577 304.264 35.9691 304.305 35.8626L304.325 35.7901C305.825 27.6551 306.505 26.9551 311.007 19.1076C311.621 17.8692 312.001 16.5286 312.13 15.1526C312.437 11.736 311.411 8.33301 309.266 5.65595C307.121 2.97888 304.024 1.23526 300.622 0.790075V0.790075ZM310.19 18.6451C305.612 26.1826 304.94 27.2801 303.487 35.1751L297.427 34.3426L299.255 17.5776C302.675 18.0451 303.155 18.1276 303.522 18.1276C304.333 18.1365 305.118 17.8444 305.726 17.3077C306.334 16.7711 306.721 16.0281 306.812 15.2226C306.892 14.3245 306.623 13.4302 306.06 12.726C305.497 12.0218 304.684 11.562 303.79 11.4426L302.455 11.2626C302.017 11.1943 301.571 11.2152 301.141 11.3239C300.712 11.4326 300.309 11.627 299.957 11.8952C299.604 12.1635 299.31 12.5002 299.091 12.8851C298.872 13.27 298.733 13.6951 298.682 14.1351L298.432 16.5151L294.647 15.9976C294.17 15.9484 293.717 15.7602 293.345 15.4562C292.973 15.1522 292.698 14.7457 292.555 14.2872C292.412 13.8286 292.406 13.3382 292.539 12.8765C292.672 12.4149 292.937 12.0024 293.302 11.6901C293.561 11.4901 293.857 11.3445 294.173 11.262C294.49 11.1795 294.819 11.1618 295.142 11.2101L298.16 11.6176C298.282 11.6221 298.401 11.5788 298.492 11.4969C298.583 11.4151 298.638 11.3011 298.646 11.1792C298.654 11.0572 298.615 10.9369 298.535 10.8437C298.456 10.7505 298.344 10.6918 298.222 10.6801L295.27 10.2776C294.822 10.2115 294.365 10.2371 293.927 10.3526C293.489 10.4682 293.079 10.6715 292.722 10.9501C292.213 11.3765 291.839 11.9432 291.649 12.5799C291.458 13.2166 291.458 13.8952 291.65 14.5317C291.841 15.1681 292.215 15.7344 292.725 16.1603C293.235 16.5862 293.859 16.853 294.52 16.9276L298.332 17.4501L296.505 34.2176L290.445 33.3876C290.979 27.7026 290.1 21.9738 287.887 16.7101C287.234 14.8432 287.079 12.8385 287.436 10.8932C287.793 8.94794 288.65 7.12908 289.923 5.61557C291.196 4.10207 292.841 2.94606 294.697 2.26127C296.552 1.57649 298.554 1.38653 300.505 1.71007C302.386 1.93916 304.187 2.60431 305.765 3.65254C307.344 4.70077 308.655 6.10311 309.596 7.74784C310.537 9.39257 311.08 11.2342 311.183 13.1261C311.286 15.018 310.946 16.9079 310.19 18.6451V18.6451ZM299.355 16.6451L299.617 14.2426C299.651 13.9351 299.746 13.6376 299.898 13.3681C300.049 13.0986 300.254 12.8628 300.5 12.6751C301.515 11.8826 302.565 12.2251 303.677 12.3751C304.155 12.424 304.608 12.6121 304.98 12.916C305.352 13.2199 305.626 13.6263 305.769 14.0847C305.912 14.5431 305.917 15.0334 305.784 15.4948C305.651 15.9562 305.385 16.3683 305.02 16.6801C304.762 16.8815 304.466 17.0282 304.15 17.1112C303.833 17.1942 303.503 17.2116 303.18 17.1626L299.355 16.6451Z" fill="#FE7624"/>
<path d="M239.37 60.6425L233.062 61.755C231.612 62.0096 230.12 61.679 228.913 60.8355C227.706 59.992 226.882 58.7045 226.622 57.255L225.5 50.9375C225.475 50.8178 225.404 50.7125 225.303 50.6441C225.202 50.5756 225.078 50.5493 224.957 50.5708C224.837 50.5923 224.73 50.6598 224.658 50.7591C224.587 50.8584 224.557 50.9815 224.575 51.1025L225.687 57.41C225.941 58.8603 225.61 60.3522 224.767 61.5591C223.924 62.766 222.637 63.5897 221.187 63.85L214.88 64.9625C214.762 64.9885 214.658 65.0592 214.59 65.1599C214.523 65.2606 214.497 65.3835 214.518 65.5029C214.539 65.6223 214.605 65.729 214.703 65.8006C214.801 65.8723 214.922 65.9034 215.042 65.8875L221.35 64.775C222.068 64.6476 222.805 64.6629 223.517 64.8201C224.23 64.9773 224.904 65.2732 225.502 65.6911C226.1 66.109 226.61 66.6406 227.002 67.2555C227.395 67.8704 227.663 68.5566 227.79 69.275L228.902 75.5825C228.913 75.6434 228.936 75.7016 228.969 75.7538C229.002 75.806 229.045 75.8511 229.096 75.8866C229.146 75.9221 229.203 75.9473 229.264 75.9608C229.324 75.9742 229.387 75.9757 229.447 75.965C229.508 75.9543 229.567 75.9318 229.619 75.8986C229.671 75.8654 229.716 75.8223 229.752 75.7717C229.787 75.7211 229.812 75.664 229.826 75.6037C229.839 75.5433 229.841 75.4809 229.83 75.42L228.717 69.1125C228.463 67.6618 228.793 66.1693 229.637 64.9618C230.48 63.7543 231.768 62.9302 233.217 62.67L239.525 61.56C239.633 61.5255 239.724 61.4534 239.783 61.3568C239.842 61.2602 239.864 61.1456 239.845 61.0341C239.826 60.9225 239.768 60.8215 239.681 60.7496C239.593 60.6777 239.483 60.6397 239.37 60.6425V60.6425ZM227.835 66.81C227.37 66.0681 226.761 65.4272 226.044 64.9252C225.327 64.4232 224.516 64.0703 223.66 63.8875C224.402 63.4229 225.043 62.8139 225.544 62.0966C226.046 61.3794 226.398 60.5686 226.58 59.7125C227.044 60.4546 227.652 61.0962 228.368 61.599C229.084 62.1019 229.894 62.4559 230.75 62.64C230.01 63.1046 229.37 63.7131 228.87 64.4294C228.369 65.1457 228.017 65.9552 227.835 66.81V66.81Z" fill="#FE7624"/>
<path d="M336.955 179.837C335.995 177.115 324.623 152.982 320.93 146.255C315.51 136.382 311.115 136.072 306.93 132.085C306.352 131.073 306.028 129.937 305.984 128.773C305.941 127.609 306.18 126.452 306.68 125.4C307.378 123.805 308.272 122.304 309.34 120.93C314.87 114.997 326.005 124.517 326.09 124.607C327.444 126.04 329.252 126.959 331.208 127.207C331.502 127.233 331.799 127.193 332.077 127.091C332.355 126.989 332.607 126.828 332.815 126.618C333.023 126.407 333.183 126.154 333.282 125.875C333.381 125.597 333.418 125.299 333.39 125.005C333.06 122.912 331.967 121.014 330.323 119.677C333.383 120.177 334.668 116.447 330.208 112.32C333.77 113.32 335.23 109.54 330.743 105.195C330.277 104.748 329.776 104.341 329.243 103.977C312.958 90.3199 303.053 100.977 302.425 101.692C299.271 104.613 296.782 108.179 295.13 112.147C292.798 112.695 290.593 113.682 288.63 115.055C285.924 116.255 283.055 117.051 280.118 117.417C279.753 116.585 278.568 114.212 276.92 114.267C276.67 114.267 277.46 114.222 243.17 117.032C240.05 117.304 237.086 118.515 234.667 120.505C232.249 122.495 230.49 125.171 229.623 128.18C226.143 127.904 222.664 128.721 219.67 130.515C171.5 159.162 173.68 157.722 173.575 158.095C173.569 158.403 173.62 158.71 173.725 159C168.903 159.835 161.705 160.54 157.93 161.227C142.208 164.11 139.625 165.762 139.18 167C136.59 174.115 160.768 174.06 169.848 180.042C172.455 181.883 175.348 183.283 178.41 184.185C181.308 184.271 184.16 183.456 186.575 181.852C187.475 182.802 187.54 182.935 187.808 182.935C188.075 182.935 186.48 183.712 221.393 164.947L237.75 201.53L222.225 206.565C218.097 207.911 214.296 210.106 211.066 213.01C207.837 215.913 205.251 219.46 203.475 223.422C179.55 276.832 180.975 273.38 181.275 273.782C181.423 273.932 182.525 274.782 182.678 274.907C177.848 283.867 171.928 294.002 168.928 300.77C161.823 316.755 161.813 320.06 162.598 321.152C167.39 327.812 182.11 306.057 193.115 301.547C195.781 300.527 198.184 298.922 200.148 296.85C202.762 293.623 204.835 289.992 206.285 286.1C206.975 286.27 207.675 286.399 208.38 286.487C208.785 286.385 207.13 289.57 231.418 237.802C241.095 235.57 257.258 232.11 273.88 229.032C296.453 224.85 299.31 190.86 299.458 188.82L307.09 172.302L315.653 187.71C304.968 217.045 302.718 223.01 302.388 224.3C302.278 224.732 302.388 224.637 302.458 224.722C302.618 224.862 303.443 225.42 303.618 225.537C301.93 228.974 299.455 231.964 296.393 234.262C292.11 237.385 290.278 239.537 290.943 240.652C292.005 242.445 298.57 239.402 300.468 238.522C298.485 242.992 296 247.22 293.06 251.127C291.925 252.727 291.685 254.072 292.418 254.72C294.133 256.247 298.018 251.887 299.56 250.16C298.54 252.273 297.407 254.33 296.168 256.322C295.12 257.862 294.953 259.152 295.72 259.772C296.868 260.7 298.788 259.272 299.843 258.157C301.214 256.658 302.495 255.078 303.68 253.427C302.963 255.215 302.31 256.677 301.945 257.415C300.123 261.107 302.93 262.795 305.823 258.802C306.856 257.334 307.807 255.81 308.673 254.237C308.518 254.797 308.365 255.287 308.203 255.737C307.358 258.092 307.97 258.807 308.41 259.022C309.58 259.597 311.093 257.652 311.8 256.545C316.416 248.854 320.456 240.832 323.888 232.545C324.068 232.557 325.388 232.665 325.555 232.632C326.03 232.502 325.288 234.29 337.188 197.855C339.086 191.986 339.005 185.656 336.955 179.837V179.837ZM303.055 102.402C303.305 102.26 308.74 96.7274 312.33 99.3424C315.76 101.842 313.205 108.52 313.455 107.79C312.94 109.29 313.955 109.682 315.52 109.522C316.39 109.435 317.24 109.327 317.725 110.102C318.528 111.385 317.32 113.775 314.243 113.302C314.159 113.289 314.074 113.298 313.995 113.328C313.916 113.358 313.846 113.407 313.793 113.472C312.543 115.065 308.73 120.13 308.488 120.472C306.008 123.917 303.898 127.862 305.66 131.722C302.619 131.341 299.67 130.419 296.953 129C297.726 128.507 298.378 127.844 298.857 127.062C299.337 126.28 299.632 125.398 299.72 124.485C302.358 123.647 307.533 120.54 308.543 117.925C308.637 117.724 308.689 117.506 308.694 117.285C308.7 117.063 308.659 116.843 308.575 116.637C307.705 114.837 302.12 117.617 299.645 118.28C298.395 118.615 297.2 118.882 296.04 119.082C295.435 118.048 295.152 116.856 295.228 115.66C296.058 114.622 297.228 112.94 296.098 112.28C297.699 108.536 300.069 105.171 303.055 102.402V102.402ZM294.305 116.722C294.349 117.606 294.592 118.467 295.018 119.242C293.84 119.41 292.654 119.515 291.465 119.557C292.678 118.442 293.605 117.5 294.318 116.722H294.305ZM289.105 115.865C293.75 113.1 295.383 112.942 295.605 113.092C295.605 113.092 295.923 114.265 290.045 119.592C288.935 119.592 287.75 119.547 286.515 119.455C286.391 119.446 286.268 119.486 286.173 119.567C286.079 119.649 286.021 119.764 286.011 119.889C286.002 120.013 286.042 120.136 286.124 120.23C286.205 120.325 286.321 120.383 286.445 120.392C290.957 120.809 295.508 120.403 299.875 119.195C301.348 118.802 307.143 116.4 307.715 117.055C307.76 117.236 307.738 117.427 307.653 117.592C305.729 120.387 302.932 122.463 299.7 123.495C297.574 124.051 295.416 124.474 293.238 124.762C293.118 124.787 293.013 124.858 292.944 124.959C292.876 125.061 292.849 125.185 292.871 125.305C292.892 125.425 292.96 125.533 293.059 125.604C293.158 125.675 293.282 125.705 293.403 125.687C294.653 125.467 296.94 125.165 298.753 124.745C298.588 125.563 298.241 126.333 297.738 126.998C297.234 127.663 296.586 128.206 295.843 128.585C294.593 129.3 294.36 129.18 289.948 129.697C289.827 129.71 289.716 129.768 289.637 129.86C289.559 129.953 289.519 130.072 289.526 130.192C289.533 130.313 289.587 130.427 289.676 130.509C289.764 130.592 289.881 130.637 290.003 130.635L293.825 130.19H293.87C293.91 130.189 293.951 130.184 293.99 130.175L294.038 130.16L294.428 130.115C295.03 131.602 292.25 133.365 290.498 133.76C290.248 133.817 287.465 134.19 287.248 134.19C287.128 134.192 287.014 134.241 286.928 134.324C286.843 134.408 286.793 134.521 286.788 134.641C286.783 134.761 286.824 134.878 286.903 134.968C286.981 135.058 287.091 135.115 287.21 135.127C287.553 135.142 289.96 134.777 290.615 134.722C291.403 135.32 290.365 137.405 288.295 137.775C287.685 137.792 276.248 138.025 274.158 138.067C272.201 131.87 272.114 125.234 273.908 118.987C275.948 118.944 277.983 118.748 279.995 118.402C283.132 117.95 286.198 117.097 289.118 115.865H289.105ZM258.25 168.832L263.518 143.16L277.133 142.08C278.27 141.91 279.308 140.83 280.133 138.935C282.19 138.892 285.77 138.79 287.503 138.735C280.908 150.345 276.104 162.883 273.253 175.927L258.25 168.832ZM250.19 151.817L259.888 156.157L257.54 167.61L250.19 151.817ZM243.263 117.97L274.75 115.387C270.673 120.105 270.703 137.152 275.058 141.3L241.46 143.96C241.344 143.972 241.236 144.027 241.158 144.113C241.079 144.2 241.036 144.313 241.036 144.43C241.036 144.547 241.079 144.66 241.158 144.746C241.236 144.833 241.344 144.888 241.46 144.9L261.96 145.992L260.065 155.212C235.475 144.212 243.38 147.745 238.548 145.59C235.615 144.283 233.2 142.038 231.684 139.207C230.168 136.377 229.638 133.122 230.176 129.957C230.715 126.791 232.291 123.895 234.657 121.725C237.024 119.554 240.045 118.233 243.245 117.97H243.263ZM273.693 228.11C272.373 228.36 231.295 236.337 230.693 237.132C230.54 237.382 231.443 235.485 208 285.5C198.531 283.629 189.671 279.452 182.203 273.337L204.328 223.807C206.052 219.966 208.561 216.527 211.694 213.711C214.826 210.896 218.512 208.767 222.515 207.46L262.265 194.575C262.374 194.54 262.467 194.467 262.526 194.369C262.585 194.271 262.607 194.155 262.586 194.042C262.565 193.93 262.504 193.828 262.415 193.758C262.325 193.687 262.212 193.651 262.098 193.657L235.813 194.88L222.218 164.5L225.18 162.907C225.29 162.848 225.371 162.748 225.407 162.628C225.443 162.508 225.429 162.38 225.37 162.27C225.311 162.16 225.21 162.079 225.091 162.043C224.971 162.007 224.842 162.021 224.733 162.08L187.895 181.88C181.386 175.434 176.773 167.323 174.563 158.432L220.168 131.325C222.948 129.659 226.171 128.884 229.405 129.105C228.657 132.564 229.121 136.176 230.72 139.333C232.318 142.491 234.954 145.003 238.185 146.447L248.88 151.232C257.583 169.92 257.178 169.232 257.435 169.482C257.685 169.637 255.728 168.687 298.49 188.897C298.265 191.777 295.25 224.12 273.695 228.11H273.693ZM316.56 187.442L311.378 178.11V162.885C311.377 162.778 311.34 162.675 311.273 162.592C311.206 162.51 311.113 162.452 311.009 162.429C310.905 162.406 310.796 162.419 310.7 162.466C310.605 162.513 310.528 162.591 310.483 162.687L298.79 188L274.138 176.347C277.003 163.116 281.894 150.406 288.638 138.667C291.138 138.13 292.388 135.727 291.608 134.417C293.34 133.79 295.528 132.257 295.465 130.45V130.387C295.455 130.209 295.42 130.033 295.36 129.865C295.602 129.772 295.839 129.666 296.07 129.547C299.221 131.3 302.692 132.398 306.278 132.777C310.625 136.862 314.855 137.132 320.115 146.712C323.838 153.497 335.15 177.53 336.08 180.155C338.057 185.783 338.13 191.904 336.288 197.577L325.133 231.695C317.307 231.343 309.747 228.751 303.353 224.225C317.4 185.617 316.725 187.735 316.563 187.442H316.56ZM311 256.047C309.815 257.905 308.955 258.252 308.82 258.187C308.753 258.155 308.523 257.625 309.085 256.062C309.605 254.602 310.45 251.105 310.48 250.852C311.193 249.45 311.775 248.227 312.128 247.437C312.177 247.324 312.18 247.195 312.136 247.08C312.091 246.964 312.003 246.871 311.89 246.82C311.777 246.769 311.648 246.765 311.532 246.809C311.416 246.852 311.322 246.94 311.27 247.052C310.34 249.14 304.45 261.302 302.475 260.112C302.225 259.967 302.1 259.217 302.783 257.832C303.904 255.444 304.895 252.996 305.75 250.5C307.02 248.67 308.088 247.047 308.623 246.187C308.683 246.082 308.7 245.958 308.67 245.84C308.641 245.723 308.567 245.621 308.465 245.556C308.362 245.492 308.239 245.469 308.12 245.494C308.001 245.518 307.896 245.588 307.828 245.687C305.226 249.837 302.322 253.789 299.138 257.51C297.725 258.985 296.598 259.295 296.285 259.042C296.073 258.87 296.055 258.122 296.92 256.85C298.814 253.744 300.51 250.521 302 247.202C302.94 246 303.633 245.025 303.975 244.535C304.01 244.484 304.035 244.427 304.048 244.366C304.061 244.306 304.062 244.243 304.051 244.183C304.04 244.122 304.017 244.064 303.983 244.012C303.949 243.96 303.906 243.915 303.855 243.88C303.804 243.845 303.747 243.82 303.686 243.807C303.626 243.794 303.563 243.793 303.503 243.804C303.442 243.815 303.384 243.838 303.332 243.872C303.28 243.906 303.235 243.949 303.2 244C301.025 247.14 298.529 250.044 295.753 252.667C294.163 254.11 293.22 254.197 293.015 254.017C291.72 252.865 298.605 247.38 302.808 234.987C302.827 234.929 302.836 234.867 302.832 234.806C302.828 234.744 302.811 234.684 302.784 234.628C302.757 234.573 302.719 234.524 302.673 234.483C302.626 234.442 302.572 234.411 302.514 234.391C302.455 234.371 302.394 234.363 302.332 234.367C302.27 234.371 302.21 234.387 302.155 234.415C302.099 234.442 302.05 234.48 302.009 234.526C301.969 234.573 301.937 234.626 301.918 234.685C301.615 235.577 301.295 236.435 300.965 237.262C300.919 237.268 300.874 237.282 300.833 237.302C293.833 240.632 291.87 240.412 291.725 240.172C291.605 239.972 292.138 238.51 296.92 235.022C300.075 232.66 302.631 229.589 304.383 226.057C309.952 229.634 316.294 231.829 322.883 232.462C319.5 240.602 315.529 248.485 311 256.047V256.047Z" fill="#18216D"/>
<path d="M304.833 104.533C304.951 104.448 305.098 104.413 305.242 104.435C305.386 104.456 305.515 104.533 305.603 104.649C305.691 104.765 305.73 104.911 305.712 105.055C305.695 105.199 305.621 105.331 305.508 105.422L305.482 105.442L300.417 109.053L301.396 110.356C301.482 110.47 301.521 110.613 301.505 110.754C301.489 110.896 301.42 111.026 301.311 111.118L301.286 111.139C301.172 111.224 301.029 111.263 300.888 111.247C300.746 111.231 300.616 111.162 300.524 111.053L300.504 111.028L299.18 109.267C299.093 109.151 299.054 109.006 299.072 108.862C299.09 108.719 299.163 108.587 299.276 108.497L299.302 108.476L304.833 104.533Z" fill="#2E186A"/>
<path d="M303.978 103.706C304.446 103.39 304.663 102.891 304.462 102.593C304.261 102.295 303.718 102.309 303.249 102.625C302.78 102.942 302.563 103.44 302.764 103.738C302.966 104.036 303.509 104.022 303.978 103.706Z" fill="#2E186A"/>
<path d="M307.465 108.899C307.866 108.501 307.986 107.971 307.733 107.716C307.48 107.46 306.949 107.576 306.547 107.974C306.146 108.372 306.025 108.902 306.279 109.158C306.532 109.413 307.063 109.298 307.465 108.899Z" fill="#2E186A"/>
<path d="M311.051 106.24C311.154 106.134 311.295 106.073 311.443 106.07C311.591 106.068 311.734 106.125 311.841 106.228C312.422 106.776 312.798 107.506 312.907 108.297C312.953 108.633 312.952 108.975 312.904 109.311C312.884 109.46 312.852 109.607 312.808 109.751C312.762 109.889 312.665 110.003 312.536 110.071C312.407 110.138 312.257 110.152 312.118 110.111C311.978 110.069 311.861 109.975 311.79 109.848C311.719 109.721 311.7 109.572 311.738 109.431L311.755 109.373C311.774 109.3 311.788 109.227 311.798 109.152C311.832 108.919 311.832 108.683 311.8 108.449C311.725 107.905 311.465 107.404 311.063 107.03C310.957 106.927 310.896 106.786 310.894 106.638C310.891 106.489 310.948 106.347 311.051 106.24V106.24Z" fill="#2E186A"/>
<path d="M307.074 98.8614C307.662 99.1822 308.106 99.7368 308.443 100.426C308.586 100.713 308.701 101.013 308.787 101.322C308.823 101.465 308.801 101.616 308.726 101.742C308.651 101.868 308.529 101.96 308.387 101.997C308.244 102.034 308.093 102.014 307.966 101.94C307.839 101.867 307.746 101.746 307.707 101.604L307.698 101.574C307.688 101.538 307.671 101.483 307.647 101.414C307.588 101.244 307.519 101.078 307.44 100.917C307.255 100.477 306.941 100.102 306.539 99.842C306.379 99.7523 306.197 99.7056 306.013 99.7063L305.956 99.7078C305.809 99.7134 305.666 99.6608 305.557 99.5615C305.449 99.4621 305.384 99.324 305.377 99.1771C305.369 99.0302 305.42 98.8863 305.519 98.7768C305.617 98.6673 305.754 98.601 305.901 98.5922C306.31 98.5707 306.716 98.6639 307.074 98.8614V98.8614Z" fill="#2E186A"/>
<path d="M302.44 115.006C302.46 115.076 302.466 115.15 302.458 115.223C302.45 115.296 302.427 115.366 302.391 115.43C302.356 115.494 302.308 115.551 302.25 115.597C302.193 115.642 302.127 115.676 302.056 115.696C301.965 115.721 301.872 115.739 301.779 115.752C301.565 115.782 301.348 115.793 301.132 115.785C299.756 115.734 298.45 114.999 297.487 113.325C297.413 113.197 297.393 113.044 297.432 112.901C297.47 112.758 297.564 112.636 297.693 112.562C297.821 112.489 297.974 112.469 298.117 112.507C298.26 112.546 298.382 112.64 298.456 112.768C299.219 114.096 300.17 114.632 301.173 114.668C301.322 114.674 301.47 114.667 301.617 114.646L301.678 114.636L301.75 114.622C301.82 114.601 301.894 114.595 301.967 114.604C302.04 114.612 302.11 114.635 302.174 114.67C302.239 114.706 302.295 114.754 302.341 114.812C302.386 114.869 302.42 114.935 302.44 115.006V115.006Z" fill="#2E186A"/>
<path d="M267.75 221.685C267.767 222.131 267.956 222.554 268.278 222.864C268.6 223.174 269.029 223.347 269.476 223.347C269.923 223.347 270.352 223.174 270.674 222.864C270.996 222.554 271.185 222.131 271.202 221.685C271.185 221.239 270.996 220.816 270.674 220.506C270.352 220.196 269.923 220.023 269.476 220.023C269.029 220.023 268.6 220.196 268.278 220.506C267.956 220.816 267.767 221.239 267.75 221.685V221.685Z" fill="#18216D"/>
<path d="M283.802 190.825C283.819 191.271 284.009 191.694 284.331 192.004C284.653 192.314 285.082 192.487 285.529 192.487C285.976 192.487 286.405 192.314 286.727 192.004C287.049 191.694 287.238 191.271 287.255 190.825C287.238 190.378 287.049 189.956 286.727 189.646C286.405 189.336 285.976 189.163 285.529 189.163C285.082 189.163 284.653 189.336 284.331 189.646C284.009 189.956 283.819 190.378 283.802 190.825V190.825Z" fill="#18216D"/>
<path d="M241.5 185.5C241.517 185.946 241.706 186.369 242.028 186.679C242.35 186.989 242.779 187.162 243.226 187.162C243.673 187.162 244.102 186.989 244.424 186.679C244.746 186.369 244.935 185.946 244.952 185.5C244.935 185.053 244.746 184.631 244.424 184.321C244.102 184.011 243.673 183.838 243.226 183.838C242.779 183.838 242.35 184.011 242.028 184.321C241.706 184.631 241.517 185.053 241.5 185.5V185.5Z" fill="#18216D"/>
<path d="M244.34 156.03C244.357 156.476 244.546 156.899 244.868 157.209C245.19 157.519 245.62 157.692 246.066 157.692C246.513 157.692 246.943 157.519 247.264 157.209C247.586 156.899 247.776 156.476 247.793 156.03C247.776 155.583 247.586 155.161 247.264 154.851C246.943 154.541 246.513 154.368 246.066 154.368C245.62 154.368 245.19 154.541 244.868 154.851C244.546 155.161 244.357 155.583 244.34 156.03V156.03Z" fill="#18216D"/>
<path d="M218.157 140.713C218.174 141.159 218.364 141.582 218.686 141.891C219.008 142.201 219.437 142.374 219.884 142.374C220.33 142.374 220.76 142.201 221.082 141.891C221.404 141.582 221.593 141.159 221.61 140.713C221.593 140.266 221.404 139.844 221.082 139.534C220.76 139.224 220.33 139.051 219.884 139.051C219.437 139.051 219.008 139.224 218.686 139.534C218.364 139.844 218.174 140.266 218.157 140.713V140.713Z" fill="#18216D"/>
<path d="M180.34 159.378C180.34 159.835 180.522 160.274 180.845 160.597C181.169 160.921 181.608 161.103 182.065 161.103C182.523 161.103 182.961 160.921 183.285 160.597C183.608 160.274 183.79 159.835 183.79 159.378C183.79 158.92 183.608 158.481 183.285 158.158C182.961 157.834 182.523 157.653 182.065 157.653C181.608 157.653 181.169 157.834 180.845 158.158C180.522 158.481 180.34 158.92 180.34 159.378V159.378Z" fill="#18216D"/>
<path d="M206.365 162.885C206.382 163.331 206.571 163.754 206.893 164.064C207.215 164.374 207.644 164.547 208.091 164.547C208.538 164.547 208.967 164.374 209.289 164.064C209.611 163.754 209.8 163.331 209.817 162.885C209.8 162.438 209.611 162.016 209.289 161.706C208.967 161.396 208.538 161.223 208.091 161.223C207.644 161.223 207.215 161.396 206.893 161.706C206.571 162.016 206.382 162.438 206.365 162.885V162.885Z" fill="#18216D"/>
<path d="M220.46 237.87C220.477 238.317 220.666 238.739 220.988 239.049C221.31 239.359 221.739 239.532 222.186 239.532C222.633 239.532 223.062 239.359 223.384 239.049C223.706 238.739 223.895 238.317 223.912 237.87C223.895 237.424 223.706 237.001 223.384 236.691C223.062 236.381 222.633 236.208 222.186 236.208C221.739 236.208 221.31 236.381 220.988 236.691C220.666 237.001 220.477 237.424 220.46 237.87Z" fill="#18216D"/>
<path d="M239.405 207.028C239.405 207.485 239.587 207.924 239.91 208.247C240.234 208.571 240.673 208.753 241.13 208.753C241.588 208.753 242.026 208.571 242.35 208.247C242.673 207.924 242.855 207.485 242.855 207.028C242.855 206.57 242.673 206.131 242.35 205.808C242.026 205.484 241.588 205.302 241.13 205.302C240.673 205.302 240.234 205.484 239.91 205.808C239.587 206.131 239.405 206.57 239.405 207.028Z" fill="#18216D"/>
<path d="M189.903 260.63C189.92 261.077 190.109 261.499 190.431 261.809C190.753 262.119 191.182 262.292 191.629 262.292C192.076 262.292 192.505 262.119 192.827 261.809C193.149 261.499 193.338 261.077 193.355 260.63C193.338 260.184 193.149 259.761 192.827 259.451C192.505 259.141 192.076 258.968 191.629 258.968C191.182 258.968 190.753 259.141 190.431 259.451C190.109 259.761 189.92 260.184 189.903 260.63V260.63Z" fill="#18216D"/>
<path d="M171.842 257.265L164.14 253.765L167.64 246.06C167.691 245.946 167.695 245.817 167.651 245.7C167.607 245.583 167.519 245.489 167.405 245.437C167.291 245.386 167.162 245.382 167.045 245.426C166.928 245.47 166.834 245.559 166.782 245.673L163.282 253.375L155.58 249.875C155.467 249.827 155.34 249.824 155.225 249.869C155.111 249.913 155.018 250 154.967 250.112C154.916 250.224 154.911 250.351 154.953 250.466C154.994 250.582 155.079 250.676 155.19 250.73L162.892 254.23L159.392 261.933C159.344 262.045 159.342 262.173 159.386 262.287C159.43 262.402 159.518 262.494 159.629 262.545C159.741 262.596 159.868 262.601 159.984 262.56C160.099 262.518 160.194 262.433 160.247 262.323L163.747 254.618C171.265 258.033 171.395 258.16 171.645 258.16C171.75 258.157 171.851 258.119 171.932 258.052C172.014 257.985 172.07 257.892 172.093 257.79C172.115 257.687 172.103 257.579 172.058 257.484C172.012 257.389 171.937 257.312 171.842 257.265V257.265Z" fill="#FE7624"/>
</svg>
