<svg width="500" height="500" viewBox="0 0 500 500" fill="none" xmlns="http://www.w3.org/2000/svg">
<rect width="500" height="500" fill="white"/>
<path d="M211.642 376.335C211.642 376.335 209.142 377.643 208.005 378.243C202.572 382.148 191.54 370.98 187.017 365.873C186.955 365.802 186.872 365.752 186.781 365.729C186.689 365.706 186.593 365.71 186.504 365.742C186.416 365.774 186.338 365.832 186.283 365.908C186.227 365.985 186.196 366.076 186.192 366.17C186.334 369.705 187.332 373.152 189.102 376.215C194.475 386.263 194.68 409.88 199.852 413.083C200.167 413.282 200.521 413.409 200.889 413.457C201.258 413.504 201.633 413.47 201.987 413.358C203.287 412.975 205.057 410.165 208.325 392.228C209.335 387.04 210.664 381.919 212.305 376.895C212.332 376.807 212.332 376.713 212.306 376.624C212.28 376.536 212.228 376.457 212.158 376.397C212.087 376.338 212.001 376.3 211.909 376.289C211.818 376.278 211.725 376.294 211.642 376.335V376.335Z" fill="#18216D"/>
<path d="M346.43 254.772C345.107 254.512 343.744 254.526 342.426 254.815C341.109 255.103 339.865 255.66 338.771 256.45C337.678 257.241 336.76 258.248 336.073 259.408C335.385 260.569 334.945 261.859 334.778 263.197C334.771 263.317 334.809 263.434 334.886 263.526C334.962 263.618 335.071 263.678 335.189 263.693C335.308 263.708 335.428 263.678 335.525 263.608C335.622 263.539 335.689 263.435 335.713 263.317C335.975 261.288 336.927 259.409 338.409 257.998C339.891 256.586 341.813 255.726 343.854 255.563C345.894 255.4 347.928 255.942 349.616 257.1C351.304 258.258 352.543 259.96 353.125 261.922C353.165 262.037 353.248 262.131 353.356 262.186C353.464 262.241 353.588 262.252 353.705 262.218C353.821 262.184 353.919 262.106 353.98 262.001C354.04 261.897 354.058 261.773 354.03 261.655C353.532 259.913 352.556 258.345 351.213 257.128C349.87 255.912 348.213 255.096 346.43 254.772V254.772Z" fill="#FE7624"/>
<path d="M374.57 238.82C372.648 238.151 370.566 238.093 368.609 238.652C366.652 239.212 364.915 240.362 363.637 241.946C362.359 243.53 361.6 245.47 361.466 247.501C361.332 249.531 361.829 251.554 362.888 253.292C363.348 254.046 363.909 254.733 364.555 255.335C364.6 255.377 364.653 255.41 364.711 255.432C364.769 255.453 364.83 255.463 364.892 255.461C364.954 255.459 365.015 255.445 365.071 255.419C365.127 255.394 365.178 255.358 365.22 255.312C365.262 255.267 365.295 255.214 365.317 255.156C365.339 255.099 365.349 255.037 365.347 254.975C365.344 254.913 365.33 254.853 365.305 254.796C365.279 254.74 365.243 254.69 365.198 254.647C363.712 253.244 362.751 251.374 362.477 249.349C362.203 247.324 362.631 245.266 363.691 243.518C364.75 241.771 366.377 240.439 368.299 239.746C370.222 239.052 372.324 239.039 374.255 239.707C374.373 239.749 374.502 239.742 374.615 239.689C374.728 239.635 374.815 239.539 374.856 239.421C374.898 239.303 374.891 239.174 374.838 239.061C374.784 238.948 374.688 238.862 374.57 238.82V238.82Z" fill="#FE7624"/>
<path d="M393.632 225.25C390.132 219.553 383.107 218.03 381.102 219.183C378.787 220.51 367.557 227.6 307.472 264.153C307.373 264.221 307.304 264.325 307.279 264.442C307.254 264.56 307.274 264.683 307.336 264.786C307.399 264.889 307.498 264.964 307.614 264.997C307.729 265.029 307.853 265.016 307.96 264.96L313 261.9C311.665 264.487 311.257 267.453 311.843 270.304C312.43 273.155 313.976 275.72 316.223 277.57C318.471 279.419 321.284 280.443 324.195 280.471C327.106 280.498 329.938 279.527 332.22 277.72C333.131 280.268 334.83 282.459 337.071 283.975C339.312 285.492 341.978 286.254 344.681 286.152C347.385 286.05 349.986 285.088 352.106 283.407C354.226 281.725 355.754 279.412 356.47 276.803C358.489 278.169 360.858 278.928 363.295 278.99C365.732 279.051 368.136 278.413 370.221 277.15C372.307 275.887 373.986 274.053 375.061 271.864C376.136 269.676 376.561 267.225 376.285 264.803C378.928 265.303 381.662 264.954 384.095 263.806C386.528 262.658 388.536 260.77 389.831 258.412C391.126 256.054 391.642 253.347 391.305 250.678C390.968 248.009 389.795 245.515 387.955 243.553C389.611 242.814 391.091 241.73 392.295 240.373C393.499 239.017 394.4 237.419 394.937 235.687C395.475 233.954 395.636 232.127 395.411 230.328C395.186 228.528 394.58 226.797 393.632 225.25V225.25ZM393.932 235.718C393.373 237.361 392.458 238.86 391.252 240.108C390.046 241.355 388.578 242.321 386.955 242.935C385.341 243.538 383.631 243.843 381.907 243.838C381.783 243.837 381.662 243.883 381.57 243.967C381.477 244.051 381.419 244.166 381.407 244.29C381.403 244.353 381.411 244.416 381.432 244.475C381.452 244.534 381.484 244.589 381.526 244.636C381.568 244.682 381.619 244.72 381.676 244.747C381.733 244.773 381.795 244.788 381.857 244.79C383.607 244.808 385.346 244.517 386.995 243.93C388.262 245.188 389.227 246.718 389.816 248.404C390.405 250.09 390.604 251.887 390.397 253.661C390.191 255.434 389.584 257.138 388.622 258.643C387.661 260.148 386.37 261.415 384.847 262.348C383.532 263.176 382.062 263.728 380.527 263.968C378.991 264.209 377.423 264.134 375.917 263.748C374.413 263.339 372.99 262.673 371.712 261.78C371.612 261.721 371.494 261.701 371.38 261.724C371.266 261.746 371.165 261.81 371.095 261.903C371.025 261.996 370.992 262.111 371.002 262.226C371.011 262.342 371.063 262.45 371.147 262.53C372.41 263.412 373.805 264.087 375.28 264.53C375.624 266.827 375.282 269.175 374.296 271.278C373.31 273.381 371.725 275.146 369.739 276.352C367.754 277.557 365.456 278.149 363.136 278.053C360.815 277.957 358.574 277.178 356.695 275.813C356.989 274.161 357.021 272.474 356.79 270.813C356.771 270.689 356.704 270.579 356.603 270.505C356.503 270.431 356.377 270.4 356.254 270.419C356.13 270.438 356.02 270.505 355.946 270.605C355.872 270.706 355.841 270.832 355.86 270.955C356.276 273.04 356.127 275.198 355.428 277.205C354.729 279.213 353.505 280.996 351.883 282.371C350.261 283.746 348.301 284.661 346.206 285.022C344.112 285.383 341.958 285.177 339.97 284.425C338.319 283.799 336.832 282.806 335.62 281.523C334.408 280.24 333.502 278.699 332.97 277.015C333.941 276.007 334.781 274.881 335.47 273.663C335.53 273.553 335.543 273.424 335.508 273.304C335.472 273.184 335.391 273.084 335.281 273.024C335.171 272.964 335.043 272.951 334.923 272.986C334.803 273.021 334.702 273.103 334.642 273.213C333.555 275.397 331.796 277.176 329.624 278.288C327.452 279.401 324.981 279.789 322.572 279.395C320.594 279.101 318.723 278.308 317.134 277.092C315.546 275.876 314.294 274.276 313.494 272.442C312.694 270.609 312.373 268.602 312.562 266.61C312.751 264.619 313.442 262.708 314.572 261.058C314.79 260.738 379.69 221.25 381.185 220.325C385.14 217.898 397.57 225.06 393.932 235.723V235.718Z" fill="#FE7624"/>
<path d="M376.75 197.702C375.802 196.157 374.535 194.832 373.034 193.816C371.533 192.799 369.833 192.114 368.046 191.806C366.26 191.499 364.428 191.576 362.674 192.032C360.92 192.488 359.283 193.314 357.872 194.452C357.235 192.669 356.208 191.05 354.866 189.713C353.524 188.377 351.901 187.357 350.115 186.727C348.329 186.097 346.424 185.874 344.541 186.073C342.657 186.273 340.842 186.89 339.227 187.88C336.523 189.551 334.532 192.162 333.637 195.212C331.606 193.859 329.229 193.119 326.788 193.078C324.348 193.038 321.947 193.7 319.872 194.986C317.798 196.271 316.136 198.126 315.086 200.329C314.035 202.532 313.64 204.991 313.947 207.412C311.298 206.868 308.544 207.181 306.085 208.308C303.626 209.434 301.59 211.315 300.272 213.677C298.954 216.039 298.423 218.76 298.757 221.444C299.09 224.128 300.27 226.637 302.125 228.605C299.483 229.817 297.335 231.897 296.038 234.499C294.741 237.101 294.373 240.068 294.996 242.907C295.618 245.747 297.194 248.288 299.46 250.109C301.727 251.929 304.548 252.919 307.455 252.915L302.517 255.915C302.411 255.981 302.335 256.087 302.306 256.21C302.277 256.332 302.299 256.461 302.365 256.567C302.431 256.674 302.537 256.75 302.66 256.779C302.782 256.807 302.911 256.786 303.017 256.72C336.212 236.545 376.832 211.47 377.082 211.05C378.222 208.998 378.793 206.678 378.734 204.331C378.676 201.984 377.991 199.695 376.75 197.702V197.702ZM376.25 210.587C376.105 210.837 340.11 232.52 309.5 251.672C309.335 251.781 309.148 251.853 308.952 251.882C306.152 252.25 303.313 251.599 300.951 250.05C298.59 248.501 296.863 246.156 296.084 243.441C295.306 240.726 295.527 237.822 296.709 235.257C297.89 232.691 299.953 230.635 302.522 229.462C304.036 228.89 305.633 228.565 307.25 228.5C307.369 228.491 307.48 228.438 307.562 228.35C307.643 228.263 307.688 228.148 307.688 228.029C307.688 227.909 307.643 227.794 307.562 227.707C307.48 227.62 307.369 227.566 307.25 227.557C305.847 227.616 304.458 227.853 303.115 228.262C301.845 227.005 300.878 225.476 300.287 223.79C299.695 222.104 299.495 220.305 299.701 218.531C299.906 216.756 300.513 215.051 301.474 213.545C302.435 212.039 303.727 210.771 305.25 209.837C307.342 208.587 309.762 207.992 312.196 208.131C314.63 208.27 316.966 209.136 318.902 210.617C319.004 210.69 319.13 210.72 319.253 210.7C319.377 210.68 319.487 210.611 319.56 210.51C319.633 210.409 319.662 210.282 319.642 210.159C319.622 210.036 319.554 209.925 319.452 209.852C318.077 208.892 316.558 208.155 314.952 207.667C314.588 205.372 314.91 203.02 315.879 200.907C316.847 198.794 318.419 197.014 320.396 195.792C322.373 194.569 324.667 193.958 326.99 194.036C329.313 194.113 331.561 194.876 333.452 196.227C333.176 197.744 333.146 199.294 333.362 200.82C333.39 200.937 333.461 201.04 333.561 201.106C333.661 201.173 333.783 201.199 333.901 201.179C334.02 201.159 334.127 201.094 334.199 200.998C334.272 200.902 334.305 200.782 334.292 200.662C333.807 197.727 334.45 194.717 336.093 192.236C337.736 189.756 340.256 187.989 343.148 187.29C346.04 186.591 349.09 187.013 351.684 188.47C354.278 189.927 356.224 192.312 357.132 195.145C355.867 196.352 354.819 197.767 354.035 199.33C353.83 199.782 354.457 200.58 355.1 199.347C355.827 197.943 356.805 196.685 357.987 195.635C359.273 194.467 360.8 193.597 362.46 193.087C364.12 192.578 365.872 192.441 367.591 192.686C369.31 192.931 370.954 193.553 372.406 194.506C373.857 195.46 375.08 196.722 375.987 198.202C377.115 200.062 377.732 202.186 377.778 204.36C377.824 206.534 377.297 208.682 376.25 210.587Z" fill="#FE7624"/>
<path d="M326.338 216.475C326.245 216.399 326.128 216.361 326.009 216.368C325.89 216.376 325.778 216.428 325.695 216.514C325.613 216.601 325.566 216.715 325.565 216.834C325.564 216.954 325.607 217.069 325.688 217.157C327.173 218.567 328.129 220.443 328.395 222.473C328.662 224.503 328.222 226.563 327.15 228.308C326.078 230.052 324.44 231.375 322.508 232.055C320.577 232.735 318.471 232.731 316.543 232.043C316.427 232.01 316.305 232.023 316.198 232.078C316.092 232.133 316.011 232.226 315.971 232.338C315.93 232.451 315.934 232.575 315.982 232.684C316.029 232.794 316.116 232.882 316.225 232.93C318.357 233.691 320.685 233.696 322.82 232.945C324.956 232.193 326.768 230.731 327.953 228.802C329.138 226.874 329.624 224.597 329.33 222.352C329.036 220.108 327.98 218.033 326.338 216.475V216.475Z" fill="#FE7624"/>
<path d="M355.072 208.41C354.792 210.434 353.826 212.301 352.336 213.699C350.845 215.097 348.921 215.942 346.883 216.093C344.846 216.244 342.818 215.692 341.137 214.529C339.457 213.367 338.226 211.663 337.65 209.703C337.615 209.583 337.534 209.481 337.425 209.421C337.315 209.361 337.186 209.347 337.066 209.381C336.946 209.416 336.845 209.497 336.785 209.607C336.724 209.716 336.71 209.845 336.745 209.965C337.38 212.133 338.739 214.018 340.596 215.304C342.453 216.59 344.695 217.201 346.948 217.033C349.201 216.866 351.328 215.931 352.975 214.384C354.621 212.838 355.687 210.773 355.995 208.535C355.994 208.422 355.953 208.312 355.878 208.227C355.803 208.142 355.7 208.087 355.588 208.071C355.476 208.056 355.362 208.082 355.267 208.144C355.172 208.207 355.103 208.301 355.072 208.41V208.41Z" fill="#FE7624"/>
<path d="M423.587 187.288C392.422 133.718 319.635 126.35 280.397 174.063C270.206 189.522 258.742 204.104 246.125 217.658C246.083 217.703 246.05 217.755 246.028 217.813C246.006 217.871 245.995 217.932 245.997 217.994C245.999 218.056 246.013 218.117 246.038 218.173C246.064 218.229 246.1 218.28 246.145 218.323C246.19 218.365 246.243 218.398 246.301 218.42C246.358 218.442 246.42 218.452 246.482 218.45C246.543 218.448 246.604 218.434 246.661 218.409C246.717 218.384 246.768 218.348 246.81 218.303C259.466 204.737 270.961 190.132 281.173 174.643C281.194 174.612 281.21 174.58 281.223 174.545C319.853 127.75 391.778 134.485 422.77 187.75C453.685 240.89 425.685 309.718 367.497 322.868C348.072 325.304 328.834 329.063 309.92 334.118C309.805 334.155 309.71 334.236 309.653 334.342C309.596 334.449 309.582 334.573 309.614 334.689C309.646 334.805 309.722 334.905 309.825 334.967C309.929 335.029 310.052 335.049 310.17 335.023C328.893 329.753 348.011 326.005 367.337 323.815C367.403 323.829 367.472 323.829 367.538 323.815C426.55 310.62 454.802 240.948 423.587 187.288Z" fill="#FE7624"/>
<path d="M321.775 119.125C306.275 129.875 277.967 147.198 244.697 152.475C242.147 152.883 239.002 152.292 237.065 154.025C230.942 159.497 229.682 178.592 214.565 179.007C212.46 184.312 210.565 189.458 208.512 193.843C209.232 192.843 211.69 192.343 215.277 192.313C221.49 192.448 227.671 193.244 233.715 194.687C243.77 196.937 252.115 200.13 255.4 202.75C256.492 203.62 257.027 204.433 256.867 205.125C260.29 197.763 258.952 190.282 256.702 182.497C283.832 177.26 321.42 158.087 339.452 142.315C338.02 133.29 330.035 123.783 321.775 119.125Z" fill="#18216D"/>
<path d="M273.825 347.135C273.801 347.078 273.767 347.027 273.723 346.984C273.679 346.941 273.628 346.906 273.571 346.883C273.514 346.86 273.453 346.848 273.391 346.848C273.33 346.849 273.269 346.861 273.213 346.885C252.048 355.513 231.293 366.088 210.16 377.115C211.858 373.95 211.795 368.288 209.91 360.675C207.167 350.563 203.198 340.824 198.093 331.675L273.148 286.108C273.255 286.041 273.331 285.935 273.36 285.813C273.389 285.69 273.368 285.561 273.301 285.454C273.235 285.347 273.129 285.27 273.006 285.242C272.884 285.213 272.755 285.234 272.648 285.3L197.653 330.83C196.22 328.213 194.808 325.78 193.35 323.395L271.663 275.788C271.77 275.721 271.846 275.615 271.875 275.493C271.904 275.37 271.883 275.241 271.816 275.134C271.75 275.027 271.644 274.95 271.521 274.922C271.399 274.893 271.27 274.914 271.163 274.98L192.858 322.593C187.535 313.709 181.155 305.503 173.858 298.155C167.965 292.49 162.923 289.59 159.293 289.715C179.543 274.775 195.88 263.125 211.348 250.715C211.439 250.635 211.496 250.522 211.506 250.401C211.516 250.279 211.479 250.159 211.403 250.064C211.327 249.969 211.217 249.908 211.096 249.892C210.975 249.876 210.853 249.908 210.755 249.98C189.698 266.888 157.838 289.27 156.705 290.48C149.528 294.935 155.03 317.668 169.323 342.44C182.158 364.69 197.115 379.98 205.425 379.98C206.538 380.006 207.629 379.673 208.538 379.03C271 346.385 274.45 348.658 273.825 347.135Z" fill="#FE7624"/>
<path d="M487.357 340.067C487.346 339.977 487.309 339.892 487.251 339.822C487.192 339.752 487.115 339.701 487.028 339.675C486.94 339.648 486.848 339.648 486.76 339.673C486.673 339.698 486.594 339.748 486.535 339.817C480.435 346.792 468.972 343.275 465.415 355.162C460.362 357.979 455.476 361.086 450.782 364.467C450.68 364.497 450.592 364.562 450.532 364.65C449.93 365.097 449.317 365.56 448.69 366.045C434.865 376.72 417.092 393.295 419.69 396.662C419.875 396.86 420.104 397.012 420.359 397.106C420.613 397.2 420.885 397.234 421.155 397.205C426.705 397.205 444.335 385.852 456.655 376.345C461.9 372.242 466.831 367.752 471.405 362.912C482.46 362.27 488.522 351.077 487.357 340.067ZM456.07 375.59C438.71 388.997 421.972 398.06 420.435 396.09C418.897 394.12 431.91 380.197 449.27 366.792C449.802 366.38 450.33 365.98 450.847 365.595L457.63 374.375C457.125 374.767 456.607 375.175 456.07 375.59ZM458.362 373.77L451.612 365.02C456.138 361.781 460.841 358.795 465.697 356.077L470.58 362.402C466.723 366.417 462.644 370.212 458.362 373.77V373.77Z" fill="#FE7624"/>
<path d="M475.445 155.605L481.39 142.31H470.725C470.647 142.304 470.572 142.28 470.505 142.24C470.438 142.2 470.382 142.145 470.34 142.079C470.298 142.013 470.272 141.939 470.264 141.861C470.257 141.784 470.267 141.705 470.295 141.633L476.545 127.69C476.596 127.576 476.69 127.487 476.807 127.442C476.924 127.398 477.054 127.401 477.168 127.453C477.282 127.504 477.371 127.598 477.415 127.715C477.46 127.831 477.456 127.961 477.405 128.075L471.463 141.37H482.128C482.207 141.372 482.285 141.395 482.354 141.435C482.423 141.475 482.481 141.532 482.523 141.6C482.728 141.918 483.05 140.978 476.318 155.99C476.266 156.106 476.172 156.196 476.054 156.242C475.936 156.288 475.805 156.285 475.689 156.234C475.573 156.183 475.482 156.088 475.437 155.97C475.391 155.852 475.394 155.721 475.445 155.605V155.605Z" fill="#FE7624"/>
<path d="M255.382 471.865L243.21 472.222L242.852 460.047C242.841 459.928 242.785 459.818 242.695 459.738C242.605 459.659 242.488 459.617 242.368 459.62C242.248 459.624 242.134 459.673 242.049 459.757C241.964 459.842 241.914 459.955 241.91 460.075L242.267 472.25L230.092 472.607C229.973 472.618 229.863 472.673 229.783 472.762C229.703 472.85 229.659 472.966 229.661 473.086C229.663 473.205 229.71 473.319 229.793 473.406C229.876 473.492 229.988 473.543 230.107 473.55L242.295 473.192L242.652 485.367C242.656 485.49 242.707 485.606 242.794 485.692C242.882 485.777 243 485.825 243.122 485.825C243.249 485.823 243.37 485.771 243.459 485.68C243.547 485.589 243.596 485.467 243.595 485.34L243.237 473.165L255.412 472.807C255.532 472.796 255.642 472.739 255.721 472.649C255.801 472.559 255.843 472.442 255.839 472.322C255.835 472.202 255.786 472.088 255.701 472.003C255.616 471.918 255.502 471.869 255.382 471.865V471.865Z" fill="#FE7624"/>
<path d="M279.07 29.5424H271.055C269.202 29.5505 267.421 28.8262 266.1 27.5274C264.778 26.2285 264.024 24.4602 264 22.6074V14.6524C264 14.1274 263.055 13.9024 263.057 14.6524V22.6149C263.076 24.4747 262.357 26.2662 261.058 27.5969C259.758 28.9276 257.985 29.6892 256.125 29.7149H248.175C248.056 29.7236 247.945 29.777 247.863 29.8645C247.782 29.9519 247.737 30.0668 247.737 30.1862C247.737 30.3056 247.782 30.4205 247.863 30.5079C247.945 30.5954 248.056 30.6488 248.175 30.6574H256.175C258.027 30.6527 259.806 31.3785 261.126 32.6774C262.446 33.9762 263.2 35.7433 263.225 37.5949V45.5499C263.225 45.6746 263.274 45.7941 263.363 45.8823C263.451 45.9704 263.57 46.0199 263.695 46.0199C263.82 46.0199 263.939 45.9704 264.027 45.8823C264.115 45.7941 264.165 45.6746 264.165 45.5499V37.5874C264.146 35.7266 264.866 33.9341 266.166 32.6029C267.467 31.2716 269.242 30.51 271.102 30.4849H279.057C279.177 30.478 279.289 30.4261 279.371 30.3398C279.454 30.2534 279.501 30.139 279.502 30.0195C279.504 29.9001 279.46 29.7844 279.38 29.6959C279.3 29.6074 279.189 29.5526 279.07 29.5424V29.5424ZM263.66 34.8924C263.251 33.7956 262.607 32.8017 261.773 31.981C260.938 31.1602 259.934 30.5326 258.83 30.1424C259.927 29.7339 260.921 29.0896 261.741 28.255C262.562 27.4205 263.19 26.416 263.58 25.3124C263.989 26.4093 264.633 27.4032 265.467 28.2239C266.302 29.0447 267.306 29.6723 268.41 30.0624C267.313 30.471 266.319 31.1153 265.498 31.9499C264.678 32.7844 264.05 33.7889 263.66 34.8924V34.8924Z" fill="#FE7624"/>
<path d="M77.75 455.93L91.75 447.772C91.8575 447.718 91.9817 447.707 92.0972 447.741C92.2127 447.775 92.3108 447.852 92.3714 447.956C92.4321 448.06 92.4507 448.184 92.4235 448.301C92.3963 448.418 92.3253 448.521 92.225 448.587C80.845 455.21 78.6975 456.507 78.1925 456.755C78.0846 456.801 77.9633 456.805 77.8526 456.766C77.742 456.727 77.6498 456.648 77.5944 456.545C77.5389 456.441 77.5242 456.321 77.553 456.207C77.5818 456.093 77.652 455.994 77.75 455.93Z" fill="#FE7624"/>
<path d="M23.4725 368.933C23.3683 368.933 23.2668 368.899 23.1841 368.836C23.1013 368.772 23.042 368.683 23.0153 368.583C22.9887 368.482 22.9963 368.375 23.037 368.279C23.0777 368.183 23.1491 368.103 23.24 368.053L37.5675 359.913C37.6759 359.851 37.8044 359.835 37.9246 359.868C38.0449 359.901 38.1471 359.98 38.2087 360.089C38.2704 360.197 38.2865 360.326 38.2534 360.446C38.2204 360.566 38.1409 360.668 38.0325 360.73C22.955 369.283 23.7225 368.933 23.4725 368.933Z" fill="#FE7624"/>
<path d="M171.713 377.557C165.021 357.581 154.427 339.134 140.548 323.285C132.578 314.585 126.455 308.655 120.318 311.552C116.6 313.592 115.678 316.48 116.303 320.74C115.242 319.408 113.764 318.473 112.107 318.084C110.449 317.696 108.709 317.878 107.168 318.601C105.626 319.323 104.373 320.544 103.611 322.066C102.849 323.588 102.622 325.323 102.968 326.99C101.753 325.998 100.26 325.408 98.695 325.302C97.1302 325.196 95.5711 325.579 94.2337 326.398C92.8963 327.218 91.8467 328.432 91.2301 329.874C90.6136 331.316 90.4607 332.915 90.7926 334.447C89.6463 333.513 88.2483 332.94 86.776 332.801C85.3037 332.663 83.8234 332.964 82.5226 333.667C58.5976 346.932 76.8326 337.045 47.3226 353.802C47.2142 353.864 47.1348 353.967 47.102 354.087C47.0692 354.208 47.0856 354.337 47.1476 354.445C47.2096 354.553 47.3121 354.633 47.4326 354.666C47.5531 354.698 47.6817 354.682 47.7901 354.62L66.8526 343.79C63.0726 351.257 68.8801 371.637 81.5376 393.692L35.8851 420.637C35.7777 420.701 35.6999 420.805 35.669 420.926C35.638 421.047 35.6564 421.175 35.7201 421.282C35.7837 421.39 35.8874 421.468 36.0084 421.499C36.1294 421.529 36.2577 421.511 36.3651 421.447L82.0001 394.517C94.7501 416.467 109.52 431.717 117.868 432.137L100.888 442.027C100.787 442.094 100.716 442.197 100.689 442.314C100.662 442.431 100.681 442.555 100.741 442.659C100.802 442.763 100.9 442.84 101.015 442.874C101.131 442.908 101.255 442.897 101.363 442.842L135.39 423.065C136.502 422.183 137.346 421.008 137.827 419.672C138.308 418.337 138.406 416.893 138.11 415.505C139.327 416.477 140.814 417.051 142.369 417.146C143.924 417.242 145.47 416.855 146.797 416.039C148.124 415.223 149.166 414.017 149.782 412.586C150.398 411.156 150.557 409.57 150.238 408.045C151.192 408.805 152.313 409.328 153.509 409.572C154.705 409.816 155.941 409.773 157.118 409.447C158.089 409.16 158.994 408.68 159.778 408.038C160.562 407.396 161.21 406.603 161.683 405.707C162.157 404.811 162.446 403.829 162.535 402.819C162.624 401.81 162.51 400.792 162.2 399.827C163.525 400.809 165.103 401.389 166.748 401.501C168.393 401.613 170.035 401.251 171.48 400.457C177.583 396.6 175.25 389.025 171.713 377.557ZM170.985 399.66C169.34 400.5 167.454 400.741 165.65 400.341C163.847 399.941 162.239 398.926 161.103 397.47C161.031 397.375 160.925 397.31 160.807 397.29C160.689 397.27 160.568 397.295 160.468 397.361C160.369 397.427 160.298 397.529 160.27 397.645C160.243 397.761 160.261 397.884 160.32 397.987C160.963 398.901 161.383 399.952 161.545 401.057C161.708 402.162 161.61 403.29 161.258 404.35C160.915 405.349 160.337 406.251 159.573 406.98C158.809 407.709 157.881 408.244 156.868 408.54C155.504 408.923 154.053 408.863 152.726 408.369C151.398 407.875 150.261 406.972 149.48 405.79C149.025 405.055 148.208 405.7 148.518 406.212C149.441 407.704 149.734 409.502 149.333 411.21C148.931 412.918 147.867 414.396 146.375 415.32C144.883 416.244 143.086 416.537 141.378 416.135C139.67 415.733 138.191 414.669 137.268 413.177C136.805 412.71 136.1 413.225 136.4 413.725C137.223 415.103 137.517 416.732 137.228 418.311C136.938 419.889 136.085 421.309 134.828 422.305L122.958 429.177C129.805 415.63 105.308 365.715 82.8201 346.49C79.9526 344.092 75.6901 341.027 71.9751 340.827L82.9751 334.505C84.4668 333.714 86.2049 333.524 87.8323 333.974C89.4596 334.425 90.8526 335.482 91.7251 336.927C91.8017 337.034 91.9159 337.107 92.0444 337.132C92.173 337.157 92.3062 337.132 92.417 337.062C92.5279 336.992 92.6079 336.883 92.641 336.756C92.6741 336.629 92.6577 336.495 92.5951 336.38C91.6731 334.904 91.3701 333.124 91.7518 331.426C92.1336 329.728 93.1692 328.249 94.6343 327.31C96.0993 326.371 97.8756 326.047 99.5778 326.409C101.28 326.77 102.771 327.789 103.728 329.242C104.058 329.742 105.088 329.462 104.728 328.857C104.191 327.988 103.866 327.004 103.779 325.986C103.692 324.967 103.846 323.943 104.228 322.995C104.696 321.8 105.503 320.767 106.55 320.024C107.597 319.281 108.837 318.859 110.12 318.81C111.403 318.762 112.672 319.088 113.772 319.75C114.872 320.413 115.755 321.381 116.313 322.537C116.368 322.632 116.645 323.117 116.813 323.392C117.225 324.072 117.798 323.617 117.735 323.16C116.61 318.22 116.44 314.755 120.735 312.397C126.275 309.795 132.408 315.8 139.85 323.922C153.639 339.666 164.163 357.993 170.81 377.837C174.343 389.28 176.468 396.19 170.985 399.66Z" fill="#FE7624"/>
<path d="M12.9725 435.417C12.869 435.417 12.7684 435.383 12.6862 435.32C12.6041 435.256 12.545 435.168 12.518 435.068C12.491 434.968 12.4977 434.862 12.5369 434.766C12.5761 434.67 12.6457 434.59 12.735 434.537L26.7351 426.38C26.8425 426.326 26.9667 426.314 27.0822 426.348C27.1977 426.383 27.2958 426.46 27.3564 426.564C27.4171 426.668 27.4357 426.791 27.4085 426.908C27.3813 427.026 27.3103 427.128 27.21 427.195C12.5 435.75 13.2225 435.417 12.9725 435.417Z" fill="#FE7624"/>
<path d="M112.96 199.845C113.358 192.12 111.135 184.486 106.651 178.182C102.168 171.879 95.6867 167.274 88.2586 165.114C80.8304 162.955 72.8907 163.368 65.7264 166.286C58.5622 169.203 52.5934 174.455 48.7876 181.19C41.3701 180.285 29.1401 179.49 27.8851 183.825C26.4951 188.628 39.8126 195.17 44.3726 197.325C44.2065 204.902 46.5524 212.321 51.0445 218.426C55.5367 224.53 61.9226 228.976 69.2063 231.07C76.4901 233.165 84.2623 232.791 91.3108 230.005C98.3594 227.22 104.288 222.18 108.173 215.673C133.67 218.75 136.08 210.903 112.96 199.845ZM79.3476 164.708C85.1372 164.834 90.7948 166.462 95.7658 169.432C100.737 172.403 104.851 176.614 107.705 181.653C110.558 186.692 112.054 192.386 112.045 198.177C112.036 203.968 110.522 209.658 107.653 214.688C86.1555 211.583 65.1864 205.541 45.3326 196.733C45.6816 188.004 49.4397 179.761 55.7996 173.773C62.1596 167.785 70.6142 164.53 79.3476 164.708V164.708ZM28.7926 184.088C29.5426 181.5 36.9901 180.74 48.2926 182.088C45.9755 186.487 44.6471 191.339 44.4001 196.305C40.7201 194.543 27.6576 188.013 28.7926 184.088ZM54.6176 221.208C48.5426 214.922 45.1972 206.491 45.3101 197.75C65.0209 206.452 85.8229 212.434 107.145 215.533C104.475 219.879 100.846 223.556 96.5343 226.281C92.223 229.007 87.3447 230.709 82.2736 231.257C77.2025 231.805 72.0733 231.184 67.2793 229.442C62.4854 227.7 58.1541 224.883 54.6176 221.208V221.208ZM127.868 212.755C127.118 215.3 120.035 216.118 108.675 214.81C111.074 210.519 112.516 205.759 112.9 200.858C123.025 205.75 128.61 210.173 127.863 212.75L127.868 212.755Z" fill="#FE7624"/>
<path d="M365.978 99.5951C359.074 103.07 351.999 106.194 344.78 108.953C345.648 107.508 346.715 105.238 345.643 104.153C343.96 102.448 326.375 117.78 323.96 119.903C323.281 119.441 322.574 119.024 321.843 118.653C320.433 118.51 288.135 145.098 244.62 152C244.089 152.079 243.554 152.129 243.018 152.15C240.268 151.483 240.86 150.338 240.018 148.025C243.34 147.483 248.435 146.303 249.498 144.06C252.288 138.175 244.783 122.49 241.783 115.385C237.935 106.273 216.373 110.525 198.783 119.053C184.053 126.195 172.113 136.335 175.693 144.135C177.53 148.135 183.443 149.698 191.975 148.568C183.724 151.838 176.312 156.92 170.288 163.438C146.12 191.188 194.288 194.878 222.6 161.173C218.589 168.042 215.231 175.272 212.57 182.768C208.703 192.69 207.918 193.833 207.845 194.15C207.41 196.108 210.845 198.038 212.63 198.95C211.403 201.616 209.565 203.955 207.265 205.778C188.79 220.46 187.87 241.248 201.548 257.19L202.298 256.615C188.968 241.115 189.753 220.903 207.855 206.518C209.222 205.434 210.437 204.173 211.47 202.768C224.736 202.586 237.802 206.017 249.268 212.693C248.398 214.093 247.415 215.635 246.3 217.36C242.915 215.725 239.446 214.127 235.893 212.565C235.78 212.525 235.657 212.529 235.547 212.576C235.437 212.623 235.35 212.71 235.302 212.82C235.253 212.929 235.248 213.052 235.288 213.165C235.327 213.278 235.407 213.372 235.513 213.428C257.52 222.786 278.061 235.272 296.5 250.5C300.917 254.234 304.487 258.867 306.974 264.089C309.46 269.311 310.805 275.002 310.92 280.785C311.265 297.115 310.785 315.26 309.37 338.095C297.791 340.739 285.707 340.141 274.445 336.368C274.765 321.618 274.195 307.275 273.648 292.39C278.835 277.565 278.648 278.215 278.648 277.963C278.644 277.886 278.621 277.811 278.58 277.746C278.539 277.681 278.482 277.627 278.415 277.59C278.305 277.533 272.975 275.553 272.86 275.508C272.003 275.135 237.03 259.905 216.978 253.59C210.978 251.703 205.978 244.375 204.538 235.358C204.513 235.238 204.444 235.133 204.344 235.064C204.244 234.994 204.121 234.966 204.001 234.985C203.88 235.004 203.772 235.069 203.699 235.166C203.625 235.263 203.591 235.384 203.605 235.505C205.105 244.868 210.355 252.505 216.695 254.49C235.898 260.538 268.858 274.795 272.22 276.258C272.573 295.358 273.97 315.38 273.488 336.648C273.484 336.68 273.484 336.713 273.488 336.745C273.068 355.145 272.018 355.638 272.823 355.95C274.273 356.508 275.688 356.998 277.045 357.408C277.185 365.015 274.778 369.07 276.845 374.018C278.077 376.831 279.85 379.375 282.065 381.503C291.16 390.67 298.565 417.605 305.065 413.39C306.2 412.64 307.088 409.45 305.065 391.335C304.216 380.185 304.34 368.983 305.438 357.855C306.53 357.535 307.64 357.168 308.745 356.755C308.83 356.724 308.904 356.669 308.958 356.596C309.012 356.524 309.044 356.438 309.05 356.348C311.42 324.55 312.283 301.238 311.85 280.763C311.732 274.847 310.356 269.025 307.813 263.682C305.269 258.34 301.618 253.601 297.1 249.78C281.84 237.092 265.065 226.345 247.16 217.785C249.248 214.55 251.698 210.683 253.575 207.303C255.795 206.97 257.05 206.29 257.31 205.283C260.56 198.283 259.673 191.233 257.295 182.863C285.573 177.255 322.668 157.613 339.753 142.67C339.812 142.617 339.858 142.55 339.885 142.475C339.912 142.4 339.92 142.319 339.908 142.24C339.734 141.152 339.484 140.078 339.158 139.025C341.818 136.201 344.824 133.724 348.105 131.653C349.317 132.313 350.677 132.657 352.058 132.653C356.633 132.653 360.96 128.94 361.25 126.065C361.308 125.387 361.139 124.708 360.768 124.138C361.303 123.823 361.764 123.396 362.12 122.887C362.475 122.377 362.715 121.796 362.825 121.185C362.873 120.641 362.782 120.094 362.561 119.594C362.34 119.095 361.995 118.66 361.56 118.33C361.932 117.831 362.141 117.229 362.161 116.607C362.181 115.985 362.009 115.372 361.67 114.85C360.787 113.819 359.691 112.992 358.458 112.426C357.224 111.861 355.882 111.569 354.525 111.573C363.485 106.888 367.315 101.678 367.393 100.188C367.425 99.5401 366.875 99.0751 365.978 99.5951ZM308.14 355.963C296.89 359.977 284.554 359.7 273.495 355.185C273.995 349.16 274.275 343.215 274.418 337.34C285.675 341.063 297.733 341.658 309.303 339.063C308.968 344.428 308.58 350.048 308.14 355.963ZM345.035 104.893C345.653 105.79 343.915 108.71 343.285 109.525C338.797 110.992 334.504 112.998 330.5 115.5C336.443 110.56 343.66 105.033 345.035 104.893ZM224.588 159.88C229.983 151.928 232.673 141.043 233.978 131.56C233.989 131.48 233.98 131.399 233.95 131.324C233.921 131.249 233.873 131.183 233.81 131.133C227.513 125.963 230.893 121.483 234.283 124.935C236.515 127.21 239.6 126.315 237.003 119.04C238.509 118.382 239.958 117.6 241.335 116.703C247.778 131.773 250.018 139.128 248.985 142.733C247.96 146.295 239.113 141.95 235.803 140.233C235.718 140.189 235.621 140.172 235.527 140.184C235.432 140.197 235.343 140.237 235.272 140.301C235.201 140.364 235.151 140.448 235.128 140.541C235.105 140.633 235.111 140.731 235.145 140.82C236.028 143.373 237.317 145.766 238.963 147.908C239.758 149.745 239.483 151.235 240.88 152.265C239.384 152.258 237.929 152.755 236.75 153.675C230.555 159.208 229.425 177.5 215.273 178.5C217.704 171.979 220.827 165.736 224.588 159.88V159.88ZM249.768 211.903C238.347 205.234 225.342 201.76 212.118 201.845C213.831 199.06 215.029 195.989 215.655 192.78C226.533 192.78 247.775 197.673 254.808 202.89C253.285 205.98 251.603 208.988 249.768 211.903ZM248.75 183.178C248.63 183.19 248.519 183.248 248.44 183.339C248.362 183.43 248.321 183.548 248.326 183.669C248.332 183.789 248.383 183.903 248.47 183.987C248.556 184.071 248.672 184.119 248.793 184.12H248.835C251.133 183.91 253.665 183.548 256.368 183.043C258.568 190.768 259.475 197.315 256.963 203.7C254.163 199.39 238.875 195.363 233.818 194.23C227.533 192.703 221.093 191.906 214.625 191.853C212.927 191.825 211.235 192.067 209.613 192.57C211.363 188.648 213 184.25 214.89 179.47C230.003 178.793 231.473 159.655 237.39 154.38C239.17 152.783 242.243 153.355 244.78 152.943C269.713 148.988 295.628 137.798 321.808 119.693C329.65 124.21 337.395 133.058 338.945 142.143C319.125 159.355 276.068 180.693 248.75 183.178ZM352.543 111.515C351.341 111.547 350.145 111.701 348.975 111.975C348.86 112.01 348.764 112.088 348.704 112.192C348.645 112.296 348.627 112.419 348.654 112.536C348.682 112.652 348.753 112.754 348.853 112.82C348.953 112.887 349.074 112.912 349.193 112.893C355.613 111.378 363.058 114.233 360.815 117.75C359.137 116.796 357.288 116.182 355.372 115.944C353.457 115.706 351.513 115.848 349.653 116.363C349.592 116.377 349.535 116.403 349.485 116.439C349.435 116.475 349.392 116.52 349.36 116.573C349.327 116.626 349.305 116.684 349.295 116.745C349.285 116.806 349.287 116.869 349.301 116.929C349.315 116.989 349.341 117.046 349.377 117.096C349.413 117.146 349.459 117.189 349.512 117.222C349.564 117.254 349.623 117.276 349.684 117.286C349.745 117.296 349.807 117.294 349.868 117.28C353.473 116.43 358.44 116.685 361.018 119.105C361.31 119.328 361.543 119.619 361.697 119.953C361.851 120.287 361.921 120.653 361.9 121.02C361.797 121.515 361.592 121.983 361.296 122.393C361.001 122.803 360.622 123.146 360.185 123.4C357.72 120.888 352.865 120.795 349.375 121.5C349.258 121.53 349.156 121.604 349.092 121.707C349.027 121.809 349.005 121.933 349.029 122.052C349.053 122.171 349.122 122.276 349.221 122.345C349.32 122.414 349.443 122.443 349.563 122.425C354.48 121.425 357.84 122.533 359.345 123.898C359.66 124.141 359.912 124.455 360.081 124.815C360.249 125.175 360.33 125.57 360.315 125.968C360.003 127.012 359.465 127.975 358.74 128.789C358.015 129.603 357.119 130.248 356.118 130.678C355.048 131.273 353.857 131.617 352.634 131.686C351.412 131.755 350.19 131.546 349.06 131.075C351.002 129.888 353.081 128.939 355.25 128.25C355.369 128.239 355.48 128.184 355.559 128.094C355.639 128.005 355.682 127.889 355.68 127.769C355.677 127.65 355.629 127.536 355.546 127.45C355.462 127.364 355.35 127.313 355.23 127.308C348.917 129.384 343.258 133.078 338.818 138.023C335.989 130.917 331.108 124.815 324.798 120.495C330.047 116.494 335.86 113.293 342.048 110.995C350.341 107.928 358.461 104.413 366.373 100.465C365.81 101.913 362.023 106.933 352.54 111.515H352.543Z" fill="#18216D"/>
<path d="M244.799 130.605C244.657 129.961 244.874 129.365 245.284 129.275C245.694 129.184 246.141 129.633 246.283 130.278C246.426 130.922 246.208 131.517 245.798 131.608C245.389 131.698 244.941 131.249 244.799 130.605Z" fill="#2E186A"/>
<path d="M244.962 125.524C244.928 125.354 244.828 125.205 244.684 125.109C244.541 125.014 244.365 124.979 244.195 125.013C243.279 125.183 242.449 125.661 241.842 126.368C241.584 126.669 241.37 127.004 241.205 127.364C241.13 127.523 241.068 127.687 241.021 127.856C240.978 128.02 241.001 128.195 241.085 128.342C241.169 128.489 241.307 128.598 241.47 128.645C241.633 128.693 241.808 128.675 241.957 128.595C242.107 128.515 242.22 128.381 242.272 128.219L242.292 128.151C242.319 128.068 242.352 127.987 242.389 127.908C242.503 127.658 242.652 127.425 242.831 127.217C243.248 126.731 243.82 126.404 244.451 126.29C244.62 126.256 244.769 126.157 244.865 126.013C244.961 125.869 244.996 125.693 244.962 125.524V125.524Z" fill="#2E186A"/>
<path d="M246.137 139.136C246.097 139.183 246.065 139.24 246.041 139.304C246.018 139.368 246.004 139.438 246.001 139.509C245.997 139.581 246.004 139.652 246.021 139.72C246.038 139.788 246.065 139.85 246.1 139.904C246.145 139.972 246.194 140.037 246.246 140.096C246.363 140.235 246.49 140.358 246.623 140.465C247.475 141.15 248.55 141.237 249.783 140.374C249.877 140.308 249.949 140.193 249.981 140.056C250.013 139.918 250.004 139.769 249.955 139.64C249.906 139.512 249.822 139.415 249.721 139.371C249.619 139.327 249.509 139.34 249.414 139.406C248.436 140.091 247.653 140.028 247.033 139.528C246.941 139.455 246.854 139.37 246.774 139.275L246.741 139.235L246.703 139.185C246.669 139.132 246.626 139.088 246.579 139.056C246.532 139.024 246.48 139.006 246.428 139.001C246.375 138.997 246.322 139.006 246.272 139.029C246.222 139.052 246.176 139.088 246.137 139.136V139.136Z" fill="#2E186A"/>
<path d="M247.055 127.645C246.954 127.508 246.803 127.417 246.636 127.39C246.468 127.363 246.297 127.402 246.158 127.5C246.019 127.597 246.19 127.269 246.158 127.436C246.126 127.603 246.161 127.775 246.255 127.917L246.276 127.948L250.616 133.765L249.064 134.863C248.928 134.959 248.834 135.104 248.802 135.266C248.769 135.429 248.799 135.599 248.887 135.74L248.661 135.477C248.757 135.613 248.901 135.707 249.064 135.74C249.227 135.773 249.396 135.742 249.537 135.654L249.569 135.633L251.354 134.422C251.492 134.324 251.587 134.177 251.618 134.011C251.65 133.845 251.615 133.673 251.522 133.532L251.5 133.5L247.055 127.645Z" fill="#2E186A"/>
</svg>
