<svg width="30" height="30" viewBox="0 0 30 30" fill="none" xmlns="http://www.w3.org/2000/svg">
<path d="M15.375 15.275C16.042 14.6977 16.5769 13.9836 16.9436 13.1813C17.3102 12.379 17.5 11.5071 17.5 10.625C17.5 8.9674 16.8415 7.37769 15.6694 6.20558C14.4973 5.03348 12.9076 4.375 11.25 4.375C9.5924 4.375 8.00269 5.03348 6.83058 6.20558C5.65848 7.37769 5 8.9674 5 10.625C4.99999 11.5071 5.18975 12.379 5.55641 13.1813C5.92306 13.9836 6.45803 14.6977 7.125 15.275C5.37517 16.0674 3.89058 17.3469 2.84873 18.9607C1.80687 20.5744 1.25184 22.4541 1.25 24.375C1.25 24.7065 1.3817 25.0245 1.61612 25.2589C1.85054 25.4933 2.16848 25.625 2.5 25.625C2.83152 25.625 3.14946 25.4933 3.38388 25.2589C3.6183 25.0245 3.75 24.7065 3.75 24.375C3.75 22.3859 4.54018 20.4782 5.9467 19.0717C7.35322 17.6652 9.26088 16.875 11.25 16.875C13.2391 16.875 15.1468 17.6652 16.5533 19.0717C17.9598 20.4782 18.75 22.3859 18.75 24.375C18.75 24.7065 18.8817 25.0245 19.1161 25.2589C19.3505 25.4933 19.6685 25.625 20 25.625C20.3315 25.625 20.6495 25.4933 20.8839 25.2589C21.1183 25.0245 21.25 24.7065 21.25 24.375C21.2482 22.4541 20.6931 20.5744 19.6513 18.9607C18.6094 17.3469 17.1248 16.0674 15.375 15.275V15.275ZM11.25 14.375C10.5083 14.375 9.7833 14.1551 9.16661 13.743C8.54993 13.331 8.06928 12.7453 7.78545 12.0601C7.50162 11.3748 7.42736 10.6208 7.57206 9.89341C7.71675 9.16598 8.0739 8.4978 8.59835 7.97335C9.1228 7.4489 9.79098 7.09175 10.5184 6.94706C11.2458 6.80236 11.9998 6.87662 12.6851 7.16045C13.3703 7.44428 13.956 7.92493 14.368 8.54161C14.7801 9.1583 15 9.88332 15 10.625C15 11.6196 14.6049 12.5734 13.9017 13.2767C13.1984 13.9799 12.2446 14.375 11.25 14.375ZM23.425 14.775C24.225 13.8742 24.7475 12.7613 24.9298 11.5704C25.112 10.3795 24.9462 9.16134 24.4522 8.0625C23.9583 6.96366 23.1572 6.03099 22.1456 5.37678C21.1339 4.72256 19.9548 4.37468 18.75 4.375C18.4185 4.375 18.1005 4.5067 17.8661 4.74112C17.6317 4.97554 17.5 5.29348 17.5 5.625C17.5 5.95652 17.6317 6.27446 17.8661 6.50888C18.1005 6.7433 18.4185 6.875 18.75 6.875C19.7446 6.875 20.6984 7.27009 21.4017 7.97335C22.1049 8.67661 22.5 9.63044 22.5 10.625C22.4982 11.2815 22.3241 11.9261 21.9951 12.4943C21.666 13.0624 21.1936 13.5342 20.625 13.8625C20.4397 13.9694 20.2849 14.1221 20.1755 14.3059C20.066 14.4898 20.0056 14.6986 20 14.9125C19.9948 15.1247 20.0437 15.3347 20.1421 15.5228C20.2405 15.7109 20.3852 15.8708 20.5625 15.9875L21.05 16.3125L21.2125 16.4C22.7192 17.1146 23.9904 18.245 24.8762 19.6579C25.7621 21.0708 26.2257 22.7074 26.2125 24.375C26.2125 24.7065 26.3442 25.0245 26.5786 25.2589C26.813 25.4933 27.131 25.625 27.4625 25.625C27.794 25.625 28.112 25.4933 28.3464 25.2589C28.5808 25.0245 28.7125 24.7065 28.7125 24.375C28.7227 22.4568 28.2423 20.5678 27.3168 18.8876C26.3914 17.2073 25.0517 15.7916 23.425 14.775V14.775Z" fill="#4338ca"/>
</svg>
