<svg width="30" height="30" viewBox="0 0 30 30" fill="none" xmlns="http://www.w3.org/2000/svg">
<path d="M12.5 16.25H3.75C3.41848 16.25 3.10054 16.3817 2.86612 16.6161C2.6317 16.8505 2.5 17.1685 2.5 17.5V26.25C2.5 26.5815 2.6317 26.8995 2.86612 27.1339C3.10054 27.3683 3.41848 27.5 3.75 27.5H12.5C12.8315 27.5 13.1495 27.3683 13.3839 27.1339C13.6183 26.8995 13.75 26.5815 13.75 26.25V17.5C13.75 17.1685 13.6183 16.8505 13.3839 16.6161C13.1495 16.3817 12.8315 16.25 12.5 16.25ZM11.25 25H5V18.75H11.25V25ZM26.25 2.5H17.5C17.1685 2.5 16.8505 2.6317 16.6161 2.86612C16.3817 3.10054 16.25 3.41848 16.25 3.75V12.5C16.25 12.8315 16.3817 13.1495 16.6161 13.3839C16.8505 13.6183 17.1685 13.75 17.5 13.75H26.25C26.5815 13.75 26.8995 13.6183 27.1339 13.3839C27.3683 13.1495 27.5 12.8315 27.5 12.5V3.75C27.5 3.41848 27.3683 3.10054 27.1339 2.86612C26.8995 2.6317 26.5815 2.5 26.25 2.5ZM25 11.25H18.75V5H25V11.25ZM26.25 16.25H17.5C17.1685 16.25 16.8505 16.3817 16.6161 16.6161C16.3817 16.8505 16.25 17.1685 16.25 17.5V26.25C16.25 26.5815 16.3817 26.8995 16.6161 27.1339C16.8505 27.3683 17.1685 27.5 17.5 27.5H26.25C26.5815 27.5 26.8995 27.3683 27.1339 27.1339C27.3683 26.8995 27.5 26.5815 27.5 26.25V17.5C27.5 17.1685 27.3683 16.8505 27.1339 16.6161C26.8995 16.3817 26.5815 16.25 26.25 16.25ZM25 25H18.75V18.75H25V25ZM12.5 2.5H3.75C3.41848 2.5 3.10054 2.6317 2.86612 2.86612C2.6317 3.10054 2.5 3.41848 2.5 3.75V12.5C2.5 12.8315 2.6317 13.1495 2.86612 13.3839C3.10054 13.6183 3.41848 13.75 3.75 13.75H12.5C12.8315 13.75 13.1495 13.6183 13.3839 13.3839C13.6183 13.1495 13.75 12.8315 13.75 12.5V3.75C13.75 3.41848 13.6183 3.10054 13.3839 2.86612C13.1495 2.6317 12.8315 2.5 12.5 2.5ZM11.25 11.25H5V5H11.25V11.25Z" fill="#4338ca"/>
</svg>
